<?xml version="1.0" standalone="no"?>
<!DOCTYPE svg PUBLIC "-//W3C//DTD SVG 1.1//EN" "http://www.w3.org/Graphics/SVG/1.1/DTD/svg11.dtd" >
<svg xmlns="http://www.w3.org/2000/svg" xmlns:xlink="http://www.w3.org/1999/xlink" version="1.1">
<metadata>
Created by FontForge 20170731 at Sat Nov 10 11:43:58 2018
 By Aleksey,,,
Typeface (c) (brandingashell). 2018. All Rights Reserved
</metadata>
<defs>
<font id="dattebayo" horiz-adv-x="1116" >
  <font-face 
    font-family="dattebayo"
    font-weight="400"
    font-stretch="normal"
    units-per-em="2048"
    panose-1="2 0 5 0 0 0 0 0 0 0"
    ascent="1638"
    descent="-410"
    x-height="597"
    cap-height="1333.5"
    bbox="-376 -525 9135 1823"
    underline-thickness="150"
    underline-position="-442"
    unicode-range="U+001D-F002"
  />
<missing-glyph horiz-adv-x="1126" 
d="M110 -65v1578h906v-1578h-906zM165 -10h796v1468h-796v-1468zM358 1198q34 31 63 47q59 33 124 33q101 0 162.5 -52t61.5 -140q0 -54 -25.5 -108.5t-95.5 -142.5q-69 -88 -109 -145t-40 -109q0 -42 27 -146h-35q-39 106 -39 162q0 84 89.5 240t89.5 239q0 63 -36 99
t-100 36q-42 0 -76 -19q-28 -16 -61 -44v50zM428 303l63 63q12 11 22 11q11 0 24 -12l61 -66q10 -12 10 -22q0 -12 -11 -24l-61 -68q-16 -16 -23 -16q-12 0 -22 11l-67 79q-8 9 -8 19q0 11 12 25z" />
    <glyph glyph-name="eb" unicode="eb" horiz-adv-x="953" 
d="M136 674v0v0q-3 25 -26 37q-13 7 -27 0q-38 -23 -67.5 -76t-33.5 -96q-2 -37 7 -67q10 -29 33 -51t54 -23q41 4 87 43.5t84.5 86.5t57.5 74q122 171 237 383q-94 -234 -144 -541q-8 -52 1 -61q4 -3 7 -4t4 3q2 8 19.5 43.5t45 79.5t61.5 76.5t71 32.5q24 -3 29 -32
t0.5 -63t-8.5 -49q-2 -11 -5 -21v-1.5t-1 -4t-1 -4.5q-4 -15 -9 -30q-54 -43 -85 -80q-46 -60 -41 -82q2 -11 8 -19.5t18 -11.5q24 -4 47 14q33 29 60 89q26 56 39 117q11 7 23 14q119 69 253 102q12 3 16 3q3 -1 7 1v0q3 2 3 3q-1 2 -2.5 2h-3.5h-1l-12 -3
q-140 -32 -263 -105q-9 -5 -18 -11v2q4 16 7 38v3.5v2.5v1q6 45 -5.5 85.5t-57.5 43.5q-42 -1 -80.5 -42t-67.5 -91.5t-42 -81.5q52 254 122 452q13 40 41 114.5t58.5 143t51.5 88.5q10 9 17 18q3 3 6 7q23 24 20 57q-1 11 -8.5 21t-18.5 13q-9 0 -16 -11t-11 -21
q-2 -5 -3 -8q-58 -113 -106 -228v0v-1v0v-1h-1v-1v0v-1v0h-1v-1v0v-1v0l-1 -1l-1 -3v-1v0l-1 -1v0v-1v0v-1h-1v-1v0v-1v0h-1v-1v0v-1v0v-1h-1l-2 -5v0v-1v0v-1h-1q-122 -231 -255 -418q-19 -28 -58.5 -75.5t-84 -86t-81.5 -38.5q-39 5 -52 41t-10 69q2 20 8 40q3 2 21 13.5
t39.5 29.5t37.5 38t15 38zM494 248v0v0q-5 0 -3 8q4 25 40 69q28 35 78 75q-9 -28 -21 -53q-27 -58 -59 -86q-18 -16 -35 -13zM111 679v0q3 2 8 3.5t9 0.5q2 -21 -16.5 -43t-42.5 -40.5t-40 -28.5q11 28 33.5 60.5t48.5 47.5z" />
    <glyph glyph-name="att" unicode="att" horiz-adv-x="1431" 
d="M735 1466v0v0q-21 -36 -34 -78q-4 -11 -8 -21q-46 -123 -96 -269q-33 -64 -67 -129h-161q-1 0 -1 -1t1 -3l2.5 -2.5t3.5 -1.5h151q-22 -40 -43 -78q-138 -253 -240 -352q-18 -18 -36.5 -25.5t-35.5 14.5q-7 10 -12 19q-2 4 -4 7t-4 7q-5 10 -11 14t-15 -8l-4 -6
q-39 -58 -91 -109q-22 -20 -40 -27q-6 -3 -9.5 -2.5t-4.5 6.5q0 37 18 69q10 22 28.5 50t41.5 35h1q4 1 18 6q10 3 14 8t10 24.5t-23 26.5q-24 3 -48 -20t-37 -41q-29 -40 -44 -80.5t-11 -63.5q3 -12 12.5 -18.5t21.5 -6.5q22 0 56 31q50 47 88 105q6 10 10 1q6 -13 18 -26
t28 -19q18 -7 36 2.5t31 21.5q103 100 241 353q23 41 45 82h22q-62 -201 -96 -369.5t-36 -315.5q1 -48 16.5 -102t61.5 -74q42 -12 88.5 25t85.5 88t58 82q131 200 279 578q-51 -177 -83 -349.5t-34 -323.5q1 -50 21 -119.5t76 -90.5q34 -6 65.5 11t54.5 40q62 59 110 132
q65 95 120 197q45 82 85 166q19 25 17.5 32.5t-4.5 8.5t-4 1t-3 -4.5l-2 -4.5q-29 -63 -60 -125q-58 -113 -126 -221q-46 -74 -103 -140q-26 -31 -67 -61.5t-84 -23.5q-30 10 -43 41t-18 62q-10 69 -4 138q20 222 80 440q36 142 79 283h184h13h6q11 1 23 -1q3 -1 7 -1h5
q3 -1 5 -1.5t3 -1.5q2 -1 5 -2h5.5h7.5h5q3 1 5 1.5t5 0.5h2q3 0 4.5 1t0.5 4q-3 6 -10.5 7t-13.5 1h-1h-15h-29h-4h-211q68 221 145 437q2 6 4 13q5 13 10 27t10 22q4 6 6 8t4 3q3 2 7 6q8 8 10.5 14t3.5 14q0 3 1 7l4 14q4 11 5 21t-5 19q-6 8 -15.5 14t-18.5 2l-30 -78
l-16 -44q-86 -224 -172 -499h-161.5h-280.5q54 173 115 345v2q2 4 4 9q8 27 19 50q12 19 20 41q1 2 2 6q3 8 6 17t1 16q-4 10 -11.5 11.5t-16.5 -1.5zM535 969v0v0q26 49 52 99q-16 -49 -32 -99h-20zM593 961v0l443 1l-10 -34q-159 -416 -299 -630q-15 -25 -53.5 -76.5
t-86 -90.5t-90.5 -27q-22 9 -32.5 36.5t-13.5 50.5q-9 59 -4 119q18 190 69 378q31 122 77 273z" />
    <glyph glyph-name=".notdef" horiz-adv-x="1126" 
d="M110 -65v1578h906v-1578h-906zM165 -10h796v1468h-796v-1468zM358 1198q34 31 63 47q59 33 124 33q101 0 162.5 -52t61.5 -140q0 -54 -25.5 -108.5t-95.5 -142.5q-69 -88 -109 -145t-40 -109q0 -42 27 -146h-35q-39 106 -39 162q0 84 89.5 240t89.5 239q0 63 -36 99
t-100 36q-42 0 -76 -19q-28 -16 -61 -44v50zM428 303l63 63q12 11 22 11q11 0 24 -12l61 -66q10 -12 10 -22q0 -12 -11 -24l-61 -68q-16 -16 -23 -16q-12 0 -22 11l-67 79q-8 9 -8 19q0 11 12 25z" />
    <glyph glyph-name=".null" horiz-adv-x="0" 
 />
    <glyph glyph-name=".null" horiz-adv-x="0" 
 />
    <glyph glyph-name="nonmarkingreturn" horiz-adv-x="508" 
 />
    <glyph glyph-name="space" unicode=" " horiz-adv-x="150" 
 />
    <glyph glyph-name="space" unicode="&#xa0;" horiz-adv-x="150" 
 />
    <glyph glyph-name="exclam" unicode="!" horiz-adv-x="334" 
d="M247 1132v0v0q-69 -206 -132 -439q-64 -237 -97 -405q-1 -4 2.5 -9.5t9.5 -9.5q5 -5 9.5 -5t5.5 3q32 169 96 405q48 176 101 342v1q3 9 7 15q5 7 7 15q5 17 17 36q0 1 1 1q5 11 3.5 20.5t-6.5 16.5q-3 5 -8 10q-6 4 -10.5 5t-5.5 -2zM23 155v0v0q5 -1 10.5 1.5t5.5 8.5
q0 4 -1 8q-1 2 -1.5 4.5t0.5 5.5q1 6 0 14.5t-5 13.5q-4 7 -10 12q-6 4 -10 4.5t-5 -3.5q-3 -15 -4 -23t-2 -18v0v-5q-1 -4 2.5 -9t9.5 -10q6 -4 10 -4v0z" />
    <glyph glyph-name="quotedbl" unicode="&#x22;" horiz-adv-x="211" 
d="M89 1124v0q5 -5 7 -10t0 -8v0q-2 -2 -12.5 -16t-21 -33.5t-13.5 -38.5q0 -4 -4.5 -4t-9.5 4q-6 4 -9.5 9.5t-3.5 9.5q6 34 30 69v0l0.5 0.5l1 1t0.5 1.5q9 12 17 21q2 3 7 1t11 -7zM158 1124v0q5 -5 7 -10t0 -8v0q-3 -2 -13 -16t-21 -33.5t-13 -38.5q0 -4 -4.5 -4t-9.5 4
q-6 4 -9.5 9.5t-3.5 9.5q5 34 30 69v0l0.5 0.5l1 1t0.5 1.5q9 12 17 21q2 3 7 1t11 -7z" />
    <glyph glyph-name="numbersign" unicode="#" horiz-adv-x="795" 
d="M57 446v0v0h1q13 2 120 14q-20 -76 -29 -129q0 -4 3 -9t9 -10q6 -4 10 -4t5 3q11 62 35 152q90 10 195 19q-34 -122 -49 -205q-1 -4 2.5 -9.5t9.5 -9.5q6 -5 10 -5t5 4q17 92 55 228q114 10 202 13v0q3 0 7 -1q5 -2 10 -2q5 1 8 1t7 -1q9 -2 11 -1v2.5t-1 2.5v1v0l-1 0.5
l-1 0.5q-96 0 -241 -12q26 93 52 180q54 4 99 5v0v0h3h4q2 -1 4 -1t5 -1q6 -1 11 0q4 0 9 -1h4h2q1 0 1.5 2t-0.5 3v0v0v0l-1.5 1.5t-1.5 0.5q-55 0 -138 -6q23 76 39.5 127.5t20.5 64.5v2q1 4 -2 9t-8 10q-6 4 -10.5 5t-5.5 -2q0 -1 -1 -3q-4 -13 -22.5 -72t-44.5 -143
q-100 -8 -193 -18q20 69 34 113t15 46q1 4 -2 9t-9 10q-5 5 -9.5 5.5t-5.5 -2.5t-17.5 -55t-40.5 -130q-56 -6 -90.5 -10t-36.5 -4v-0.5v-1.5q1 -1 1.5 -1h1.5v0q2 0 35.5 4t87.5 10q-27 -91 -51 -182q-56 -6 -89.5 -10t-34.5 -4v-0.5v-1.5q1 0 1.5 -0.5zM212 467v0
q26 93 52 181q93 10 194 18q-26 -88 -51 -180q-105 -9 -195 -19z" />
    <glyph glyph-name="dollar" unicode="$" horiz-adv-x="468" 
d="M239 631v0l9.5 8.5t24 20.5t31 21.5t31.5 11.5q4 1 3.5 5t-4.5 10q-5 6 -10.5 9.5t-9.5 2.5q-13 -2 -27 -9q49 53 46 96.5t-81 53.5q38 105 40 109q1 3 -2 8.5t-8 10.5q-6 4 -10.5 5t-6.5 -2l-1 -2q-8 -19 -46 -125q-1 -1 0 -3q-47 -2 -94 -21q-56 -22 -88 -60
q-18 -23 -21 -52q-4 -30 12 -67q28 -66 133 -151q23 -19 31 -42q9 -29 -1 -57q-11 -29 -36 -49q-30 -24 -72 -26q-70 -4 -60 69q7 39 24 65v1.5t-1 0.5q-1 1 -1.5 1h-0.5q-17 -27 -24 -66q-5 -30 3.5 -55.5t37.5 -37.5q-4 -19 -7 -38q-5 -27 -8 -52q-1 -4 3 -9.5t9 -10.5
q6 -4 10.5 -4t5.5 3q3 27 8 53q4 26 9 53q6 -1 11 0q46 3 78 27q27 22 38 53q12 32 0 67q-12 37 -52 70q-90 73 -112 126q-14 31 -11 56q3 26 21 48q30 36 85 58q48 19 94 20q86 1 85 -36t-52 -95q-23 -14 -40.5 -29.5t-20.5 -18.5l-1 -1q-2 -2 0 -7t7 -10q6 -6 11 -8t8 1z
" />
    <glyph glyph-name="percent" unicode="%" horiz-adv-x="789" 
d="M83 281v0q95 170 224 318.5t229 242t105 96.5q3 3 1 8t-7 10t-10 7t-8 0q-15 -13 -28 -24q-31 -29 -59.5 -47.5t-78.5 -33.5q-98 -33 -203 9v0v0v0v0v0v0v0v0v0v0v0v0h-1v0v0v0v0v0v0v0v0v0v0v0v0v0v0v0v0v0v0v0v0v0v0v0v0v0v0v0v0v0v0v0v0v0v0v0v0v0v0v0v0v0v0v0v0v0v0
v0v0v0v0v0v0v0v0v0v0v0v0v0v0v0v0v0v0v0v0v0v0v0v0v0v0v0v0v0v0v0v0v0v0v0v0v0v0v0v0v0v0v0v0v0v0v0v0v0v0v0v0v0v-1v0v0v0v0v0v0v0v0v0v0v0v0v0v0v0v0v0v0v0v0v0v0v0v0v0v0v0v0v0v0v0v0v0v0v0v0v0v0v0v0v0v0v0v0v0v0v0v0v-1v0v0v0v0v0v0v0v0v0v0v0v0v0v0v0v0h1v0v0v0v0v0v0
v0v0v0v0v0v0v0v0v0v0v0v0v0v0v0v0v0v0v0v0v0v0v0v0v0v0q51 -40 39 -89q-5 -21 -18 -38t-32 -26q-37 -14 -65.5 6.5t-33.5 56.5q-3 28 11 56t40 45q28 19 63 16q5 -1 5.5 2.5t-2.5 9.5q-3 5 -8.5 9.5t-10.5 4.5q-40 5 -70 -16q-28 -19 -43 -48q-15 -30 -12 -63q6 -44 45 -71
t83 -11q19 9 33 26q13 17 18 38q11 47 -34 88q102 -37 197 -7q41 13 80 33q-112 -102 -269 -284.5t-250 -386.5q-1 -4 2 -9t8 -10q6 -5 10.5 -6t6.5 3q47 107 147.5 194.5t213.5 112.5q-25 -18 -40 -46q-15 -30 -12 -63q7 -44 45.5 -71t82.5 -10q20 8 33 25t18 39
q13 50 -42 93q-1 1 -1 0l0.5 -1l0.5 -1q51 -40 39 -89q-5 -21 -18 -38t-32 -25q-37 -14 -65.5 6t-33.5 56q-3 29 11 56q14 28 40 45q28 19 63 16q5 -1 6 2.5t-3 9.5q-3 6 -8.5 10t-10.5 5q-36 4 -65 -14q-104 -20 -189.5 -89.5t-137.5 -135.5z" />
    <glyph glyph-name="ampersand" unicode="&#x26;" horiz-adv-x="550" 
d="M444 788v0l-13 -5t-30.5 -13.5t-32.5 -19.5l-2 -2l-8 -6q14 34 10.5 68t-46.5 41v0h-3q9 40 10 42q0 3 -3 8.5t-9 10.5q-5 4 -9.5 4.5t-5.5 -2.5l-1 -4q-3 -12 -15 -62q-77 -22 -108 -97q-13 -32 -14 -64q0 -34 17 -63q16 -28 45 -44q-48 -14 -104.5 -54t-74.5 -116
q-4 -25 3 -48q11 -35 40.5 -55t65.5 -26q6 -2 14 -2q-3 -19 -7 -35q-6 -25 -8 -59q0 -5 3.5 -10t9.5 -9t10 -4t4 4q3 37 9 66q4 18 7 38q1 4 -3 9q17 1 35 6q57 15 109 72q-6 -25 -7 -47q0 -4 4 -9.5t10 -9.5q5 -4 9 -3.5t4 4.5q1 28 10.5 59.5t22 60t22 46.5t9.5 19
q2 3 -0.5 8t-8.5 10q-5 5 -10 6.5t-7 -1.5q-19 -35 -33 -67q-21 -50 -49.5 -88t-86.5 -57q-18 -5 -35 -6q-3 4 -7 7q-6 4 -10 4t-5 -4l-1 -7q-8 0 -16 2q-60 9 -78 66q-6 18 -2 40q10 50 41.5 83.5t69.5 53t67 28t35 9.5q8 2 1 13q-3 6 -8.5 10t-10.5 4q-52 4 -66 31
q-12 20 -12 47q1 30 13 59q26 65 89 90q53 17 65 -5.5t-6 -75.5q-21 -16 -25 -20l-1 -1q-3 -2 -1 -7t7 -11q5 -5 10 -7t8 0v0q5 4 42 34q14 10 31 18.5t30 13l13 4.5q3 2 2.5 6.5t-5.5 9.5q-4 6 -9.5 9t-9.5 2z" />
    <glyph glyph-name="quotesingle" unicode="'" horiz-adv-x="132" 
d="M89 1124v0q5 -5 7 -10t0 -8v0q-2 -2 -12.5 -16t-21 -33.5t-13.5 -38.5q0 -4 -4.5 -4t-9.5 4q-6 4 -9.5 9.5t-3.5 9.5q6 34 30 69h0.5t0.5 0.5t0.5 1t0.5 1.5q9 12 17 21q2 3 7 1t11 -7z" />
    <glyph glyph-name="parenleft" unicode="(" horiz-adv-x="371" 
d="M340 1220v0q-4 -1 -60.5 -78t-128.5 -223t-121 -353q-30 -144 -26 -242q7 -138 60 -206q57 -73 127 -86q26 -6 51 -5q4 1 4.5 4.5t-3.5 9.5t-9.5 9.5t-9.5 3.5q-23 -1 -46 5q-55 10 -96 62q-45 57 -51 185q-4 96 26 239q49 207 120 352t127.5 221.5t60.5 76.5q2 3 0 8
t-8 10q-5 6 -10 7.5t-7 -0.5z" />
    <glyph glyph-name="parenright" unicode=")" horiz-adv-x="532" 
d="M-39 24v0q4 1 60.5 78t128.5 223t120 354q31 143 27 241q-7 138 -60 206q-57 73 -128 86q-26 6 -50 5q-5 0 -5 -4t4 -10t9.5 -9.5t9.5 -3.5q23 1 46 -4q55 -11 95 -62q45 -58 52 -186q4 -96 -26 -239q-49 -206 -120.5 -351.5t-127.5 -221.5t-60 -77q-2 -3 0 -8t7 -10
q6 -5 11 -7t7 0z" />
    <glyph glyph-name="asterisk" unicode="*" horiz-adv-x="356" 
d="M26 770v0l107 58l-13 -109q0 -4 3.5 -9.5t9.5 -9.5t10 -4t4 3l16 140l108 -66q6 -4 9.5 -3.5t3.5 5.5q-1 4 -5 9.5t-10 9.5l-93 58l122 66q3 2 2 6.5t-6 10.5q-5 5 -10.5 8t-8.5 1l-107 -58l12 109q1 4 -2.5 9.5t-9.5 9.5t-10 4.5t-5 -3.5l-15 -140l-108 67
q-6 3 -9.5 2.5t-3.5 -5.5q0 -4 4.5 -9.5t9.5 -9.5l94 -57l-123 -67q-2 -2 -1 -6.5t6 -10.5q5 -5 10 -7.5t9 -1.5z" />
    <glyph glyph-name="plus" unicode="+" horiz-adv-x="360" 
d="M3 548v0q3 -1 31 -2t68 -2q-10 -47 -11 -102q0 -4 4 -9.5t10 -9.5t10 -4t4 5q2 66 15 120h5q37 0 67.5 -0.5t45.5 -1.5q4 0 4.5 3t-2.5 8t-7.5 8.5t-8.5 3.5q-45 2 -99 1q10 38 18.5 61t9.5 25v0q1 4 -2 9t-8 10q-6 5 -11 6t-6 -2q-1 -1 -12 -31t-22 -79q-43 -2 -72 -3.5
t-30 -1.5q-4 0 -4 -3.5t3 -8.5z" />
    <glyph glyph-name="comma" unicode="," horiz-adv-x="281" 
d="M79 421v0v0q3 -32 -5 -55q-8 -24 -25 -38q-4 -2 -1.5 -8.5t8.5 -13.5q7 -6 13 -9t10 0q20 15 28 42q9 26 6 62q0 5 -5.5 12t-12.5 11q-7 5 -11.5 4t-4.5 -7z" />
    <glyph glyph-name="hyphen" unicode="-" horiz-adv-x="521" 
d="M84 550v0q4 -2 52.5 -3t109.5 -1q42 -1 77 -1.5t53 -1.5q4 0 4.5 3.5t-2.5 9.5q-4 6 -9.5 10t-9.5 4q-52 3 -115.5 1.5t-110 -4t-49.5 -2.5q-4 -1 -4 -5t4 -10z" />
    <glyph glyph-name="hyphen" unicode="&#xad;" horiz-adv-x="521" 
d="M84 550v0q4 -2 52.5 -3t109.5 -1q42 -1 77 -1.5t53 -1.5q4 0 4.5 3.5t-2.5 9.5q-4 6 -9.5 10t-9.5 4q-52 3 -115.5 1.5t-110 -4t-49.5 -2.5q-4 -1 -4 -5t4 -10z" />
    <glyph glyph-name="period" unicode="." horiz-adv-x="229" 
d="M87 473v0v0v-5.5t1 -4.5q2 -4 2 -9t-5.5 -8t-11.5 -1q-4 0 -9 4q-6 4 -9.5 9.5t-3.5 9.5v4l1 1q0 9 1.5 17t3.5 24q1 3 5 3t10 -4q7 -6 10 -12q4 -5 5.5 -13.5t-0.5 -14.5z" />
    <glyph glyph-name="slash" unicode="/" horiz-adv-x="565" 
d="M517 1179v0q-7 -7 -106.5 -152t-215 -359t-168.5 -428q-1 -5 2 -12t9 -13q6 -5 10.5 -6t5.5 3q53 213 167.5 426.5t214 357.5t106.5 151q2 3 0 9.5t-7 13.5t-10 9t-8 0z" />
    <glyph glyph-name="zero" unicode="0" horiz-adv-x="633" 
d="M357 233v0v0q-72 -93 -144.5 -71.5t-122.5 121.5q-62 141 -26 323q36 183 135 322q64 89 141 129q65 30 128 21t89 -62q17 -37 16 -81q0 -88 -67 -169q3 80 1 128.5t-3 50.5l-0.5 0.5l-1.5 1.5h-0.5h-0.5v0q1 -4 3 -54t-1 -131q-30 -34 -74 -60v-0.5t1 -1.5q0 -1 1 -1h1
q41 25 71 56q-4 -117 -34.5 -256.5t-105.5 -256.5q-3 -4 -6 -9zM67 290v0q27 -59 78.5 -103t119.5 -31q48 12 95 75l6 8v1q76 118 106.5 259.5t33.5 259.5q70 83 71 173q0 46 -17 83q-35 72 -103.5 87t-139.5 -19q-79 -40 -144 -131q-100 -140 -136 -326q-37 -187 30 -336z
" />
    <glyph glyph-name="one" unicode="1" horiz-adv-x="381" 
d="M56 145v0v0q2 -5 2 -8t2 -6.5t9 -9.5q5 -4 9.5 -4.5t5.5 3.5l12 64q55 8 149 0q1 -1 1 -0.5v1.5l-1.5 1.5t-1.5 0.5q-92 8 -146 0q42 210 91 412q58 235 137 455q1 4 -2 9.5t-9 9.5q-9 8 -14 5q-11 -9 -34 -36t-40 -49q-7 -9 -11 -13q-40 -51 -85 -98q0 -1 0.5 -1.5
l0.5 -0.5l1.5 -1.5t0.5 0.5q45 47 85 98q37 46 77 89q-77 -216 -134 -446q-52 -215 -96 -438q-31 -8 -46.5 -15.5t-18.5 -9.5v-1.5t1 -1.5t2 0q12 4 25 5q11 0 19 -3q6 -4 9 -11zM64 178v0l-6 -32q-4 9 -12 12q-9 4 -20 4q-6 0 -12 -2q14 9 50 18z" />
    <glyph glyph-name="two" unicode="2" horiz-adv-x="610" 
d="M68 180v0q40 37 80 82q184 215 309 471q14 28 39 88.5t42 127.5t6 114.5t-71 49.5q-78 -2 -137 -44.5t-99 -99t-59.5 -99.5t-19.5 -45q-1 0 -0.5 -1t1.5 -1q0 -1 0.5 -1h1.5q0 3 20 45.5t59 99t98 99t137 44.5q43 -2 45.5 -50t-17 -114t-42.5 -120.5t-30 -69.5
q-124 -256 -308 -469q-61 -70 -120 -117q-3 -2 -1.5 -7t6.5 -11q6 -5 11 -7t8 0q67 45 184 71q67 14 136.5 14t127.5 -25l1 -1q0 -1 0.5 -1t1.5 -1q1 0 1 -1q1 -1 2 -1h1t1.5 0.5l0.5 0.5v0v0v0v1l-0.5 0.5l-1.5 1.5q-99 43 -218.5 24t-195.5 -48z" />
    <glyph glyph-name="three" unicode="3" horiz-adv-x="592" 
d="M315 692v0q67 4 118 -22t69 -96q15 -65 -17 -140q-31 -77 -108 -142q-64 -53 -157 -85.5t-215 -30.5q-4 0 -4.5 -4t3.5 -9q4 -6 9 -10t10 -4q124 -2 218.5 31t159.5 87q78 66 111 145q32 79 17 149q-24 89 -95.5 116t-154.5 15q58 32 108 71q95 75 143 152q36 58 29 111
t-74 73q-59 13 -117 -19.5t-105 -83.5t-75.5 -92t-29.5 -44v-1t1 -1q0 -1 1 -1h1v0q2 6 31 47t75.5 91t103 82.5t114.5 19.5q52 -18 49 -67.5t-30 -91.5q-47 -76 -141 -150q-75 -58 -167 -100q-3 -1 -2 -5.5t6 -10.5t10 -8.5t9 -1.5q14 6 23 11q17 9 31.5 13.5t41.5 5.5z
" />
    <glyph glyph-name="four" unicode="4" horiz-adv-x="548" 
d="M328 1024v0q-66 -72 -139 -186t-166 -270l-21 -35q-2 -3 0.5 -8t8.5 -10q5 -5 10 -6.5t7 1.5q23 15 67 28t75 18q62 10 149 13q-31 -130 -50.5 -239.5t-17.5 -167.5q1 -4 5 -9.5t10 -9.5q5 -3 9 -2.5t3 4.5q-2 60 19 175t54 250h58q1 0 0 1q0 1 -0.5 1.5t-1.5 0.5h-55
q63 259 109 419q3 5 7.5 15t4.5 16q0 5 6 11q5 5 9 14t1 19t-7 15q-3 5 -9 10t-10.5 5.5t-5.5 -2.5v-2q-7 -21 -49 -175t-88 -346q-89 -3 -152 -13q-73 -12 -128 -28l9 13q92 156 165.5 270t138.5 186q2 2 0 7.5t-7 10.5t-10 7t-8 -1z" />
    <glyph glyph-name="five" unicode="5" horiz-adv-x="610" 
d="M91 1032v0l1 1q11 2 88 9l-78 -294q0 -3 3 -8.5t9 -10.5q5 -4 9.5 -4.5t5.5 2.5q22 27 64 43t74 19q42 4 84 -11q49 -20 68 -70q18 -45 18 -97q0 -6 -1 -12q-2 -59 -18 -106q-50 -142 -154 -242q-24 -22 -50 -39q-62 -39 -103 -41q-58 -1 -81.5 41.5t-26.5 92.5
q0 1 -0.5 1.5t-1.5 0.5q0 1 -0.5 1t-0.5 -1q4 -60 33.5 -112t96.5 -51q44 3 108 43q26 17 51 40q106 101 156 244q36 101 21 186t-113 125q-63 20 -123.5 4t-93.5 -35l77 293q121 11 302 4v0v0h1q1 -1 2 -1h3h3.5h3.5q1 -1 3 -1t4 -0.5t3 -0.5q2 0 3 -1q2 -1 4 -1q1 0 3 1
t3.5 1.5t1.5 1.5q1 0 1.5 1t-0.5 1q0 1 -0.5 1.5t-1.5 0.5q-203 9 -338 -3l17 66q1 3 -2 8.5t-9 10.5q-6 4 -10.5 4.5t-5.5 -2.5l-23 -90q-90 -8 -93 -9v-1.5v-0.5l1.5 -1.5t1.5 -0.5z" />
    <glyph glyph-name="six" unicode="6" horiz-adv-x="594" 
d="M533 925v0v0q5 54 -17.5 99t-69.5 56q-63 11 -156 -58q-91 -67 -167 -216q-35 -70 -59 -159q-30 -22 -62 -48q-2 -2 -0.5 -7t6.5 -10q6 -6 11 -8t8 0q12 11 25 20q-3 -12 -5 -24q-25 -140 -17 -229q4 -69 40 -127.5t113 -54.5q45 4 95 36q108 71 161 167t54 186
q-1 105 -63 161.5t-174 32.5q-66 -15 -151 -68q19 60 44 110q75 146 166 213q85 66 149 56t66 -126q0 -1 0.5 -1.5l0.5 -0.5q1 -1 1.5 -1t0.5 1zM277 716v0q100 20 156 -31t56 -135q0 -90 -53 -185.5t-161 -166.5q-50 -32 -94 -36q-65 -3 -92.5 49t-31.5 114q-8 86 17 225
q7 38 16 73q107 75 187 93z" />
    <glyph glyph-name="seven" unicode="7" horiz-adv-x="505" 
d="M88 556v0v0l-1 -1v0q-46 -3 -69 -5q91 -14 123.5 -54.5t25.5 -96.5q-7 -55 -34 -113q71 123 144 283q-32 -2 -73.5 -5t-74.5 -5.5t-41 -2.5zM314 570v0q-60 -133 -122 -247t-106 -173q-14 -18 -24 -28q-3 -2 -8 0t-10 7t-7 10t0 8q10 9 23 27q37 47 66.5 107.5
t36.5 119.5q8 56 -27 96.5t-133 51.5q-1 0 -1.5 0.5l-1.5 1.5l0.5 0.5t1.5 0.5h1h1q22 2 101.5 8.5t175.5 17.5q16 35 31 69q79 178 99 292.5t-67.5 138t-329.5 -71.5l-0.5 0.5t-1.5 0.5q0 1 -0.5 1.5t0.5 0.5q236 94 337 79.5t92 -132t-103 -331.5l-18 -42q33 4 64 9
l0.5 -0.5l1.5 -1.5t0 -1q2 -3 -0.5 -7.5t-7.5 -7.5q-9 -5 -16 -3q-4 1 -22 0q-10 0 -26 -1z" />
    <glyph glyph-name="eight" unicode="8" horiz-adv-x="531" 
d="M114 107v0v0q-60 -9 -67 52q-4 27 5 67q12 48 55 105q38 50 88 105q21 -30 36 -67q27 -66 20 -120t-44.5 -93.5t-92.5 -48.5zM18 176v0v0q16 -83 96 -74q55 9 94 49.5t47 95.5q6 54 -21 121q-16 38 -37 70q6 6 12 13q126 140 187.5 247.5t71.5 184.5q8 58 -5 100
q-15 47 -49 78q-68 56 -151.5 38.5t-134.5 -81.5q-17 -22 -27 -48q-18 -17 -34 -37q-68 -85 -70 -189q3 -68 36 -116.5t79 -93.5q31 -32 61 -68q-53 -58 -93 -110q-44 -59 -56 -108q-10 -43 -6 -72zM174 468v0q-29 35 -60 66q0 1 -1 1q-44 44 -76.5 92t-35.5 115
q1 104 69 188q13 16 27 31q-5 -15 -7 -31q-8 -52 17 -107l0.5 -0.5l1.5 -1.5q1 0 1 2q-25 53 -17 105q4 20 11 39q61 58 138 77q1 1 0.5 1.5l-0.5 0.5l-1.5 1.5l-0.5 0.5q-73 -19 -132 -71q9 20 23 38q50 62 129 74.5t144 -41.5q21 -19 31 -52q12 -38 5 -92
q-11 -76 -71.5 -182t-186.5 -246l-5 -5q-1 -2 -3 -3z" />
    <glyph glyph-name="nine" unicode="9" horiz-adv-x="608" 
d="M398 1102v0q-98 35 -193.5 -17t-153.5 -157q-50 -95 -51 -183q9 -178 173 -88q98 61 198 164t148 161q-12 -67 -45 -200.5t-87.5 -279t-130.5 -248t-174 -107.5q-5 0 -5 -4t4 -10q3 -5 8.5 -9t10.5 -4q92 4 164.5 92t127 217.5t90 259.5t53.5 218t18 92t-3.5 9.5
t-8.5 9.5q-6 4 -10 4.5t-5 -3.5q-11 -37 -51 -81q-59 -68 -142 -149t-161 -130q-137 -82 -144 68q0 85 49 178q30 55 79 108.5t111.5 81t130.5 4.5q24 -9 39 -25.5t12 -42.5q0 -1 0.5 -1.5l0.5 -0.5q1 -1 1.5 -1t0.5 1l0.5 5t-1.5 13.5t-7 18.5t-16 19.5t-30 16.5z" />
    <glyph glyph-name="colon" unicode=":" horiz-adv-x="183" 
d="M44 518v0v0q-2 -5 -3.5 -8t-2.5 -6t-3 -6q-1 -2 -2 -5q-1 -4 2 -10t10 -12t12.5 -7t7.5 3q1 4 2 6l2 4q0 1 1 1q1 3 2 5.5l3 7.5t-1.5 11t-10.5 12q-7 5 -12.5 6t-6.5 -2zM56 707v0q-2 -4 -3 -7t-3 -6q-2 -5 -4 -11q-2 -4 1.5 -10t9.5 -12q7 -6 12.5 -7t7.5 2q2 5 3 8
q1 1 2 3q1 3 2.5 6t3.5 8q1 4 -2.5 10.5t-10.5 12.5q-6 5 -11.5 6t-7.5 -3z" />
    <glyph glyph-name="semicolon" unicode=";" horiz-adv-x="270" 
d="M79 506v0v0q3 -32 -5 -55q-8 -24 -25 -38q-4 -3 -1.5 -9t8.5 -13t12.5 -9.5t10.5 -0.5q19 16 28 43q9 26 6 61q0 6 -5.5 13t-12.5 11t-11.5 3.5t-4.5 -6.5zM91 705v0q-2 -5 -3.5 -8t-2.5 -6q-3 -6 -5 -11t1.5 -11.5t10.5 -12.5t13 -7.5t8 2.5l3 7.5t2 3.5v1q1 3 2.5 6
t3.5 8t-2 11.5t-11 12.5t-12.5 7t-7.5 -3z" />
    <glyph glyph-name="semicolon" unicode="&#x37e;" horiz-adv-x="270" 
d="M79 506v0v0q3 -32 -5 -55q-8 -24 -25 -38q-4 -3 -1.5 -9t8.5 -13t12.5 -9.5t10.5 -0.5q19 16 28 43q9 26 6 61q0 6 -5.5 13t-12.5 11t-11.5 3.5t-4.5 -6.5zM91 705v0q-2 -5 -3.5 -8t-2.5 -6q-3 -6 -5 -11t1.5 -11.5t10.5 -12.5t13 -7.5t8 2.5l3 7.5t2 3.5v1q1 3 2.5 6
t3.5 8t-2 11.5t-11 12.5t-12.5 7t-7.5 -3z" />
    <glyph glyph-name="less" unicode="&#x3c;" 
d="M1020 1117l-687 -395l687 -391v-184l-924 530v91l924 532v-183z" />
    <glyph glyph-name="equal" unicode="=" horiz-adv-x="507" 
d="M102 633v0q5 -2 53 -3t109 -1q42 -1 77 -1.5t53 -1.5q4 0 5 3.5t-3 9.5t-9 10t-10 4q-52 3 -115 1.5t-110 -4t-49 -2.5q-4 -1 -4.5 -5t3.5 -10zM73 493v0q4 -2 52.5 -3t109.5 -2q42 0 77 -0.5t53 -1.5q4 0 4.5 3.5t-2.5 9.5q-4 6 -9.5 10t-9.5 4q-52 2 -115.5 0.5
t-110 -3.5t-49.5 -3q-4 0 -4 -4t4 -10z" />
    <glyph glyph-name="greater" unicode="&#x3e;" 
d="M96 1300l924 -532v-91l-924 -530v184l688 391l-688 395v183z" />
    <glyph glyph-name="question" unicode="?" horiz-adv-x="615" 
d="M87 192v0v0v-4.5t1 -5.5q2 -3 2 -8q0 -6 -5.5 -8.5t-11.5 -1.5q-4 1 -9 5q-6 4 -9.5 9.5t-3.5 9.5l1 4v1q1 9 2 17t3 23q1 4 5.5 3.5t9.5 -4.5q7 -5 10 -11q5 -5 6 -14t-1 -15zM39 886v0v0q39 89 98 138q49 41 99 56q62 18 112 -3t63 -89q7 -62 -38 -131.5t-111 -146.5
q-70 -80 -127 -167.5t-66 -181.5q0 -5 4 -10t9 -10q6 -3 10 -3t4 4q9 92 65.5 178t125.5 166q72 82 118 158.5t27 148.5q-22 65 -78.5 86.5t-119.5 2.5q-51 -14 -99 -55q-64 -53 -104 -152q-10 -15 -19 -33t-12 -37q0 -4 3.5 -9.5t9.5 -9.5t10 -4t4 4q3 19 13.5 39t21 33.5
t12.5 15.5v0q2 3 0 8t-7 10t-10 7t-8 0q0 -1 -10 -13z" />
    <glyph glyph-name="at" unicode="@" horiz-adv-x="778" 
d="M637 770v0q-5 147 -144 186q-84 18 -172 -33q-89 -51 -158 -144q-70 -93 -97 -202q-16 -72 -1.5 -151t63.5 -134t136 -52q73 6 151 51t147 107v0q2 2 5 3t5 3t4 3q1 1 4 3q2 1 2 3.5v3.5v1.5t-1 0.5q0 1 -0.5 1.5t-1.5 -0.5q-76 -73 -167 -126q-76 -44 -148 -49
q-83 -2 -125.5 48.5t-52 123.5t6.5 139q27 108 95 200q69 92 156 141q84 49 163 33q65 -18 96 -64t31 -94q-2 -60 -24 -111q-4 -11 -10 -21q-29 -53 -77 -57q-53 -4 -87 57q-2 5 -5.5 5t-7.5 -2q-1 -1 -1.5 -2t-1.5 -2t-1 -2q-43 -62 -78 -94q-19 -17 -33 -23q-5 -2 -8 -2
t-4 6q-2 18 10.5 47.5t34.5 58.5q16 22 35 38q20 15 41 20q12 3 25 0q2 -1 5.5 -2t5.5 -3q1 0 1 -0.5t1 -0.5v-1q1 -1 1 -2t1 -2v-2q1 -2 3 -3t3 -2q6 -3 9 -1.5t4 6.5q3 6 -1.5 12t-9.5 9q-36 26 -69 19q-23 -6 -44 -22q-20 -17 -37 -39q-24 -33 -36.5 -66t-8.5 -53
q2 -10 10 -15t18 -5q18 0 46 25q35 32 78 94q12 -28 38 -42q34 -19 63 -16q53 7 81 63q5 9 10 20q21 50 23 111z" />
    <glyph glyph-name="A" unicode="A" horiz-adv-x="784" 
d="M80 493v0v0q5 0 9 1q28 5 56 7q40 2 76 -3q-84 -206 -115 -288l0.5 -1l0.5 -1l1 -1v0h1v0v0q1 0 2.5 0.5t1.5 1.5t1 3v2q1 0 1.5 1.5t0.5 2.5v2v1.5v0.5v2t1 2v0v0q34 89 108 271q132 -26 209 -128q57 -75 86 -169q17 -61 17 -117q0 -19 2 -41q0 -4 4 -9.5t10 -9.5
q6 -3 9.5 -2.5t3.5 4.5q-15 253 6 523q112 8 212 9h1h1v0v0h2t2 2q0 1 -1 1h-1q-102 0 -216 -9q26 326 62 558.5t40 244.5q1 4 -2.5 9.5t-9.5 9.5q-4 4 -7 5q-5 1 -8 -3q-109 -169 -196 -351q-120 -255 -222 -508q-76 -9 -151 -20v-0.5v-1.5q1 -1 1.5 -1h0.5zM233 517v0v0
q104 249 225 501q102 206 172 304q4 5 5.5 5t1.5 -3t-0.5 -7t-0.5 -7q-19 -95 -46.5 -299t-45.5 -462q-176 -14 -311 -32zM222 500v0v0q-27 5 -56 5q27 3 61 8zM232 513v0q134 18 311 33q-13 -194 -10 -383q-28 115 -97 207q-78 103 -210 130z" />
    <glyph glyph-name="B" unicode="B" horiz-adv-x="1166" 
d="M472 1265v0v0l-8 -26q-33 -115 -69 -255q-56 -27 -123 -54q-3 -1 -2 -5.5t5 -10.5q5 -5 10.5 -8t8.5 -2q43 17 82 34q3 1 7 2h1q-66 -253 -108 -580q-12 -6 -24 -11q-173 -72 -194 -122q-4 -26 17.5 -39t44.5 -17q53 -9 139 1q-3 -35 -5 -70q0 -4 4 -9.5t10 -9.5
q5 -4 9 -4t5 4q2 47 5 93q32 4 66 11q149 30 309 101q106 48 195.5 113.5t145.5 147.5q95 11 168 8q1 0 1 0.5v0.5q0 2 -1 2h-2q-71 3 -163 -7q54 81 59 178q2 48 -15 90q-41 89 -135.5 124t-187.5 37q-126 6 -308 -31l2 9q163 82 230 157q37 41 50 77q12 37 0 67
q-14 32 -44.5 46.5t-63.5 17.5q-82 12 -213.5 -31.5t-298.5 -159.5q-1 -1 -0.5 -1.5t0.5 -1.5h1v0q2 -2 6 -1q1 0 1.5 0.5l1.5 1.5q0 1 0.5 1h0.5q1 0 2 1l1.5 1.5l1.5 1.5q0 2 2 4q1 0 1 1q1 0 1 1q161 109 288 150t205 29q46 -6 70.5 -32.5t9.5 -73.5q-12 -34 -48 -74
q-59 -67 -194 -139q22 83 43 158v0q2 6 7 15q6 12 8 21q1 5 2.5 7t2.5 3q2 2 5 6q2 4 1.5 13t-2.5 16v3t-1 3q-2 7 -11 15q-5 4 -9.5 4.5t-5.5 -2.5zM418 947v0v0q184 38 312 32q44 -1 103.5 -14t112.5 -44.5t79 -90.5q15 -37 13 -80q-6 -112 -79 -203q-135 -20 -284 -58
q-202 -53 -368 -117q44 325 111 575zM306 367v0v0q167 65 372 118q145 38 278 58q-120 -142 -316 -228q-159 -71 -308 -101l-42 -8q7 83 16 161zM261 202v0q-98 -14 -156 -4q-14 3 -22 5q-9 4 -15.5 14t-0.5 20q37 46 187 109q11 5 22 9q-9 -75 -15 -153z" />
    <glyph glyph-name="C" unicode="C" horiz-adv-x="881" 
d="M728 1066v0q1 2 3.5 33.5t-0.5 76.5t-20.5 85t-57.5 57q-5 2 -11 4q-34 7 -89.5 -13t-122.5 -73q-66 -53 -131.5 -143.5t-120.5 -224.5q-41 -101 -70 -228q-28 -129 -13 -215q24 -128 114.5 -169t212.5 -11q113 28 234.5 108.5t228.5 205.5q0 1 -0.5 2.5t-2.5 0.5
q-107 -125 -228 -205.5t-234 -108.5t-195 8.5t-103 153.5q-14 83 13 209q29 127 69 226q55 134 120 224t130 142t118 71.5t83 12.5q4 -1 7 -2q37 -18 41 -62.5t-6 -79.5q-5 -11 -6 -23t0 -21q3 -15 10 -26q1 0 1 -1q3 -7 11 -13q6 -4 10 -4.5t5 3.5z" />
    <glyph glyph-name="D" unicode="D" horiz-adv-x="978" 
d="M411 1210v0v0l-7 -26q-49 -164 -98 -371t-81 -468h-2q-173 -76 -212 -130q-8 -13 -5.5 -27t14.5 -23q24 -16 65 -19q49 -3 122 12q-2 -39 -5 -79q0 -5 4 -10t9 -10q6 -3 10 -3t5 4q2 54 6 105q36 10 75 24q151 54 258.5 138t174.5 185q126 32 234 44v0q2 1 2.5 1.5t0 1.5
t-1.5 1h-1q-107 -13 -231 -43l8 12q85 138 104 281t-23 262q-95 250 -358 231q-90 -7 -216 -60q-107 -45 -234 -133l0.5 -1l0.5 -1q1 -1 1.5 -1h0.5q3 -1 6.5 -1t6.5 3q1 2 2 3t1.5 2t1.5 1t2 1.5t2 3.5t3 4q112 75 209 116q126 53 215 60q118 10 204 -48.5t126 -169.5
q41 -113 22 -253q-18 -140 -103 -276q-15 -25 -33 -48q-4 -1 -7 -2t-7 -2q-233 -61 -426 -142q28 218 69 398t83 328q3 6 8 12q3 4 5.5 7t2.5 6q0 6 2.5 12t11.5 17q9 12 6.5 29t-7.5 26q-3 7 -11 14q-5 4 -9.5 4.5t-5.5 -2.5zM255 354v0v0q194 82 430 144l8 2
q-67 -89 -167.5 -162.5t-236.5 -122.5q-26 -9 -50 -16q7 80 16 155zM210 191v0v0q-87 -22 -142 -18q-11 1 -27.5 5t-25.5 14t3 26q45 52 206 123q-8 -73 -14 -150z" />
    <glyph glyph-name="E" unicode="E" horiz-adv-x="869" 
d="M717 1199v0q-6 38 -24 70q-18 33 -53 48q-41 15 -86 1q-61 -19 -114 -69t-75 -104q-14 -35 -7 -64q16 -53 103 -48q-132 -60 -241.5 -180t-145.5 -264.5t53 -276.5q41 -54 105 -70t130 -7q147 23 282 116.5t228 205.5q1 2 0 3.5t-3 -0.5q-90 -108 -227.5 -204.5
t-280.5 -116.5q-54 -7 -114.5 8t-101.5 67q-72 105 -56.5 216t89 213t176.5 179t205 115q3 1 2.5 5.5t-5.5 10.5t-10 8.5t-9 1.5q-33 -12 -66 -26q-58 -5 -81 13q-31 27 0 79.5t87 100.5t98 62q41 12 74 0q8 -4 18.5 -11.5t15.5 -14.5q7 -14 6 -30q-1 -10 1 -22q1 -5 5 -10
t10 -9q6 -3 9 -2t3 6z" />
    <glyph glyph-name="F" unicode="F" horiz-adv-x="561" 
d="M3 1226v0v0v0v0q92 -26 136.5 -107t55.5 -199q-17 -2 -33 -5q-1 0 0 -2q1 0 1.5 -0.5l0.5 -0.5q15 2 32 4q13 -161 -5 -351q-33 -186 -50 -398q0 -5 3.5 -10t9.5 -10q5 -3 9 -3t5 4q17 224 53.5 419.5t80.5 360.5q30 3 63 6q97 7 204 11v0v0h2t2.5 -0.5t3.5 0.5
q3 0 4.5 -0.5t3.5 -1.5h1q6 -2 10 0q2 1 3 0.5t2 -0.5h4q1 0 1.5 1l1 2t-0.5 1v0q1 1 0 1q0 1 -1 1.5l-1 0.5q-126 -4 -242 -13q-31 -2 -60 -5q35 135 70 249q5 13 13 28q9 16 10 25q1 7 3 13t9 15q3 4 5 11q193 19 402 30t374 1v0q1 0 1.5 -0.5t1.5 -0.5v-1h2h3v0h1.5
t1.5 -1q1 0 1.5 -0.5t1.5 -0.5t1.5 1t1 1.5l0.5 0.5v0v0v0v2q-1 0 -1.5 0.5l-0.5 0.5q-165 12 -378.5 1t-411.5 -31q2 12 1 23t-4 16q-3 6 -10 12q-5 4 -9.5 5t-5.5 -3l-8 -25l-10 -32q-160 -17 -261.5 -29.5t-105.5 -13.5v0v0v0v0v0v0v0v0v0h-1v0v0v0v-0.5v-0.5v0v0v0v0v0
v0v0v0v0v0v0v0v0v0v0h1v0v0v0v0v0v0v0v0v0v0v0v0v0v0v0v0v0v0v0v0v0v0v0v0v-1v0v0v0v0v0v0v0v0v0v0v0v0v0v0v0v0v0v0v0v0v0v0v0v0v0v0v0v0v0v0v0v0v0v0v0v0v0v0v0v0v0v0v0v0h1v0v0v0v0v0v0v0v0v0v0v-1v0v0v0v0v0v0v0v0v0v0v0v0v0v0v0v0v0v0v0v0v0v0v0v0v0v0v0v0v0v0v0v0v0h1
v0v0v0v0v0v0v0v0v0v0zM411 1315v0v0v0zM367 1268v0v0q-47 -150 -97 -339q-39 -4 -72 -9q-11 116 -55 197t-134 110q26 3 122 15t236 26zM269 925v0q-39 -151 -72 -327q15 172 2 319q32 4 70 8z" />
    <glyph glyph-name="G" unicode="G" horiz-adv-x="1187" 
d="M910 643v0v0q0 -1 -6 -30q-247 -277 -478 -357q-59 -20 -119 -13t-102.5 50t-47.5 132q-5 80 21 197q29 124 69 225q64 155 144 260.5t161 167.5t146.5 85.5t100.5 15.5q29 -8 45 -37t19.5 -61t-6.5 -48q-4 -8 -3 -27q1 -5 0 -8.5t-2 -6.5q-2 -5 -4 -13q-3 -12 0.5 -25.5
t8.5 -18.5l6 -6q6 -4 10 -4t5 3q1 2 4 37t-0.5 83.5t-22.5 92t-62 62.5q-5 3 -11 4q-38 9 -106.5 -15.5t-151.5 -86.5q-82 -63 -162.5 -169.5t-144.5 -261.5q-41 -103 -70 -228q-26 -118 -22 -200q9 -140 91.5 -185.5t207.5 -3.5q229 79 475 352q-20 -105 -77 -318
q-50 -42 -118 -108.5t-124 -141.5t-69 -142q-5 -26 -1 -48.5t27 -36.5q25 -15 57 -8q29 6 59 30q32 24 58 67q45 79 83.5 191t67.5 225q132 110 329 243v1.5t-1 1.5l-1 0.5l-1 0.5q-194 -132 -324 -240q31 120 49 204.5t20 95.5v0q0 4 -3 9.5t-9 9.5q-6 5 -10 5t-5 -3z
M577 -171v0q-35 -7 -50 11.5t-9 53.5q14 66 69 139.5t121.5 139t115.5 106.5q-57 -210 -135 -357q-25 -41 -56 -65q-29 -22 -56 -28z" />
    <glyph glyph-name="H" unicode="H" horiz-adv-x="873" 
d="M3 449v0v0q54 9 102 14q-12 -68 -23.5 -152.5t-18.5 -152.5q0 -5 3 -10.5t9 -9.5q2 -1 3 -2q4 -2 7.5 -2t5.5 2q1 2 1.5 8.5t-0.5 12.5v5q0 5 1 10.5t2 7.5v6q-1 4 -1 9v0q7 60 18 136t22 134q250 17 349 -67q48 -41 66.5 -103t19.5 -123.5t-2 -101.5v-10t3 -10.5t9 -8.5
q5 -4 8.5 -3.5t4.5 5.5q6 114 22 251t37 256q78 5 223 7l0.5 0.5t0.5 1.5t-1 1h-1q-145 -2 -221 -7q34 183 78.5 345t81.5 280q14 49 25 86q2 6 7 13q6 10 10 22q5 20 17 34q5 8 4 23.5t-5 25.5q-2 7 -9 12q-5 5 -9 5t-6 -3v-2q-12 -28 -86 -270.5t-137 -571.5
q-118 -9 -228 -24q-149 -20 -256 -42q48 227 106.5 410t95.5 278v0v0l1 1v0v0v0q1 3 2 5t4 5.5t8 9.5q8 9 11 24.5t3 26.5q0 4 -2.5 8.5t-6.5 8.5q-6 5 -10 5.5t-6 -2.5v0q-2 -3 -20 -50q-24 -47 -70 -114t-106 -121v-0.5t1 -1.5q0 -1 0.5 -1h1.5q52 47 94 105.5t69 106.5
q-39 -100 -98.5 -289t-107.5 -421q-78 -17 -108 -28v0v0v0v0v0v0v0v0v0v0v0v0v0v0v0v0v0v0v0v0v0v0v0h-1v0v0v0v0v0v0v0v0v0v0v0v0v0v0v0v0v0v0v0v0v0v0v0v0v0v0v0v0v0v0v-1v0v0v0v0v0v0v0v0v0v0v0v0v0v0v0v0v0v0v0v0v0v0v0v0v0v0v0v0v0v0v0v0v0v0v0v0v0v0v0v0v0v0v0h1v0v0
v0v0v0v0v0v-1v0v0v0v0v0v0v0v0v0v0v0v0v0v0v0v0v0v0v0v0v0v0v0v0v0v0v0v0v0v0v0v0v0v0v0v0v0v0v0v0v0v0v0v0v0v0v0v0v0v-1v0v0v0v0v0v0v0v0h1v0v0v0v0v0v0v0v0v0v0v0v0v0v0v0v0v0v0v0v0v0v0v0v0v0v0v0v0v0v0v0v0v0v0v0v0v0v0v0v0v0v0v0v0v0v0v0v0v0v0v0v0v0v0v0v0v0h1v0v0v0
v0v0v0v0v0v0v0v0v0v0v0v0v0v0v0v0v0zM623 548v0v0q-29 -161 -45 -319q-16 105 -95 171q-99 84 -348 69q1 3 1 6q1 3 2 7q108 23 259 43q109 15 226 23zM108 476v0l-2 -10q-38 -4 -80 -10q31 9 82 20z" />
    <glyph glyph-name="I" unicode="I" horiz-adv-x="551" 
d="M248 344v0q5 26 11 54q49 235 139 597q40 177 1 259q-41 82 -137 79.5t-170 -96.5q-34 -54 -37 -118q-4 -64 21 -123q29 -69 92 -111h0.5h0.5v3.5t-1 3.5q-1 0 -1.5 0.5t-1.5 0.5h-1.5t-0.5 1q-1 0 -1 1l-1.5 1.5t-1.5 0.5h-2h-4q-49 40 -74 98q-24 58 -21 122
q3 63 37 118q33 49 89 75.5t110 17.5t81 -66q35 -74 -4 -246q-89 -360 -139 -598q-50 -237 -52 -373q0 -5 4 -10t10 -9q5 -4 9 -3.5t4 4.5q-2 123 24 239.5t117 203.5q82 81 209 86q2 1 1 3q-1 1 -2 1q-128 -6 -211 -87q-63 -60 -97 -129z" />
    <glyph glyph-name="J" unicode="J" horiz-adv-x="661" 
d="M462 1474v0v0q41 -13 65.5 -55t30.5 -83q13 -82 -20 -219q-18 -71 -37 -157q-24 -106 -57 -240q-4 -18 -9 -36q-29 -113 -62 -211q-130 -66 -211.5 -149t-119.5 -161q-33 -67 -36 -115q-4 -55 22 -74q16 -10 36 -7q16 2 36 14q111 70 187 205.5t126 299.5q109 48 249 70
q1 0 0.5 2t-2.5 2q-138 -22 -245 -69q32 106 63 228q7 32 15 62q20 85 36 157q19 86 37 157q33 140 20 225q-16 104 -82.5 143t-161.5 1q-119 -53 -191 -166q-72 -115 -92 -242q-21 -127 15 -219q21 -50 61 -77q1 -1 2 0v0v0q0 1 0.5 2t0.5 3q-1 1 -2 1h-2q-1 1 -2 1t-2 1
q-3 3 -6 4v0h-1.5t-1.5 1v0v0v0q-28 24 -44 63q-35 91 -15 217q20 127 92 242q72 113 190 166q62 26 118 13zM41 -7v0q-24 -2 -30 13.5t-3 36.5q3 48 35 115q38 78 118.5 160t207.5 147q-49 -150 -121 -272t-175 -187q-18 -11 -32 -13z" />
    <glyph glyph-name="K" unicode="K" horiz-adv-x="971" 
d="M208 594v0v0q14 54 29 111q247 311 762 587q1 1 3 1q3 0 6 0.5t5 2.5t5.5 3t10.5 2q4 1 6.5 3.5t4 5t1.5 3.5t-1 2t-2.5 1.5t-2.5 0.5q-537 -283 -795 -602q79 293 215 632l3.5 3.5t3.5 2.5q1 1 4 2q7 7 12 32q2 7 6 11t8 7q7 4 12 12q4 7 4 18t-1.5 20t-3.5 12
q-3 6 -9 12q-6 5 -10.5 6t-6.5 -2q-25 -57 -54.5 -93.5t-77.5 -78.5q-69 -61 -144 -105v-0.5v-1.5q1 0 1.5 -0.5t1.5 -0.5q75 44 144 105q49 43 99 104q-150 -363 -234 -676q-13 -47 -24 -92q-113 -167 -137 -350q-10 -91 -4 -163.5t19 -136.5q0 -4 3.5 -9.5t9.5 -9.5
q5 -4 9 -4t5 4q11 171 103 574q15 -47 37 -84q56 -90 148 -115.5t206 -0.5q214 50 390 208q1 0 0.5 0.5t-0.5 1.5q-1 1 -1.5 1h-0.5q-177 -158 -391 -208q-92 -20 -172 -3q-46 11 -89 42t-68 72q-31 51 -47 128q0 1 -1 3zM71 31v0q-71 323 115 601q-98 -405 -115 -601z" />
    <glyph glyph-name="L" unicode="L" horiz-adv-x="850" 
d="M363 1290v0q-10 -27 -24 -65q-55 -146 -136 -376t-142 -446t-56 -320q8 -63 55.5 -60.5t112.5 42.5t127.5 90.5t99.5 84.5q18 16 27 23q110 90 220 172t203 122q3 2 2 3t-3 1q-95 -40 -206.5 -119.5t-221.5 -170.5l-12 -9q-30 -26 -91.5 -74t-128 -90t-112.5 -51t-45 44
q10 151 75 374t150.5 456t155.5 414q22 57 40 103q1 4 -2 9t-8 10q-6 5 -10.5 5.5t-6.5 -2.5q-73 -198 -187 -369q-56 -85 -129 -162v-0.5t1 -1.5q1 0 1.5 -0.5l0.5 -0.5q76 82 140.5 180t109.5 184z" />
    <glyph glyph-name="M" unicode="M" horiz-adv-x="1540" 
d="M102 1175v0l125 217l-227 -1144q0 -3 3 -8.5t9 -10.5q6 -4 10 -4.5t5 3.5l73 367q34 138 68 264q70 255 165 538q10 -68 31.5 -194.5t47 -246t46.5 -165.5q15 -28 40 -9q55 45 196 201t285 322.5t209 242.5q-6 -23 -19 -75q-29 -108 -75.5 -294.5t-92.5 -400t-72 -403
t-13.5 -304t81.5 -102.5q76 21 168 111t177 200t141.5 191.5t58.5 85.5q1 3 0 4t-2 1t-2 -1q-2 -2 -57.5 -84.5t-140 -192.5t-176 -200t-167.5 -111q-62 -12 -69 104t23 307.5t78.5 406.5t97 402.5t77.5 296.5q16 56 21 78q1 4 -2 9.5t-9 10.5q-6 4 -10 4.5t-5 -3.5
q-1 -1 -9 -32q-58 -69 -198 -231t-282 -320t-206 -214q-2 -1 -3 -3q-9 -9 -13.5 -8t-10.5 17q-18 47 -39 146t-40 207.5t-31.5 185.5t-12.5 81q-1 5 -5.5 10t-9.5 9q-6 3 -9.5 2t-2.5 -6q3 -22 1.5 -33t-6.5 -25q-3 -7 -6 -16q-86 -259 -151 -497q-25 -94 -50 -193l150 760
q1 4 -2.5 9.5t-8.5 9.5q-6 4 -10.5 4.5t-5.5 -2.5l-100 -205l-39 -67v-1.5t1 -1.5h1.5h0.5z" />
    <glyph glyph-name="N" unicode="N" horiz-adv-x="1543" 
d="M1010 1421v0q108 59 113 -69q3 -71 -23 -193v0q-48 -208 -95 -438t-75 -419q-25 -174 -14 -269q8 -55 35.5 -65t75.5 10q76 34 164.5 125t169 195.5t131.5 181l53 79.5q1 2 0 3t-2 0q-2 -4 -53.5 -80t-131 -180.5t-168 -195.5t-164.5 -125q-93 -39 -93 57q0 78 24 244
q28 189 75 419t95 437v0v0q26 124 23 196q-8 107 -62.5 110t-120.5 -43.5t-110 -87.5q-115 -106 -277.5 -311t-310 -408t-217.5 -304l340 1145q2 8 -1.5 14t-10.5 8t-13 -1.5t-9 -10.5q-10 -35 -21 -55.5t-29 -45.5q-6 -8 -13 -18q-19 -30 -39 -60l-60 -88v-1t1 -1
q0 -1 1 -0.5l1 0.5l142 211q-61 -205 -121 -409l-218 -734q-2 -7 1.5 -13t10.5 -9q7 -2 13 1.5t9 10.5v3q6 19 9.5 29.5t9.5 20.5t18 27q79 114 223.5 311.5t299 391t263.5 293.5q91 80 151 111z" />
    <glyph glyph-name="O" unicode="O" horiz-adv-x="1369" 
d="M1368 554q-223 -275 -411 -307q-109 -196 -249 -317q-181 -155 -355 -150q-51 3 -97 23q-138 63 -195.5 168.5t-55 238.5t45.5 278q38 132 97 256q-5 29 -6 57q-9 147 37 287q46 139 144 245q95 99 221 141.5t249.5 12.5t211.5 -150q99 -142 116 -373q4 -70 0 -146
q-18 -255 -113 -467q-23 -54 -49 -100q181 30 409 308q1 2 2 2t1 -1q1 -2 -3 -6zM702 -64v0q139 119 246 310q-186 -26 -349.5 9.5t-280.5 142t-163 293.5q-48 -108 -81 -221q-34 -120 -38 -251.5t44.5 -241.5t171.5 -168q46 -20 96 -22q173 -6 354 149zM950 250v0
q28 51 52 106q95 212 113 467q4 76 0 146q-17 230 -115 371q-87 118 -205 141q-119 23 -239 -25v0q-120 -48 -212 -145q-96 -104 -142 -242q-45 -136 -37 -279q96 189 199 311q11 12 21 24q3 3 8 1t10 -7q4 -4 6 -8q4 -5 7 -15.5t-0.5 -24t-19.5 -27.5q-19 -17 -28 -23
q-6 -4 -10.5 -8t-8.5 -11q-5 -7 -9 -14q-5 -9 -10 -16t-10 -9q-7 -2 -15 -8.5t-14 -12.5q-2 -2 -3 -4l-2 -4t-1 -1q-60 -94 -113 -205q33 -201 144 -315.5t275.5 -152.5t358.5 -10z" />
    <glyph glyph-name="P" unicode="P" horiz-adv-x="625" 
d="M474 1499v0v0q-37 -45 -58.5 -64.5t-33.5 -28.5l-145 -115l0.5 -1l0.5 -1q1 -1 1.5 -1h0.5l219 174q-26 -59 -73 -184t-97 -287q-19 -40 -36 -82q-73 -179 -108 -364q-68 -20 -141 -32q-4 -1 -4 -5t5 -10q5 -7 12 -10v0q3 -2 11.5 -4t17.5 -2t15 1q8 3 12 6q4 2 7 3
q2 0 6.5 1.5t9.5 3.5q9 5 14 6v0q15 4 29 7q-37 -212 -34 -380v-13q1 -27 0.5 -50.5t-4.5 -53.5q-1 -4 2.5 -9.5t9.5 -9.5q6 -5 10 -5t5 4q-4 5 87 540q157 54 283.5 140t219.5 188q123 135 181 264q59 130 46 218q-19 92 -94 100t-152 -26q-206 -91 -332 -290
q52 151 91 246t43 103v0q1 4 -2 9t-8 10q-6 5 -10.5 6t-6.5 -2zM361 1111v0v0q65 102 149.5 180.5t190.5 122.5q68 31 134 28.5t83 -84.5q13 -84 -45 -211q-58 -128 -180 -262q-88 -96 -206.5 -178.5t-265.5 -137.5l10 56q52 261 130 486zM110 77v0v0q-10 184 33 434
q20 6 39 12q-56 -327 -72 -446zM149 546v0q35 183 107 361l26 60q-47 -157 -78 -321q-7 -40 -13 -77q-1 -5 -2 -11z" />
    <glyph glyph-name="Q" unicode="Q" horiz-adv-x="1167" 
d="M444 54v0v0q-138 12 -198.5 113.5t-65 236t26.5 245.5q25 88 62 174q10 -37 24 -73q2 -5 7 -10t10 -7q11 -3 8 8q-23 57 -32 118q92 196 196 319q9 11 18 21q2 3 0 8t-7 10t-10 7t-8 0q-9 -11 -19 -22q-91 -109 -177 -279q-7 181 77 340q87 164 258 237q116 42 229 14
t170 -104q86 -124 100 -324q4 -61 1 -128q-16 -222 -99 -407q-96 -215 -240 -348q-33 124 -36 237t6 187t11 80v1q1 4 -2.5 9t-9.5 10q-5 4 -9.5 4.5t-5.5 -3.5v0q-2 -7 -11.5 -86.5t-4.5 -200.5t45 -253q-2 -2 -5 -4q-157 -135 -309 -130zM776 199v0q145 133 242 349
q83 186 99 408q4 66 0 128q-15 201 -102 326q-76 104 -192.5 132t-231.5 -16q-173 -74 -261 -240t-77 -356q2 -25 5 -51q-47 -102 -78 -209q-35 -127 -28 -265.5t76 -240t218 -114.5q152 -5 310 131l2 2q1 0 2 1q45 -150 164 -271q5 -5 10 -6.5t8 0.5q2 3 0 8t-8 10
q-117 120 -158 274z" />
    <glyph glyph-name="R" unicode="R" horiz-adv-x="935" 
d="M513 1450v0v0l-1 -1q-8 -13 -71 -150t-138 -340q-19 -35 -36 -71q-80 -170 -125 -346q-67 -19 -138 -30q-4 -1 -3.5 -5t4.5 -10t10 -9q51 -35 100 -64q-38 -194 -39 -337q-9 -43 -10 -50v-2q-1 -3 2.5 -8.5t8.5 -10.5q6 -4 10 -4.5t5 3.5q-2 3 83 376l6 -3
q159 -89 338 -88q223 3 418 258q1 2 0 3t-2 1q-196 -255 -418 -256q-87 -1 -173.5 30t-163.5 73q13 56 28 120q155 52 281.5 135t221.5 180q127 132 190 257q63 126 52 209q-11 57 -49.5 75.5t-88 11.5t-93.5 -25q-198 -85 -330 -271q59 142 101 230.5t46 95.5v0
q1 3 -1.5 8.5t-8.5 10.5q-5 5 -10 6t-6 -2zM119 443v0v0q-37 21 -74 45q45 8 88 19q-8 -32 -14 -64zM122 441v0v0q7 33 15 67q19 5 37 11q-12 -50 -23 -95q-14 8 -29 17zM147 406v0v0q-49 -210 -67 -302q2 138 38 319q15 -9 29 -17zM386 1085v0v0q134 195 339 284
q26 11 70 20t82.5 -2.5t48.5 -61.5q11 -78 -51 -201q-63 -125 -189 -255q-90 -92 -208 -171t-260 -132q3 13 6 25l6 26q66 251 156 468zM146 543v0q45 175 124 343q11 24 23 47q-52 -144 -90 -295q-1 -3 -1 -6q-10 -40 -19 -77q-18 -6 -37 -12z" />
    <glyph glyph-name="S" unicode="S" horiz-adv-x="751" 
d="M764 1202v0v0v0q-2 1 -29.5 -15t-77.5 -64q33 55 48 93q28 58 14 119q-14 45 -50.5 70t-83.5 25q-45 1 -114 -28q-184 -84 -298 -264q-58 -94 -75 -195q-17 -103 23 -201q46 -109 179 -194q103 -62 143 -132q7 -12 12 -25q-8 -6 -15 -12q-134 -104 -249 -281
q-32 -50 -37 -76q-8 -43 18.5 -46t62 12.5t53.5 27.5q75 47 138 121q37 45 54 91q32 93 -8 172q123 88 284 158q2 1 1 2.5t-3 0.5q-161 -70 -283 -158q-3 4 -5 9q-50 86 -168 158q-114 72 -152 164q-38 91 -21 189q16 99 73 191q114 179 295 262q67 28 111 27
q79 -2 102.5 -58t-4.5 -127q-16 -42 -56 -106q-76 -75 -195 -263q-1 -3 1.5 -8t7.5 -10q6 -5 10.5 -6.5t6.5 1.5q73 117 130 187.5t96.5 105.5t60.5 46.5t21 10.5q4 1 3 5.5t-5 10.5q-5 5 -10.5 8t-8.5 2zM456 390v0q23 -62 -2 -138q-17 -45 -53 -89q-63 -73 -137 -120
q-11 -7 -31.5 -18.5t-41 -19t-30.5 -1t1 36.5q9 23 31 57q115 177 249 281q7 5 14 11z" />
    <glyph glyph-name="T" unicode="T" horiz-adv-x="632" 
d="M62 1134v0v0q176 89 511 156q-57 -195 -129 -479q-3 152 -73 222.5t-159 88t-150 12.5zM1258 1336v0v0q3 4 -2 12q-4 6 -9.5 10t-9.5 4q-326 17 -620 -34q6 21 12 40q1 4 -2 9t-9 10q-5 4 -9.5 5t-6.5 -3q-9 -30 -20 -67l-7 -1q-395 -77 -572 -180q-3 -2 -2 -7t6 -10
q5 -6 10.5 -8.5t8.5 -0.5q16 8 57 9.5t87.5 -3t78.5 -15.5q114 -43 160.5 -142t18.5 -216q-13 -57 -27 -115q-73 -309 -104 -571q-1 -4 2.5 -9.5t9.5 -9.5t10 -4t4 4q32 260 105 570q100 417 180 683q230 42 488 44q13 -1 23 -5q3 -1 5 -1q9 -3 22 -4t22 2q5 1 12.5 -1
t16.5 -6q7 -3 14.5 -5t12.5 -2q7 1 14.5 5.5t12.5 8.5q3 2 5 3l1 1h1z" />
    <glyph glyph-name="U" unicode="U" horiz-adv-x="946" 
d="M319 1191v0q-21 -44 -39.5 -74.5t-48.5 -70.5l-107 -145v-0.5t1 -1.5q0 -1 1 -1h1l147 199q-142 -302 -186 -473q-18 -65 -24.5 -140t22 -126t114.5 -42q53 5 150 78.5t223 240.5q125 165 264 445q-5 -15 -38.5 -116.5t-73.5 -241.5t-66 -271t-18.5 -205t70.5 -44
q24 13 56 48q81 91 131.5 199t50.5 110.5t-2 2.5t-3 -2q-99 -216 -180 -307q-31 -35 -56 -48q-58 -27 -53 68.5t48 257.5t99.5 334t101.5 297t53 148l2 5q2 3 -1 8.5t-9 10.5q-5 5 -10 5.5t-6 -2.5l-2 -5q-29 -73 -81 -217q-148 -303 -280 -477q-126 -167 -223 -240.5
t-149 -78.5q-78 -8 -98.5 42.5t-10 120.5t25.5 121q49 194 230 565q2 3 -1 8.5t-8 10.5q-6 5 -10.5 6t-6.5 -2z" />
    <glyph glyph-name="V" unicode="V" horiz-adv-x="710" 
d="M149 1242v0q-1 -25 -5.5 -35.5t-12.5 -24.5t-14 -24l-117 -202l0.5 -0.5l0.5 -0.5q1 -1 1.5 -1h0.5l144 248q-4 -96 -9 -309.5t2 -426.5t39 -307q15 -41 51 -12q42 40 115 157t164 275q98 167 203 338t203.5 300.5t175.5 173.5v0.5v1.5q-1 0 -1.5 0.5l-0.5 0.5
q-78 -45 -176.5 -174.5t-203.5 -300t-202 -338.5q-90 -155 -162 -271t-115 -158q-27 -25 -44 8q-19 51 -24 211.5t-1.5 352t9 335.5t6.5 163v1q0 4 -3.5 9.5t-9.5 9.5t-10 4t-4 -4z" />
    <glyph glyph-name="W" unicode="W" horiz-adv-x="1176" 
d="M576 957v0q-1 -4 -2 -7q-4 -15 -8 -29q0 -2 -1 -4q-25 -83 -52 -198q-107 -239 -221 -329q-61 -48 -103 -38q-34 13 -34 76t14.5 130t21.5 91q54 188 216 510q1 3 -1.5 8.5t-8.5 10.5q-5 5 -10 6t-6 -2q-23 -46 -42 -74t-56 -66q-26 -26 -55.5 -56t-51.5 -52.5t-28 -28.5
l-1 -1q-1 -1 -0.5 -1.5l0.5 -0.5l1.5 -1.5t1.5 0.5t23 23.5t53.5 54.5t59.5 60q28 30 54 61q-128 -265 -175 -430q-1 -1 -1 -2q-13 -39 -28 -108.5t-7.5 -132t60.5 -80.5q43 -9 106 41q109 85 213 311q-23 -100 -32.5 -224t34.5 -216t178 -97q104 4 183.5 85.5t135.5 189
t86 192.5q70 192 107 382.5t37 317.5v21l-0.5 1t-1.5 1q-1 1 -1 0q-1 1 -2.5 1t-2.5 -1t-1 -3q1 -4 2 -6l1.5 -3t-0.5 -3v-4.5t1 -3.5q2 -3 2 -5v0v0v0q-2 -128 -38.5 -316t-105.5 -377q-30 -84 -85.5 -191t-135.5 -187.5t-182 -84.5q-113 3 -152.5 84.5t-32.5 201t34.5 236
t50.5 189.5q3 12 6 21q6 22 10 35q1 4 -2 9.5t-9 9.5q-6 5 -10.5 5.5t-5.5 -2.5z" />
    <glyph glyph-name="X" unicode="X" horiz-adv-x="596" 
d="M288 624v0v0l-1 -3q-80 179 -117 337t-47 258t-9 104q0 3 -4 8t-9 8t-8.5 2.5t-3.5 -3.5q-1 -30 -28 -76l-68 -118v-0.5t1 -1.5l0.5 -0.5t1.5 0.5l95 166q2 -78 40.5 -273t145.5 -429q-105 -198 -172 -356t-70 -171q0 -3 2 -4.5t5.5 -0.5t5.5 7v0q116 268 245 492
q86 -175 231 -330q4 -4 9 -6.5t8 -0.5q3 1 1.5 5t-5.5 9q-89 94 -154 198q-13 44 -11.5 114t32.5 164q13 39 32 82q24 37 48 72q235 338 415 536q2 3 0 7.5t-7 8.5t-9.5 5.5t-6.5 -0.5q-181 -199 -416 -537q-18 -27 -36 -55q-9 -14 -20 -29q-58 -90 -116 -189zM424 786v0
q-13 -32 -23 -61q-30 -91 -32.5 -160t9.5 -113q-41 67 -75 136q60 104 121 198z" />
    <glyph glyph-name="Y" unicode="Y" horiz-adv-x="955" 
d="M342 1189v0v0q-22 -44 -40.5 -74.5t-47.5 -69.5l-108 -145q0 -1 0.5 -1.5t0.5 -1.5q1 0 1.5 -0.5t0.5 0.5l147 199q-141 -303 -186 -473q-18 -65 -24.5 -140.5t22.5 -126.5t115 -42q52 5 149 79t224 241q124 165 264 444q-74 -213 -129 -426q-30 -111 -63 -223
q-107 -76 -209 -223q-60 -92 -88 -179.5t-30 -157.5q-1 -50 7 -85q4 -22 16 -45.5t34 -28.5q8 -1 15 1q31 11 72 97.5t88 217.5q71 206 135 426q106 66 177.5 86.5t73 20t1.5 1.5q0 1 -1 1h-1q-4 1 -74 -18q-70 -20 -175 -85q16 52 31 104q103 374 240 746l2 5q1 4 -2 9.5
t-8 9.5q-6 5 -10.5 6t-6.5 -2l-2 -6q-28 -73 -81 -216q-147 -303 -279 -477q-127 -167 -223.5 -240.5t-149.5 -78.5q-77 -8 -97.5 42.5t-10.5 120.5t25 121q50 193 231 565q1 3 -1.5 8t-8.5 10q-5 5 -10 6t-6 -2zM392 -262v0q-20 -4 -29 12.5t-12 33.5q-8 34 -7 82
q3 70 30.5 158t87.5 179q100 144 204 219q-57 -194 -120 -374q-46 -130 -86 -215t-68 -95z" />
    <glyph glyph-name="Z" unicode="Z" horiz-adv-x="584" 
d="M768 1411v0q-16 10 -88 -10t-162 -54.5t-159 -65.5q-191 -86 -358 -220q-1 -1 -1 -2t1 -2t4 -1q2 0 4.5 2t4.5 4t2 3t2 2q1 0 2 1t1 2q1 2 3 4v0q159 124 338 204q198 88 374 120q-221 -283 -387 -575q-171 -300 -336 -701q-2 -4 1 -9t8 -10q6 -3 23 8.5t40 29.5
q42 34 82 56q73 40 170.5 63.5t206.5 -2.5q1 0 1 1q-1 2 -2 2q-110 27 -207.5 6.5t-170.5 -60.5t-111 -70q157 376 320 663q172 300 402 592q2 3 0 8t-8 11z" />
    <glyph glyph-name="bracketleft" unicode="[" horiz-adv-x="423" 
d="M228 1243v0q-9 -122 -37.5 -330.5t-70.5 -431.5q-29 -158 -55 -271t-60 -194q-1 -3 2 -8.5t8 -10.5q2 0 19 0.5t43 1.5q46 2 96 3.5t77 -1.5v0v1t-1 1.5l-1 0.5q-39 4 -104.5 4t-105.5 -1q33 81 57 188t51 254q1 6 2 11q41 219 69.5 424.5t38.5 330.5q1 6 1.5 8.5t2.5 3
t4 -0.5q1 -1 3 -1q83 -15 171 -4q8 0 16 1l9 1v0.5v0.5l-1.5 1.5l-0.5 0.5l-9 -1q-49 -4 -106 -2.5t-100 22.5q-6 4 -11.5 3t-6.5 -5z" />
    <glyph glyph-name="backslash" unicode="\" horiz-adv-x="569" 
 />
    <glyph glyph-name="bracketright" unicode="]" horiz-adv-x="520" 
d="M400 1244v0q-10 -5 -50 -10t-86 -7.5t-75 -0.5q-1 0 0 -1l1.5 -1.5t1.5 -0.5q2 0 5 -1q100 -12 197 4q-77 -239 -161.5 -597.5t-99.5 -597.5q2 -18 -27 -17q-43 1 -99.5 1t-91.5 -5v-0.5v-0.5l1.5 -1.5t1.5 -0.5q24 3 75 3.5t97 -2t58 -6.5q6 -4 9.5 -4t3.5 5
q25 314 106.5 650t159.5 570q1 3 -2 8.5t-9 9.5q-6 5 -10.5 6t-5.5 -3z" />
    <glyph glyph-name="asciicircum" unicode="^" horiz-adv-x="428" 
d="M385 771v0q-2 13 -11.5 54t-23.5 89t-29.5 82t-28.5 32q-46 -13 -92 -48t-85.5 -76t-63.5 -71t-25 -31q-1 -3 1 -8t7 -10q6 -5 11 -7t7 1v0q3 6 38 48.5t87.5 91.5t108.5 74q13 5 18.5 3t7.5 -10q18 -40 38.5 -102t31.5 -110q0 -1 0.5 -1.5t0.5 -1.5q2 0 2 1z" />
    <glyph glyph-name="underscore" unicode="_" horiz-adv-x="1126" 
d="M0 -175h1126v-66h-1126v66z" />
    <glyph glyph-name="grave" unicode="`" horiz-adv-x="1126" 
d="M740 1122h-76l-363 222q-34 22 -51 44t-17 46q0 35 22.5 57t58.5 22q22 0 45 -13.5t61 -51.5z" />
    <glyph glyph-name="a" unicode="a" horiz-adv-x="351" 
d="M148 620v0q-36 26 -69 18q-23 -5 -44 -21q-20 -17 -37 -39q-24 -33 -36.5 -66.5t-8.5 -52.5q2 -10 10 -15t18 -5q18 0 46 25q35 32 78 94q12 -28 38 -42q46 -23 101 -7t96 41q7 3 8 3q12 4 11 7t-3 3q-1 0 -3 -1t-24 -13.5t-61.5 -28t-66 -15.5t-41.5 9q-13 8 -25 24.5
t-16 25.5q-3 5 -6.5 5t-6.5 -2q-1 -2 -2 -2.5t-1 -2.5q-1 0 -2 -2q-42 -61 -77 -93q-19 -17 -33 -23q-5 -2 -8 -2t-4 6q-2 17 10.5 46.5t34.5 59.5q16 22 35 37q20 16 41 21q12 2 25 0q2 -1 5.5 -2t5.5 -3l2 -2v0q1 -1 1 -2v-2t1 -2q1 -2 3 -3.5t3 -1.5q5 -3 8 -1.5t5 5.5
q2 7 -2 12.5t-9 9.5z" />
    <glyph glyph-name="b" unicode="b" horiz-adv-x="434" 
d="M-13 431v0v0q43 210 101 373q11 33 34.5 94.5t48.5 118.5t42 73q8 7 23 24t13 44q-1 9 -7.5 17t-15.5 10q-7 1 -12.5 -8t-9.5 -18l-3 -6q-79 -155 -136 -318t-91 -371q-6 -43 1 -50q3 -3 5.5 -3.5t3.5 2.5q2 6 16 35.5t37 66t51 63t59 27.5q20 -2 24 -26.5t0.5 -52.5
t-7.5 -41q-1 -8 -4 -17v-1t-0.5 -3t-1.5 -4l-5 -20q-47 -40 -72 -71q-38 -49 -34 -67q2 -10 7 -17t15 -9q20 -4 38 12q28 24 50 73q21 46 32 96q9 6 19 12q77 47 149.5 68t79.5 20q2 1 1.5 3t-14.5 -1q-118 -28 -219 -87q-7 -5 -14 -9v1q3 14 7 44.5t-5.5 64t-47.5 35.5
q-35 -1 -67 -35t-56 -75.5t-35 -66.5zM54 302v0q-2 0 -3 1.5t0 4.5q4 20 33 57q24 29 67 67q-10 -28 -20 -49q-22 -48 -48 -71q-16 -13 -29 -10z" />
    <glyph glyph-name="c" unicode="c" horiz-adv-x="294" 
d="M102 614v0q1 9 -4 17q-16 27 -48 23q-12 -4 -23 -16q-12 -11 -22 -27q-14 -24 -22 -57.5t1 -62t46 -36.5q30 -3 67 5.5t57 17.5q59 25 112 62q27 12 30.5 14t3.5 6q1 2 -0.5 5.5t-3.5 3.5h-1q-1 0 -28 -19q-56 -39 -119 -65q-75 -31 -117 -23q-17 3 -22.5 19t-1.5 37
q6 30 21 59q16 28 35 43v0q5 3 10 5.5t9 2.5q3 -1 4 -3t1 -4q0 -3 1 -5t3 -3q6 -1 11 1z" />
    <glyph glyph-name="d" unicode="d" horiz-adv-x="388" 
d="M81 650v0q-70 -39 -106 -112q-7 -15 -14 -39.5t-2 -43t34 -13.5q23 6 68 49q35 36 65 73q-16 -74 -16.5 -142t35.5 -75q38 -8 234 200l2 2q11 7 11 11q0 2 -0.5 3t-1.5 1t-3 -2.5t-7 -7.5q-203 -215 -235 -203q-19 3 -15 56.5t19 120.5t27 112q2 9 4 17q40 159 86 304.5
t73 198.5q1 3 -1.5 8.5t-8.5 10.5q-5 4 -10 5.5t-6 -1.5q-27 -53 -73.5 -199.5t-86.5 -305.5q-1 -3 -2 -8q-8 -29 -23 -97q-33 -41 -70 -79q-40 -39 -63 -48q-4 -2 -7.5 0.5t-4.5 6.5t-1 8q1 6 3 14q5 18 16 40q10 18 23.5 37.5t27.5 33.5q8 7 14 10.5t12 5.5q7 3 16 9
q17 12 10.5 23.5t-23.5 15.5z" />
    <glyph glyph-name="e" unicode="e" horiz-adv-x="338" 
d="M110 654v0v0q-4 21 -22 30q-11 6 -23 0q-31 -19 -55.5 -62.5t-27.5 -79.5q-2 -30 6 -55q13 -45 55 -60q25 -7 56.5 -1t57.5 20q63 33 120 72q23 16 48 32q3 2 12.5 5t11.5 6.5t2.5 7.5t-2.5 5q-2 0 -5.5 -2t-13.5 -9.5t-17 -12.5q-33 -25 -93 -64t-92 -49t-54.5 -9.5
t-38.5 9.5q-18 14 -23 39t-3 47q1 8 3 18t5 19l1 1q7 3 29.5 18t42.5 34t20 41zM88 658v0q4 2 8.5 2.5t5.5 -3.5q2 -26 -24 -48.5t-41 -31.5t-18 -11q9 23 28.5 51t40.5 41z" />
    <glyph glyph-name="f" unicode="f" horiz-adv-x="309" 
d="M91 804v0q21 59 48 116q5 12 3.5 21.5t-8.5 21t-13.5 13t-9.5 -8.5q-4 -11 -7 -23q-5 -13 -9 -27q-69 -217 -125 -438q-6 -28 -23 -111t-35.5 -181t-28.5 -171.5t-4 -81.5q4 -3 7 -3.5t6 3.5q1 1 1 3q13 23 55 101.5t98 183.5q34 68 30 112.5t-23 68.5t-31 31q24 -1 47 2
q137 14 232 111q21 12 16 17q-1 3 -4 0q-6 -5 -13 -12q-23 -25 -51 -45q-90 -63 -201 -70q-16 -1 -32 0q-2 -1 -0.5 -2l1.5 -1q1 0 11 -7t22 -22t19 -39.5t2 -59.5t-29 -81q-51 -98 -91.5 -173.5t-56.5 -105.5q27 199 78.5 432.5t118.5 425.5z" />
    <glyph glyph-name="g" unicode="g" horiz-adv-x="346" 
d="M106 565v0v0q-7 0 -8.5 -1t-1.5 -7l-1 -3q-42 -61 -77 -93q-19 -17 -33 -23q-5 -2 -8 -1.5t-4 5.5q-2 18 10.5 47.5t34.5 58.5q16 22 35 38q20 15 41 20q12 3 25 0q2 -1 5.5 -2t9.5 -11q1 -2 3 -3l4 -2q5 -3 8 -1.5t4 6.5q3 6 -1.5 12t-9.5 9q-36 26 -69 19
q-23 -6 -44 -22q-20 -16 -37 -39q-24 -32 -36.5 -65.5t-8.5 -53.5q2 -9 10 -14.5t18 -5.5q18 0 46 25q33 31 73 88v-3q-3 -24 -6 -47q-5 -39 -9 -62t-9 -46q-4 -23 -11 -64q-107 -119 -159 -227.5t-63 -191.5q-10 -68 1 -109q7 -31 22 -44q47 -31 87 36t70.5 181t49.5 220.5
t25 151.5q2 10 3 14q5 6 11 11q108 104 235 186v0q1 0 8.5 4t7.5 7q-1 2 -2.5 1.5t-3.5 -1.5l-6 -4q-7 -3 -18 -12q-124 -81 -231 -185q7 45 11 71q2 14 4 26q3 24 6 36q1 6 3 11t3.5 11t1.5 15.5t-2 25.5v0q0 4 -17 7zM58 312v0q-2 -15 -22 -115t-50.5 -218.5t-65.5 -189.5
q-14 -27 -30 -35t-30 1q-13 12 -18 35q-11 41 -1 109q11 81 62 188t155 225z" />
    <glyph glyph-name="h" unicode="h" horiz-adv-x="449" 
d="M208 1326q-10 21 -33 9q-1 -1 -27 -73.5t-55 -185.5q-9 -34 -31 -134t-45 -219.5t-33 -211t5 -108.5q3 -2 7 -4t7 1l1 2t2.5 5.5t3.5 5.5q1 4 2 5q11 23 39 73t60 97.5t56 64.5q1 1 3 0t3.5 -4t1.5 -6q0 -7 -5 -29q-8 -30 -16 -78q-22 -111 -16 -206q4 -26 11.5 -39
t15.5 -17.5t13 -5.5q37 -3 93 49.5t104.5 116t63.5 92.5q2 4 5 9q4 6 7.5 12.5t4.5 11.5q0 2 -0.5 5t-2 5t-3.5 -1l-3.5 -7t-5.5 -10q-2 -5 -3 -8q-15 -30 -65.5 -95.5t-106 -120.5t-87.5 -53q-16 7 -17.5 49t4.5 90.5t14 96t11 80.5t-3 59q-1 5 -4 9.5t-9 5.5
q-22 -3 -56.5 -51.5t-66 -103t-42.5 -77.5q3 26 6 53q35 305 114 603q27 103 54 175q16 28 24 63z" />
    <glyph glyph-name="i" unicode="i" horiz-adv-x="238" 
d="M39 621v0q3 8 -2 18q-6 5 -18 5t-15 -8q-14 -53 -20 -107q-5 -42 6.5 -81.5t60.5 -45.5q51 1 96.5 42.5t85.5 102.5q9 8 9 12t-2 3q-3 -3 -9 -14q-33 -52 -80 -97t-101 -45q-23 1 -31 24.5t-7 56.5q1 27 5 54q2 11 4.5 23t17.5 57zM58 671v0l2 2q3 3 5 6q3 4 5.5 11
t1.5 13q0 1 -1 3.5t-3.5 6t-7 5l-7.5 2.5v0q-6 1 -9 0t-6 -7q-4 -7 -6 -16t1 -16q9 -14 25 -10z" />
    <glyph glyph-name="j" unicode="j" horiz-adv-x="293" 
d="M8 721v0v0q-1 -3 -2 -7q-4 -14 -7 -28q-4 -23 17 -32q11 -3 19.5 7t10 24.5t-8.5 26.5q-6 8 -12.5 10.5t-16.5 -1.5zM-285 -221v0v0q1 -16 5.5 -29t16.5 -23q10 -9 23 -11q28 -4 52 25q44 67 81.5 207t65.5 292q20 23 41 45q202 197 245 233.5t47.5 37t6.5 3.5v1
q0 1 -3 2t-19 -13q-4 -3 -10 -8q-14 -12 -36 -31q-134 -120 -271 -262q17 88 39 229q21 69 21.5 96.5t-5.5 33.5q-5 6 -11.5 8t-12.5 -4q-2 -21 -5 -43q-9 -65 -21 -132l-10 -54l-1 -7q-13 -80 -31 -170q-46 -56 -80 -104q-79 -118 -105.5 -198.5t-22.5 -123.5zM-79 196v0
q-28 -144 -64 -267t-77 -174q-6 -7 -14 -13t-17 -7q-19 -1 -25 14t-6 31q-3 42 23 121.5t105 196.5q33 46 75 98z" />
    <glyph glyph-name="k" unicode="k" horiz-adv-x="424" 
d="M272 1324v0q0 5 -3.5 10t-7.5 9q-6 4 -10.5 5.5t-5.5 -1.5l-1 -1q0 -1 -1 -2q-36 -78 -66 -158q-2 -5 -3 -10l-20 -56q-54 -161 -101 -325v0l-22 -78q-34 -122 -59 -247q-6 -27 -10.5 -59.5t-4.5 -59.5q0 -15 6 -29q4 -7 12.5 -10.5t15.5 3.5q2 3 2.5 6.5t0.5 7.5v4
t-0.5 3l-1.5 3q-2 2 -3 5q-9 48 19 173v0q77 -10 195 -4t193 30l6 2t7 2q4 0 8 1q2 1 5 2q2 0 4.5 1t3.5 1q3 2 6 6t3 8q-1 4 -3 4.5t-4 -0.5t-5 -2q-16 -11 -34 -17q-69 -24 -189.5 -29t-193.5 2v0l2 10q14 16 42.5 42t58 49.5t48.5 32.5q4 1 9 1q6 1 9 2t5 2.5t4 3.5h1
q2 3 6 5q3 1 5.5 2t4.5 3q4 2 6 4t5 3q4 3 4 5.5t-1 7.5q-2 7 -8 14.5t-13 10.5q-9 1 -39.5 -20t-68 -53.5t-66.5 -64.5q47 180 108 366t93 265q1 2 1 4q8 22 17 36q0 1 1 2q5 9 12 15q2 2 3 5t2 5q0 2 1 4q1 3 3 7l3.5 7t1.5 6q1 4 1 7q0 5 1 11z" />
    <glyph glyph-name="l" unicode="l" horiz-adv-x="356" 
d="M243 1332v0q-3 -6 -7 -12q0 -1 -1 -1q-126 -242 -191 -506q-69 -270 -87 -548q0 -2 -1 -8q-1 -18 -2.5 -49.5t2.5 -57t18 -26.5q16 2 49.5 43t77.5 104q6 8 12 17l2 2q57 81 120 156q47 59 106 101q12 6 19.5 9t7.5 8q-1 1 -2 1h-2h-1q-22 -11 -48 -32q-48 -40 -87 -89
q-67 -81 -127 -167q-2 -1 -3 -3q-74 -106 -112 -140q-3 -1 -5.5 -1t-4 3.5t-1.5 12.5q12 445 161 864q1 2 1 4q3 6 5 13q26 69 55 137v0q2 5 4 9l10 24q4 8 11 19.5t29 30.5t22 42.5t-10 33.5t-20 6z" />
    <glyph glyph-name="m" unicode="m" horiz-adv-x="543" 
d="M17 673q-7 -22 -17 -62.5t-17 -81t-3 -59.5q3 -8 9 -11t12 6v1q17 41 53.5 99t74.5 67q8 1 6.5 -10t-3.5 -28q-6 -34 -8 -69q-1 -9 0.5 -24t7.5 -27t19 -13q5 0 15 12t24 30q19 25 40.5 50t40.5 37q3 2 6 3t6 -0.5t4 -7.5q5 -16 11 -59v-1v-2q0 -2 1 -5v-1q0 -4 1 -8
q4 -42 18 -91.5t53 -67.5q30 -9 55.5 13t40.5 45q10 13 18 28q31 52 53 108q16 17 10 25q-2 1 -4 -0.5t-11 -25.5q-5 -11 -10 -23q-24 -58 -59 -109q-14 -23 -38.5 -44.5t-53.5 -13.5q-10 4 -17.5 18.5t-12 31t-5.5 26.5q-2 7 -3 15q-2 14 -4 27l-2 16q-5 31 -9.5 58.5
t-9.5 37.5q-9 17 -27 15q-21 -4 -47 -33t-48 -59q-13 -17 -22.5 -29t-14.5 -13q-4 2 -3.5 15.5t3.5 33.5q5 30 6.5 62t-8.5 54q-3 6 -6 7.5t-10 0.5q-20 -4 -37.5 -19.5t-29.5 -31.5q-37 -51 -63 -108l1 2q7 56 23 110q17 43 19 62q3 4 -1 11q-16 17 -27 10z" />
    <glyph glyph-name="n" unicode="n" horiz-adv-x="404" 
d="M-13 437v0q2 -1 5 -1.5t4 2.5q7 10 26.5 38t43.5 55.5t42 34.5q3 0 5.5 -11.5t4.5 -27t3 -28.5q1 -6 1 -10l2 -10q2 -41 14.5 -91t46.5 -67q4 -2 10.5 -2.5t11.5 0.5q33 6 74 45.5t74.5 87.5t43.5 78q16 30 11 37q-1 1 -1.5 2t-1.5 1t-1 -2q-4 -16 -6 -23
q-10 -32 -43.5 -82t-75 -91.5t-75.5 -49.5q-5 -1 -11 0t-9 4q-12 10 -19.5 36t-11 54.5t-5.5 46.5q-1 5 -1 9v6q-1 13 -4 35.5t-11 40t-25 16.5q-16 -4 -38.5 -28t-43 -52t-30.5 -43q5 43 15 84.5t18 69.5t10 32v1q1 3 -2 8.5t-9 9.5q-5 5 -9.5 6t-5.5 -2
q-8 -23 -17.5 -71.5t-14 -93t4.5 -54.5z" />
    <glyph glyph-name="o" unicode="o" horiz-adv-x="315" 
d="M51 658v0q-3 -2 -7.5 -5.5t-7.5 -6.5q-25 -25 -39 -61.5t-22 -70.5q-8 -30 -6 -61t35 -44q13 -4 27 4q17 9 32 33q18 28 29.5 71.5t-3.5 72.5l10 -6q15 -9 35 -17q39 -14 84.5 -19t79.5 4q25 4 25 9q-2 3 -18 -3q-42 -13 -96 -6.5t-92 24.5q-17 9 -32 19q-1 1 -2 1v-1.5
t1 -0.5q7 -9 9 -20t1 -22q-1 -25 -11 -53.5t-23 -49.5q-15 -24 -32 -33q-11 -7 -22 -4q-11 4 -13 20t0.5 33.5t4.5 25.5q12 58 43 108q1 2 6 6q34 24 30 31q-3 8 -7 12q-5 6 -10 8.5t-9 1.5z" />
    <glyph glyph-name="p" unicode="p" horiz-adv-x="458" 
d="M42 770v0v0q-1 -5 -2 -9q-2 -5 -3 -10q-6 -20 -11 -41q-31 -117 -55 -235q-14 -69 -38.5 -247t-32.5 -337q0 -2 2 -3t4.5 -0.5t3.5 2.5q37 319 75 513q10 33 33 77t52 86q19 27 44.5 52t57.5 33q15 1 19 -15q7 -30 -14 -89q-3 -8 -7 -16l-3 -6q-8 -20 -19 -40l-4 -2
l-4 -2q-15 -8 -42.5 -25.5t-52 -41t-28.5 -48.5q-1 -5 0 -11.5t5 -10.5q5 -4 11 -4.5t11 0.5q10 3 25 11q29 18 54 46q41 47 66 104q121 50 251 55q5 1 10 1h1v0h3q3 -1 7.5 -1t4.5 2q0 1 -2 1.5t-4.5 0.5h-4.5h-2q-135 -3 -261 -54q4 11 8 21q3 9 7 20l1 5q10 36 6 70
t-44 32q-32 -8 -58 -33t-44 -52q-53 -76 -79 -144q3 16 6 31q13 66 29 132q1 7 3 15q5 26 13 50q3 9 7 13q3 4 5 10q2 4 4 6q1 2 2 3.5t2 4.5q1 2 1 3q4 9 7 19t3 18v6q0 7 -1.5 13.5t-5.5 13.5q-5 5 -10 8t-12 -1zM23 375v0q13 31 54 61t67 44l2 1q-20 -32 -44 -59
q-25 -28 -53 -45q-10 -6 -17 -8q-1 0 -2 -1t-3.5 -1.5t-4 1t0.5 7.5z" />
    <glyph glyph-name="q" unicode="q" horiz-adv-x="398" 
d="M132 621v0q0 4 -3 9t-6 8q-9 13 -24 8q-34 -13 -64.5 -37.5t-54.5 -51.5q-29 -35 -45 -67q-15 -33 -9 -52q4 -10 13 -17.5t20 -10.5q28 -4 61.5 14.5t53.5 36.5q48 39 88 102q6 10 11 19q-1 -8 -3 -21q-12 -67 -35.5 -206.5t-43.5 -280t-23 -204.5q-2 -34 2.5 -37t6 -1.5
t1.5 2.5q73 176 157 353q85 176 157 351l10 19q1 2 1 4.5t-2 3.5q-1 1 -3 -2q-2 -6 -5 -11q-67 -157 -142 -318q-92 -193 -171 -384q16 176 53.5 391t81.5 386q1 5 8.5 34t-2.5 41q-3 2 -8.5 3t-10.5 1t-7 -2q-1 -2 -3 -13t-4.5 -25t-4.5 -25q-1 -6 -1 -8q-2 -13 -5 -26
q-11 -21 -22 -39q-40 -63 -88 -102q-9 -7 -29.5 -21t-42.5 -23.5t-35 -4.5q-4 3 -4.5 10.5t0.5 12.5q3 16 15 38q6 11 14 23q36 53 88 91q17 11 58 26q2 1 1 3z" />
    <glyph glyph-name="r" unicode="r" horiz-adv-x="365" 
d="M369 566q-1 -1 -7 -14q-21 -43 -67 -108.5t-96.5 -119.5t-82.5 -54q-9 5 -10.5 30t5.5 86t-0.5 96t-50.5 48q-11 2 -21 4q-10 1 -19 3q-5 1 -6 6.5t1.5 15.5t6.5 20.5t7 19.5t2 14t-14.5 9t-15.5 1q-5 -10 -8 -20l-2 -8q-3 -15 -4.5 -31t4.5 -24q4 -4 14.5 -7.5
t16.5 -4.5q52 -9 60.5 -35.5t2.5 -65t-7 -71.5t6.5 -60.5t31.5 -29.5q35 3 85.5 55t95 115t69.5 113q3 2 5 5.5t2 5.5q0 6 -4 6z" />
    <glyph glyph-name="s" unicode="s" horiz-adv-x="347" 
d="M25.5 513.5q-4.5 5.5 -8.5 12.5q-5 12 -2 24.5t14 21.5q2 2 5 3v0q4 2 4.5 8t-2.5 12t-8 9t-13 -2q-14 -8 -25 -26q-9 -24 4 -47q10 -15 21 -26l25 -25q39 -30 59 -73l1 -2q-67 -67 -91.5 -119t-24.5 -70q-1 -11 5.5 -20t16.5 -9h5q37 7 78 57q41 51 42.5 96.5
t-14.5 75.5q98 85 215 136l3 1q19 5 18.5 8t-1.5 3q-8 -3 -11 -4q-125 -52 -226 -141l-1.5 3l-0.5 1v0q-28 40 -55.5 63.5t-32 29zM-12 213v0q0 17 24 68t90 119q8 -17 5 -51t-42 -81q-39 -48 -73 -55h-3h-1v0z" />
    <glyph glyph-name="t" unicode="t" horiz-adv-x="399" 
d="M257 1410v0l-24 -64q-7 -19 -14 -37q-71 -185 -142 -412q-49 0 -142 -1q-1 0 -1 -0.5t1 -2.5q1 -1 2.5 -2t2.5 -1h135q-50 -164 -83 -326.5t-33.5 -253.5t16 -148.5t63.5 -74.5q27 -5 53 9t46 33q51 49 90 109q54 79 100 163q37 68 70 137q18 22 14 30q-8 3 -9.5 0.5
t-1.5 -3.5q-24 -52 -50 -103q-47 -94 -103 -183q-38 -61 -85 -115q-22 -26 -56 -51.5t-69 -18.5q-26 8 -36.5 33.5t-14.5 51.5q-8 56 -3 114q16 183 66 363q30 118 65 234h294h11h5q9 0 18 -1l11 -3q12 -2 15 -2h7t13 2q3 0 4 1t0 3q-2 5 -8.5 6t-11.5 1v0h-13h-17h-10h-140
h-76h-52h-48q56 182 120 361q1 5 3 10q4 11 8.5 23t8.5 18q4 7 5 11q2 3 3 5.5t4 5.5q6 6 8 11t3 12q1 2 1 6q2 7 5 13t4 11.5t-4 12.5q-5 6 -12.5 11t-15.5 2z" />
    <glyph glyph-name="u" unicode="u" horiz-adv-x="412" 
d="M60 632v0q1 4 1 8q-1 6 -4.5 9.5t-9.5 6.5q-1 1 -4.5 2t-6.5 2t-5 0t-7.5 -10.5t-10.5 -19.5t-7 -13q-17 -35 -24 -71q-7 -48 35 -67q33 -9 61 9t48 43q-6 -43 5.5 -86t61.5 -49q45 2 87.5 30t92.5 80q32 37 38.5 41.5t9.5 11.5q0 4 -4.5 4.5t-6.5 -3.5q-38 -55 -98 -106
t-120 -55q-28 4 -35 32t-6 52q1 21 4 42v1q2 11 4.5 22.5t6.5 21.5t5.5 16.5t0.5 12.5q-1 5 -5.5 10.5t-10.5 8.5t-10 0q-5 -3 -8.5 -16.5t-6 -29t-3.5 -23.5v-2q-17 -22 -46 -45.5t-58 -15.5q-12 4 -14 18t3 33l6 20q5 15 11.5 30.5t16.5 27.5q4 5 7 8.5t6 8.5z" />
    <glyph glyph-name="v" unicode="v" horiz-adv-x="279" 
d="M34 362v0q-2 -1 -3 -0.5t-2 1.5t-1 2q-12 43 -13 120q-1 80 0 132q0 5 -3.5 10t-9.5 9t-9.5 4t-4.5 -4q-1 -53 0 -133q2 -81 15 -130q3 -8 10.5 -14t16.5 -2q5 3 10 8t8 10q18 23 32 49q29 52 55 106q40 85 77 172l1 2q1 2 2 3q6 6 7.5 11t0.5 7t-2 2q-3 -1 -10 -19
q-5 -11 -10 -23q-16 -37 -32 -73q-34 -75 -71 -148q-11 -21 -29.5 -53.5t-34.5 -48.5z" />
    <glyph glyph-name="w" unicode="w" horiz-adv-x="407" 
d="M28 560v0q1 8 -0.5 11.5t-8.5 8.5q-1 0 -2 1q-7 6 -11.5 6.5t-9.5 -9.5q-4 -7 -14.5 -31t-19.5 -52.5t-8 -48.5t20 -19q32 6 67 36.5t60 57.5q4 5 8 8q-14 -93 -4 -188q8 -37 23 -54.5t24 -19.5q7 -4 14 -4q34 5 55 75t31.5 148.5t12.5 108.5q3 -1 5 -2q53 -28 113 -34
q18 -4 23.5 -4t6.5 2t1 3v0q-2 2 -4 2h-3v0h-16q-52 3 -100 23q-14 6 -27 14h-1.5t-0.5 -1q-7 -91 -24 -181q-4 -20 -13.5 -55.5t-25 -65t-38.5 -29.5q-4 0 -8 2q-15 7 -21 32t-7 52t0 41q1 46 7 90q0 17 5.5 32.5t6 25t0.5 10.5q-1 8 -10.5 14.5t-12.5 7t-6 -1.5
q0 -1 -1 -6t-2 -16.5t-1.5 -12.5t-2.5 -3q-7 -8 -15 -15q-42 -50 -100 -82q-12 -6 -19 -6q-8 0 -7.5 10.5t6 25t12 27.5t9.5 17q8 13 16 19q6 5 10.5 11.5t7.5 18.5z" />
    <glyph glyph-name="x" unicode="x" horiz-adv-x="295" 
d="M2 597v0q-9 -2 -12.5 -4.5t-1.5 -10.5q13 -62 49 -132q-62 -77 -69 -85l1 -1.5t3 -0.5q8 10 62 77l5 6q20 -34 49 -54.5t70 -15.5q53 11 82.5 55.5t45.5 92.5q2 8 4 15q1 5 4 11l5 10t0 8q-7 3 -9 -11q-1 -6 -3 -12q-14 -54 -44 -103t-85 -63q-39 -5 -65.5 22.5
t-41.5 59.5l80 98l9 8q12 7 9.5 12.5t-5.5 2.5q-2 -2 -13 -15l-82 -102q-17 42 -20 58t-3 19v2q0 6 -1 12q-4 24 -5 28t-3 6.5t-5 4.5q-5 3 -10 2z" />
    <glyph glyph-name="y" unicode="y" horiz-adv-x="390" 
d="M159 641v0v0q-6 0 -7.5 -1t-2.5 -7v-6q-1 -4 -1 -8l-2 -12q-24 -35 -54.5 -63t-57.5 -31q-11 0 -14.5 4.5t-4.5 16.5q0 10 3 24v3q6 23 16 45q5 8 13 17q11 12 17.5 25t-3.5 27q-7 9 -13.5 10.5t-13.5 -8.5q-11 -17 -24 -48t-16.5 -62t13.5 -48q33 -23 72 9t67 71
q-2 -14 -4 -27q-19 -124 -41 -248q-106 -118 -158.5 -226.5t-63.5 -191.5q-9 -68 1 -109q7 -30 22 -42q48 -34 87.5 33.5t70 181.5t50 220.5t25.5 151.5q1 10 2 14l11 11q108 100 174 144.5t68 44.5q11 3 9 7q-2 2 -3 2t-2 -1l-6 -4q-7 -4 -14 -9q-2 -1 -5 -3
q-124 -82 -231 -185l16 96l4 30q1 10 15 72q1 5 4.5 29.5t1.5 33.5q-1 10 -7.5 13.5t-12.5 3.5zM100 316v0q-2 -15 -22 -115t-51 -218.5t-65 -188.5q-15 -27 -31.5 -37t-29.5 1q-11 11 -18 36q-10 41 -1 109q11 82 62.5 189t155.5 224z" />
    <glyph glyph-name="z" unicode="z" horiz-adv-x="395" 
d="M-7 617v0q84 45 106 34q1 -17 -15.5 -48.5t-38.5 -66t-39 -58.5t-18 -25q-2 -3 0 -8t8 -10q5 -5 8.5 -6.5t5.5 -1t3 1.5q38 24 80 41q69 27 140 48q72 21 146 36l16 3h2q2 0 4 1t0 2.5t-16 -1t-39 -8.5q-122 -25 -238 -70q-45 -19 -88 -43q15 21 42.5 65t45.5 89
q21 49 -0.5 64t-116.5 -36q-1 0 -0.5 -1l0.5 -1q1 -1 1.5 -1h0.5z" />
    <glyph glyph-name="braceleft" unicode="{" horiz-adv-x="509" 
d="M105 648q4 -1 11 -3q15 -3 35.5 -12t38 -24.5t23.5 -40.5q5 -29 -7.5 -93.5t-31.5 -143.5q-24 -97 -39.5 -183t-3.5 -128q13 -34 36 -51.5t50 -24t51.5 -6t40.5 3t17 3.5q4 1 3.5 5t-5.5 10q-4 6 -9.5 9t-9.5 2q-1 0 -20 -3.5t-45 -3t-49.5 10t-33.5 34.5q-10 38 5 122
t38 179q20 80 32.5 146t7.5 98q-12 48 -46 74.5t-68 36.5q84 63 120.5 150t55.5 174q12 48 24 89q17 47 56 70t82.5 30.5t75.5 6.5t36 -2v0q4 0 5 3.5t-3 9.5q-3 5 -8.5 9.5t-10.5 4.5q-1 1 -34 2t-79 -6.5t-87 -31.5t-59 -74q-13 -41 -24 -87q0 -1 -1 -3q-19 -91 -60 -182
q-39 -90 -132 -150q-11 -11 22 -30z" />
    <glyph glyph-name="bar" unicode="|" horiz-adv-x="417" 
d="M224 1056v0v-1q-7 -26 -56.5 -232t-101.5 -462t-66 -431q0 -4 4 -9.5t9 -9.5q6 -4 10 -4t4 4q10 130 44.5 316t76 370t71.5 308t32 130q1 3 -2 8.5t-9 10.5q-6 4 -10.5 4.5t-5.5 -2.5z" />
    <glyph glyph-name="braceright" unicode="}" horiz-adv-x="1115" 
d="M6262 501v0q-1 0 -16.5 3.5t-36.5 12t-39 24.5t-24 41q-5 30 6.5 94.5t29.5 143.5q23 96 37 182t1 128q-12 34 -35.5 52t-50.5 24t-51.5 5.5t-40.5 -3t-17 -2.5q-3 -1 -2.5 -5.5t4.5 -10.5t9.5 -9t9.5 -2v0q2 1 21 4t45.5 2.5t49.5 -10t33 -34.5q11 -38 -3.5 -122
t-36.5 -179q-18 -80 -29.5 -146t-6.5 -98q13 -48 47.5 -74.5t67.5 -36.5q-82 -63 -117.5 -150t-53.5 -174q-11 -47 -23 -89q-17 -48 -56 -71t-83 -30t-75.5 -6t-33.5 2q-5 0 -5.5 -3.5t2.5 -8.5q4 -6 9 -10t10 -5v0q4 -1 37 -2t78.5 6.5t85.5 32t57 73.5q13 42 24 90
q18 91 57 182.5t134 152.5q4 2 -1 11q-3 6 -8.5 10t-9.5 5z" />
    <glyph glyph-name="asciitilde" unicode="~" horiz-adv-x="1115" 
d="M1015 901v-172q-69 -79 -134 -107t-128 -28q-66 0 -195 53.5t-194 53.5q-56 0 -118.5 -31t-142.5 -123v171q71 81 135.5 109.5t125.5 28.5q70 0 199.5 -54.5t189.5 -54.5q57 0 119.5 31t142.5 123z" />
    <glyph glyph-name="exclamdown" unicode="&#xa1;" horiz-adv-x="672" 
 />
    <glyph glyph-name="cent" unicode="&#xa2;" horiz-adv-x="1139" 
 />
    <glyph glyph-name="sterling" unicode="&#xa3;" horiz-adv-x="642" 
d="M113 284v0q42 44 70.5 107t47.5 135l38 6q60 7 111 7q4 0 4.5 4t-3.5 9q-4 6 -9.5 10t-9.5 4q-51 0 -112 -7l-10 -2q15 60 28 119q21 98 45 172q40 101 90.5 105.5t63.5 -79.5q-17 -27 -22 -56q0 -4 3.5 -9.5t9.5 -9.5t10 -4t4 4q3 19 13.5 38.5t21 33t12.5 16.5v0
q2 2 0 7.5t-7 10.5t-10 7t-8 -1v0q-1 -1 -7.5 -9.5t-15.5 -21.5q-8 58 -40.5 85t-73 7t-71.5 -102q-24 -75 -45 -173q-15 -72 -35 -146q-37 -7 -68 -20q-3 -1 -2 -6t6 -10q5 -6 10 -8.5t9 -1.5q16 7 35 12q-24 -81 -61 -146.5t-95 -100.5q-3 -2 -2 -7t6 -10q5 -6 10.5 -8.5
t8.5 -0.5l30 18q27 19 56.5 32.5t66.5 15.5q31 1 61 -19q21 -14 47.5 -25.5t61.5 -10.5q-3 -4 -5 -8q-1 -3 1.5 -8t7.5 -10q6 -5 10.5 -6.5t6.5 1.5q7 12 19.5 21t23 15t13.5 7v0q4 2 2.5 6.5t-5.5 10.5q-5 5 -10.5 8t-8.5 1q-1 0 -9 -4t-19 -11.5t-21 -16.5q-38 -4 -65.5 7
t-49.5 25q-32 24 -66 26q-51 -5 -98 -35z" />
    <glyph glyph-name="currency" unicode="&#xa4;" horiz-adv-x="1115" 
d="M385 551q45 -44 109 -63q32 -8 63 -8q32 0 64 8q64 19 109 63q44 45 63 109q10 32 10 64t-10 64q-19 63 -63 109q-45 44 -110 62q-32 9 -64 9t-63 -10q-64 -19 -108 -61q-43 -44 -62 -108q-11 -33 -11 -66q0 -31 10 -62q18 -65 63 -110zM264 928l-130 130l88 89l130 -129
q48 33 109 50q48 16 98 16q45 0 91 -14q63 -18 112 -52l130 129l88 -89l-129 -128q34 -51 53 -113q13 -46 13 -93q0 -46 -13 -94q-19 -61 -53 -112l129 -129l-88 -89l-130 130q-49 -35 -111 -53q-46 -13 -94 -13q-46 0 -93 13q-63 18 -112 53l-130 -130l-88 89l130 129
q-35 51 -53 113q-13 47 -13 93q0 48 14 96q18 60 52 108z" />
    <glyph glyph-name="yen" unicode="&#xa5;" horiz-adv-x="391" 
d="M41 490v0v0q5 2 34.5 8.5t73.5 13.5q-24 -106 -28 -232q0 -4 4 -9.5t9 -9.5q6 -4 10 -4t4 5q5 139 34 255q51 7 106 7q4 0 4.5 4t-3.5 10t-9.5 9.5t-9.5 3.5q-41 0 -81 -4q7 25 15 49q53 8 111 8q4 0 4.5 4t-3.5 10t-9.5 10t-9.5 4q-42 -1 -84 -5q42 119 79 186t40 68
q2 3 -0.5 8.5t-7.5 10.5q-6 5 -10.5 6.5t-7.5 -1.5v0q-5 -5 -45 -79t-82 -203q-41 17 -75 58q-43 55 -64 117q-2 5 -6.5 10.5t-10.5 7.5q-11 4 -9 -7q24 -70 74 -133q29 -35 62 -58q-44 -7 -71.5 -13.5t-31.5 -7.5v0q-4 -1 -3.5 -5.5t5.5 -10.5q4 -5 9.5 -8t9.5 -3
q1 1 28.5 7.5t72.5 13.5q-7 -23 -13 -48q-54 -8 -91.5 -16t-44.5 -10v0q-4 -1 -3.5 -5.5t5.5 -10.5q4 -5 9.5 -8.5t9.5 -2.5z" />
    <glyph glyph-name="brokenbar" unicode="&#xa6;" 
d="M470 343h176v-868h-176v868zM470 1671h176v-868h-176v868z" />
    <glyph glyph-name="section" unicode="&#xa7;" horiz-adv-x="1115" 
d="M600 288q61 18 106 59q81 71 81 182q0 6 -2 11h-2q-1 16 -4 30q-24 67 -124 140q-65 31 -139 31q-86 0 -137.5 -48.5t-51.5 -129.5q0 -135 273 -275zM513 -445q124 6 203 75q79 71 79 182q0 137 -347 304q-136 70 -193.5 150.5t-57.5 194.5q0 163 98 261q74 71 187 90
l-44 21q-135 70 -193 150.5t-58 194.5q0 163 98 261q90 87 238 94q8 2 18 2h4q72 0 179 -18.5t107 -45.5v-214h-57q-5 89 -88 146q-77 51 -163 56h-17q-86 0 -137.5 -49t-51.5 -130q0 -145 316 -295q163 -74 224.5 -158t61.5 -207q0 -188 -112 -310q-51 -43 -108 -70
q118 -62 169 -130q60 -85 60 -206q0 -188 -111 -311q-136 -112 -304 -115v1q-7 -1 -15 -1h-3q-73 0 -179.5 18t-106.5 45v214h56q6 -89 88 -145q75 -50 160 -55z" />
    <glyph glyph-name="dieresis" unicode="&#xa8;" horiz-adv-x="336" 
d="M135 1377v0l2 2q3 3 5 6q3 4 5.5 11t1.5 13q0 1 -1 3.5t-3.5 6t-7 5l-7.5 2.5v0q-6 1 -9 0t-6 -7q-4 -7 -6 -16t1 -16q9 -14 25 -10zM210 1370v0l2 2q3 3 5 6q3 4 5.5 11t1.5 13q0 1 -1 3.5t-3.5 6t-7 5l-7.5 2.5v0q-6 1 -9 0t-6 -7q-4 -7 -6 -16t1 -16q9 -14 25 -10z
" />
    <glyph glyph-name="copyright" unicode="&#xa9;" horiz-adv-x="1841" 
d="M924 1537q160 0 308.5 -62.5t262.5 -176.5q112 -111 174 -261.5t62 -311.5q0 -162 -62 -310.5t-178 -263.5q-116 -116 -263.5 -176t-311.5 -60q-160 0 -305.5 61t-261.5 177q-117 114 -178 261t-61 311q0 163 61 311.5t176 261.5q112 114 262 176.5t315 62.5zM393 1252
q-105 -106 -161 -241.5t-56 -285.5q0 -151 56 -285t163 -241q108 -105 241 -161.5t281 -56.5q151 0 286 55.5t241 160.5q107 108 164 243.5t57 284.5q0 147 -57 285t-159 242q-106 105 -242.5 162t-283.5 57q-151 0 -288.5 -57t-241.5 -162zM952 180q-157 0 -291 75
t-204.5 203.5t-70.5 267.5t72 268.5t206.5 203t279.5 73.5q42 0 82.5 -7.5t83.5 -22.5q5 -1 10 -1q21 0 28 33h47l79 -218h-49q-57 103 -144 136q-79 29 -161 29h-17q-94 -9 -183 -78t-134 -195q-36 -99 -36 -202q0 -28 2 -55q12 -133 76.5 -246.5t164.5 -167.5
q79 -44 183 -46q136 0 213 61.5t77 138.5h58v-110q0 -50 -106 -95t-266 -45z" />
    <glyph glyph-name="ordfeminine" unicode="&#xaa;" horiz-adv-x="648" 
 />
    <glyph glyph-name="guillemotleft" unicode="&#xab;" horiz-adv-x="1038" 
d="M191 462l376 333h15v-40l-225 -293l225 -293v-40h-15zM535 462l376 333h16v-40l-226 -293l226 -293v-40h-16z" />
    <glyph glyph-name="logicalnot" unicode="&#xac;" 
d="M96 779h924v-540l-1 -1h-108v431h-815v110z" />
    <glyph glyph-name="registered" unicode="&#xae;" horiz-adv-x="1841" 
d="M826 1144v-411l3 -9q26 -62 62 -89q32 -24 62 -24h6q34 4 67.5 42t51.5 107q14 55 14 113q0 15 -1 30q-4 74 -30.5 137t-62 83.5t-70.5 20.5h-102zM1082 569l91 -128q110 -155 165 -155h37v-55h-381v55h50q33 0 33 24q0 32 -76 126l-82 112q-47 0 -93 46v-175
q0 -133 40 -133h58v-55h-348v55h48q40 0 40 133v592q0 133 -40 133h-48v77h392q70 -1 138 -46q66 -45 101.5 -125.5t35.5 -167.5q0 -86 -35 -165.5t-126 -147.5zM924 1537q160 0 308.5 -62.5t262.5 -176.5q112 -111 174 -261.5t62 -311.5q0 -162 -62 -310.5t-178 -263.5
q-116 -116 -263.5 -176t-311.5 -60q-160 0 -305.5 61t-261.5 177q-117 114 -178 261t-61 311q0 163 61 311.5t176 261.5q112 114 262 176.5t315 62.5zM393 1252q-105 -106 -161 -241.5t-56 -285.5q0 -151 56 -285t163 -241q108 -105 241 -161.5t281 -56.5q151 0 286 55.5
t241 160.5q107 108 164 243.5t57 284.5q0 147 -57 285t-159 242q-106 105 -242.5 162t-283.5 57q-151 0 -288.5 -57t-241.5 -162z" />
    <glyph glyph-name="macron" unicode="&#xaf;" horiz-adv-x="670" 
 />
    <glyph glyph-name="degree" unicode="&#xb0;" horiz-adv-x="742" 
d="M373 1444q-95 0 -162.5 -67t-67.5 -163q0 -95 67 -161t163 -66t162 66t66 161q0 96 -66.5 163t-161.5 67zM373 1521q127 0 216 -89.5t89 -215.5t-90.5 -216t-216.5 -90q-129 0 -217 89t-88 217q0 127 89.5 216t217.5 89z" />
    <glyph glyph-name="plusminus" unicode="&#xb1;" horiz-adv-x="1014" 
 />
    <glyph glyph-name="uni00B2" unicode="&#xb2;" horiz-adv-x="1014" 
 />
    <glyph glyph-name="uni00B3" unicode="&#xb3;" horiz-adv-x="1014" 
 />
    <glyph glyph-name="acute" unicode="&#xb4;" horiz-adv-x="1128" 
d="M669 1448q38 38 60.5 51.5t44.5 13.5q36 0 59 -22t23 -57q0 -24 -17.5 -46t-51.5 -44l-363 -223h-76z" />
    <glyph glyph-name="mu" unicode="&#xb5;" horiz-adv-x="1180" 
 />
    <glyph glyph-name="paragraph" unicode="&#xb6;" horiz-adv-x="1126" 
d="M1022 1514v-77h-140v-1502h-90v1502h-183v-1502h-92v812q-192 9 -303.5 113t-111.5 270q0 172 118 278t314 106h488z" />
    <glyph glyph-name="periodcentered" unicode="&#xb7;" horiz-adv-x="559" 
d="M160 749l90 93q16 15 32 15q14 0 34 -18l88 -94q13 -18 13 -32q0 -17 -15 -34l-88 -97q-22 -22 -32 -22q-18 0 -32 15l-97 111q-11 15 -11 29q0 17 18 34z" />
    <glyph glyph-name="periodcentered" unicode="&#x2219;" horiz-adv-x="559" 
d="M160 749l90 93q16 15 32 15q14 0 34 -18l88 -94q13 -18 13 -32q0 -17 -15 -34l-88 -97q-22 -22 -32 -22q-18 0 -32 15l-97 111q-11 15 -11 29q0 17 18 34z" />
    <glyph glyph-name="cedilla" unicode="&#xb8;" horiz-adv-x="397" 
d="M168 247v0v0v-4q-3 -12 -6.5 -25t-6 -22l-2.5 -9q-1 -2 1 -5.5t6 -6.5q3 -3 5 -3.5t5 0.5q11 7 33 9.5t35 0.5q15 -1 26 -7t14 -22q1 -26 -23.5 -46t-61.5 -35.5t-73 -27.5l-4 -2q-7 -2 -16 -5q-1 -1 -0.5 -4t3.5 -6q4 -4 7 -6t5 -1q7 2 16 6q2 0 3 1q5 2 10 3
q24 8 56 21t58.5 31t34.5 42q6 21 -4.5 36t-29.5 22q-21 6 -46 5t-40 -3q3 13 8 31t8 30h1l-1 4q1 3 1 4q0 2 -2 5.5t-6 6.5q-4 2 -6.5 2.5t-2.5 -1.5q0 -1 -3 -15q-1 -2 -1 -4h-1z" />
    <glyph glyph-name="uni00B9" unicode="&#xb9;" horiz-adv-x="1014" 
 />
    <glyph glyph-name="ordmasculine" unicode="&#xba;" horiz-adv-x="718" 
 />
    <glyph glyph-name="guillemotright" unicode="&#xbb;" horiz-adv-x="1038" 
d="M127 129h-16v40l226 293l-226 293v40h16l376 -333zM471 129h-15v40l225 293l-225 293v40h15l376 -333z" />
    <glyph glyph-name="onequarter" unicode="&#xbc;" horiz-adv-x="1708" 
 />
    <glyph glyph-name="onehalf" unicode="&#xbd;" horiz-adv-x="1964" 
 />
    <glyph glyph-name="threequarters" unicode="&#xbe;" horiz-adv-x="1708" 
 />
    <glyph glyph-name="questiondown" unicode="&#xbf;" horiz-adv-x="748" 
 />
    <glyph glyph-name="Agrave" unicode="&#xc0;" horiz-adv-x="742" 
d="M35 493v0v0q5 0 9 1q28 5 56 7q40 2 76 -3q-84 -206 -115 -288l0.5 -1l0.5 -1l1 -1v0h1v0v0q1 0 2.5 0.5t1.5 1.5t1 3v2q1 0 1.5 1.5t0.5 2.5v2v1.5v0.5v2t1 2v0v0q34 89 108 271q132 -26 209 -128q57 -75 86 -169q17 -61 17 -117q0 -19 2 -41q0 -4 4 -9.5t10 -9.5
q6 -3 9.5 -2.5t3.5 4.5q-15 253 6 523q112 8 212 9h1h1v0v0h2t2 2q0 1 -1 1h-1q-102 0 -216 -9q26 326 62 558.5t40 244.5q1 4 -2.5 9.5t-9.5 9.5q-4 4 -7 5q-5 1 -8 -3q-109 -169 -196 -351q-120 -255 -222 -508q-76 -9 -151 -20v-0.5v-1.5q1 -1 1.5 -1h0.5zM188 517v0v0
q104 249 225 501q102 206 172 304q4 5 5.5 5t1.5 -3t-0.5 -7t-0.5 -7q-19 -95 -46.5 -299t-45.5 -462q-176 -14 -311 -32zM177 500v0v0q-27 5 -56 5q27 3 61 8zM187 513v0q134 18 311 33q-13 -194 -10 -383q-28 115 -97 207q-78 103 -210 130zM567 1486l10 11l130 -119v-4
l-7 -7h-11l-122 101v7v11z" />
    <glyph glyph-name="Aacute" unicode="&#xc1;" horiz-adv-x="742" 
d="M35 493v0v0q5 0 9 1q28 5 56 7q40 2 76 -3q-84 -206 -115 -288l0.5 -1l0.5 -1l1 -1v0h1v0v0q1 0 2.5 0.5t1.5 1.5t1 3v2q1 0 1.5 1.5t0.5 2.5v2v1.5v0.5v2t1 2v0v0q34 89 108 271q132 -26 209 -128q57 -75 86 -169q17 -61 17 -117q0 -19 2 -41q0 -4 4 -9.5t10 -9.5
q6 -3 9.5 -2.5t3.5 4.5q-15 253 6 523q112 8 212 9h1h1v0v0h2t2 2q0 1 -1 1h-1q-102 0 -216 -9q26 326 62 558.5t40 244.5q1 4 -2.5 9.5t-9.5 9.5q-4 4 -7 5q-5 1 -8 -3q-109 -169 -196 -351q-120 -255 -222 -508q-76 -9 -151 -20v-0.5v-1.5q1 -1 1.5 -1h0.5zM188 517v0v0
q104 249 225 501q102 206 172 304q4 5 5.5 5t1.5 -3t-0.5 -7t-0.5 -7q-19 -95 -46.5 -299t-45.5 -462q-176 -14 -311 -32zM177 500v0v0q-27 5 -56 5q27 3 61 8zM187 513v0q134 18 311 33q-13 -194 -10 -383q-28 115 -97 207q-78 103 -210 130zM668 1491v-11v-7l-117 -101
h-10l-7 7v4l124 119z" />
    <glyph glyph-name="Acircumflex" unicode="&#xc2;" horiz-adv-x="742" 
d="M35 493v0v0q5 0 9 1q28 5 56 7q40 2 76 -3q-84 -206 -115 -288l0.5 -1l0.5 -1l1 -1v0h1v0v0q1 0 2.5 0.5t1.5 1.5t1 3v2q1 0 1.5 1.5t0.5 2.5v2v1.5v0.5v2t1 2v0v0q34 89 108 271q132 -26 209 -128q57 -75 86 -169q17 -61 17 -117q0 -19 2 -41q0 -4 4 -9.5t10 -9.5
q6 -3 9.5 -2.5t3.5 4.5q-15 253 6 523q112 8 212 9h1h1v0v0h2t2 2q0 1 -1 1h-1q-102 0 -216 -9q26 326 62 558.5t40 244.5q1 4 -2.5 9.5t-9.5 9.5q-4 4 -7 5q-5 1 -8 -3q-109 -169 -196 -351q-120 -255 -222 -508q-76 -9 -151 -20v-0.5v-1.5q1 -1 1.5 -1h0.5zM188 517v0v0
q104 249 225 501q102 206 172 304q4 5 5.5 5t1.5 -3t-0.5 -7t-0.5 -7q-19 -95 -46.5 -299t-45.5 -462q-176 -14 -311 -32zM177 500v0v0q-27 5 -56 5q27 3 61 8zM187 513v0q134 18 311 33q-13 -194 -10 -383q-28 115 -97 207q-78 103 -210 130zM527 1375q-1 -1 0 -1t1 0.5
t1 0.5q13 24 34.5 53.5t37.5 47.5q2 3 5.5 3.5t10.5 -4.5q28 -23 50.5 -57.5t36 -62.5t14.5 -32v0q1 -1 4 -1t7 1q4 2 6 4.5t1 4.5q0 1 -9.5 20.5t-25.5 47.5t-37 54.5t-45 40.5q-7 3 -21 -12.5t-29.5 -38.5t-27 -43t-14.5 -26v0z" />
    <glyph glyph-name="Atilde" unicode="&#xc3;" horiz-adv-x="742" 
d="M35 493v0v0q5 0 9 1q28 5 56 7q40 2 76 -3q-84 -206 -115 -288l0.5 -1l0.5 -1l1 -1v0h1v0v0q1 0 2.5 0.5t1.5 1.5t1 3v2q1 0 1.5 1.5t0.5 2.5v2v1.5v0.5v2t1 2v0v0q34 89 108 271q132 -26 209 -128q57 -75 86 -169q17 -61 17 -117q0 -19 2 -41q0 -4 4 -9.5t10 -9.5
q6 -3 9.5 -2.5t3.5 4.5q-15 253 6 523q112 8 212 9h1h1v0v0h2t2 2q0 1 -1 1h-1q-102 0 -216 -9q26 326 62 558.5t40 244.5q1 4 -2.5 9.5t-9.5 9.5q-4 4 -7 5q-5 1 -8 -3q-109 -169 -196 -351q-120 -255 -222 -508q-76 -9 -151 -20v-0.5v-1.5q1 -1 1.5 -1h0.5zM188 517v0v0
q104 249 225 501q102 206 172 304q4 5 5.5 5t1.5 -3t-0.5 -7t-0.5 -7q-19 -95 -46.5 -299t-45.5 -462q-176 -14 -311 -32zM177 500v0v0q-27 5 -56 5q27 3 61 8zM187 513v0q134 18 311 33q-13 -194 -10 -383q-28 115 -97 207q-78 103 -210 130zM693 1393l3 -6l-1 -6
q-14 -3 -24 13.5t-27 26.5t-38 -5.5t-43 -18t-32 5.5l-2 5v6l3 4l20 -9q17 -13 47 4q34 26 53 19.5t41 -39.5z" />
    <glyph glyph-name="Adieresis" unicode="&#xc4;" horiz-adv-x="742" 
d="M35 493v0v0q5 0 9 1q28 5 56 7q40 2 76 -3q-84 -206 -115 -288l0.5 -1l0.5 -1l1 -1v0h1v0v0q1 0 2.5 0.5t1.5 1.5t1 3v2q1 0 1.5 1.5t0.5 2.5v2v1.5v0.5v2t1 2v0v0q34 89 108 271q132 -26 209 -128q57 -75 86 -169q17 -61 17 -117q0 -19 2 -41q0 -4 4 -9.5t10 -9.5
q6 -3 9.5 -2.5t3.5 4.5q-15 253 6 523q112 8 212 9h1h1v0v0h2t2 2q0 1 -1 1h-1q-102 0 -216 -9q26 326 62 558.5t40 244.5q1 4 -2.5 9.5t-9.5 9.5q-4 4 -7 5q-5 1 -8 -3q-109 -169 -196 -351q-120 -255 -222 -508q-76 -9 -151 -20v-0.5v-1.5q1 -1 1.5 -1h0.5zM188 517v0v0
q104 249 225 501q102 206 172 304q4 5 5.5 5t1.5 -3t-0.5 -7t-0.5 -7q-19 -95 -46.5 -299t-45.5 -462q-176 -14 -311 -32zM177 500v0v0q-27 5 -56 5q27 3 61 8zM187 513v0q134 18 311 33q-13 -194 -10 -383q-28 115 -97 207q-78 103 -210 130zM597 1411v0l2 2q3 3 5 6
q3 4 5.5 11t1.5 13q0 1 -1 3.5t-3.5 6t-7 5l-7.5 2.5v0q-6 1 -9 0t-6 -7q-4 -7 -6 -16t1 -16q9 -14 25 -10zM672 1404v0l2 2q3 3 5 6q3 4 5.5 11t1.5 13q0 1 -1 3.5t-3.5 6t-7 5l-7.5 2.5v0q-6 1 -9 0t-6 -7q-4 -7 -6 -16t1 -16q9 -14 25 -10z" />
    <glyph glyph-name="Aring" unicode="&#xc5;" horiz-adv-x="742" 
d="M41 495v0v0q4 0 8 1q28 5 57 7q39 2 75 -3q-83 -204 -114 -285v-1.5t1 -1.5h1v0v0v0v0q1 -1 2.5 -0.5t2.5 2.5v2q0 2 1 2q0 1 0.5 2.5t0.5 2.5v2v1.5v0.5q1 0 1 1v2v1v0q34 88 108 268q131 -26 207 -127q57 -74 85 -167q17 -61 16 -117q1 -19 2 -40q1 -4 5 -9.5t10 -9.5
q5 -3 8.5 -2.5t3.5 4.5q-14 251 7 519q110 8 210 8q7 -1 5 3q-1 1 -2 1q-99 0 -213 -9q22 286 54.5 504t44.5 279q8 0 15 3q11 6 20 15q22 21 30 52q7 32 -5 56t-47 24q-24 0 -47 -21q-21 -21 -29 -52l-2 -12q-2 -25 9 -42q6 -9 16 -15q-99 -156 -179 -323
q-119 -253 -221 -503q-74 -9 -149 -20v-0.5v-1.5q1 0 1.5 -0.5zM589 1347v0v0q-9 3 -15 12q-10 16 -8 40q0 6 2 12q7 31 29 51q22 21 46 21q14 -1 22 -8.5t11 -13.5q8 -17 3 -43q-8 -30 -29 -51h-1v0q-8 -9 -19 -15q-2 8 -11 16q-5 3 -8 4q-5 1 -7 -3q-7 -11 -15 -22z
M193 519v0v0q103 247 223 497q101 204 171 301q3 5 4.5 5t2 -3t0 -7t-1.5 -7q-18 -94 -45.5 -296.5t-45.5 -457.5q-175 -15 -308 -32zM182 502v0v0q-27 5 -56 5q27 3 61 8zM191 515v0q134 18 309 32q-13 -192 -10 -379q-28 114 -96 205q-77 102 -208 129z" />
    <glyph glyph-name="AE" unicode="&#xc6;" horiz-adv-x="1157" 
d="M1160 561v0l0.5 -1l0.5 -1q-96 -114 -234.5 -210t-288.5 -119q-69 -10 -136 8q1 -89 6 -173q0 -5 -3.5 -5.5t-9.5 2.5q-5 4 -9 9.5t-5 9.5q-1 22 -2 40v3v0q-1 20 -2 39l-2 44q0 -3 1 -5q-1 22 -1 45q-46 19 -78 61q-84 125 -57 261q-92 -9 -164 -18l-6 -14l-1 -3l-1 -1
q-73 -180 -107 -268v0v-1v-2t-1 -1v-0.5v-1.5v-2t-0.5 -2.5t-0.5 -2.5q-1 0 -1 -2v-2q-1 -2 -2.5 -2.5t-2.5 0.5v0v0h-1q-1 1 -1 1.5v1.5q31 81 114 286l1 3l5 12q-33 -4 -61 -8l-51 -7h-1q-12 -2 -25 -4q-4 0 -8 -1l-1 0.5t-1 1.5q-1 0 -1 0.5t1 0.5q75 12 150 21
q102 251 222 505q86 181 195 349q3 4 7 3t8 -4q6 -5 9 -10t3 -9q-2 -5 -23.5 -135.5t-47.5 -336.5q92 84 194 130q-89 -5 -105 49q-8 30 7 66q23 55 77 106t116 71q46 14 89 -2q35 -15 54 -48q18 -33 24 -72q0 -5 -3.5 -6t-8.5 2q-6 3 -10.5 8.5t-5.5 10.5q-2 13 -1 23
q2 16 -6 30q-4 7 -15 15t-19 12q-34 12 -76 0q-43 -14 -100.5 -63t-89.5 -102.5t0 -81.5q24 -19 83 -14q34 15 68 27q4 1 9.5 -2t9.5 -9q5 -5 6 -10t-3 -6q-157 -58 -301 -196q-14 -127 -24 -266q53 4 86 5.5t82 1.5q1 0 1.5 -0.5l1.5 -1.5v-1v0v0v0v0v0v0v0v0v0v0v0
q0 -1 -0.5 -1h-0.5h-1h-1h-1v0h-0.5h-0.5h-0.5h-0.5v1q-46 0 -79.5 -1.5t-86.5 -5.5q-12 -170 -12 -338q70 -22 136 -14q146 21 286.5 119.5t232.5 209.5h1.5t1.5 -1zM486 586v0q9 121 20 234q-104 -113 -139 -244q58 5 119 10zM177 554v0q73 9 163 19q16 84 61.5 163.5
t111.5 146.5q38 324 66 461q0 3 0.5 7t0 7t-2 3t-4.5 -5q-70 -97 -172 -303q-120 -250 -224 -499zM417 311v0q24 -34 58 -51q0 160 11 323q-61 -5 -120 -11q-16 -66 -5 -132t56 -129z" />
    <glyph glyph-name="Ccedilla" unicode="&#xc7;" horiz-adv-x="878" 
d="M725 1075v0v0q0 2 3 34.5t0 78t-21 86t-58 58.5l-12 4q-34 8 -91 -12.5t-125 -74.5q-67 -53 -134.5 -145.5t-123.5 -228.5q-41 -103 -71 -232q-29 -131 -14 -218q19 -108 86.5 -155t163.5 -41q-5 -19 -9 -36q-2 -7 -3 -11.5l-1 -4.5q-1 -2 1 -5t5 -6t5 -3t4 1q11 6 31 8
t32 1q13 -2 23.5 -7.5t13.5 -20.5q-1 -35 -47.5 -59t-98.5 -41l-4 -2l-14 -4q-2 -1 -1 -3.5t4 -6.5q3 -3 6 -4.5t4 -1.5q5 2 11 4q4 1 7 3q5 1 10 3q35 11 79.5 32t57.5 54q5 20 -4.5 33.5t-27.5 19.5q-19 6 -42 5t-37 -3q1 4 2 9q3 12 6.5 25t5.5 22q32 3 64 11
q116 28 239.5 109.5t232.5 208.5q1 0 0.5 1l-0.5 1q-1 1 -1.5 1h-1.5q-109 -127 -232.5 -208.5t-238.5 -109.5q-31 -7 -61 -10q1 1 1 2v2q0 2 -2 5t-6 6q-3 2 -5 2.5t-2 -1.5q-1 -1 -2 -5.5t-3 -12.5q-87 -4 -146.5 38t-77.5 139q-14 84 14 213q30 129 71 230
q56 136 122.5 227.5t133.5 144.5q66 52 120 72t85 13q4 -1 7 -2q37 -19 41.5 -64t-6.5 -81q0 -4 2 -9q2 -6 1 -12q-1 -4 -4 -8q-2 -4 -3.5 -7.5t-1.5 -8.5q2 -15 11 -26v-1q3 -7 11 -14q6 -4 10.5 -4t5.5 3z" />
    <glyph glyph-name="Egrave" unicode="&#xc8;" horiz-adv-x="834" 
d="M681 1199v0q-6 38 -24 70q-18 33 -53 48q-41 15 -86 1q-61 -19 -114 -69t-75 -104q-14 -35 -7 -64q16 -53 103 -48q-132 -60 -241.5 -180t-145.5 -264.5t53 -276.5q41 -54 105 -70t130 -7q147 23 282 116.5t228 205.5q1 2 0 3.5t-3 -0.5q-90 -108 -227.5 -204.5
t-280.5 -116.5q-54 -7 -114.5 8t-101.5 67q-72 105 -56.5 216t89 213t176.5 179t205 115q3 1 2.5 5.5t-5.5 10.5t-10 8.5t-9 1.5q-33 -12 -66 -26q-58 -5 -81 13q-31 27 0 79.5t87 100.5t98 62q41 12 74 0q8 -4 18.5 -11.5t15.5 -14.5q7 -14 6 -30q-1 -10 1 -22q1 -5 5 -10
t10 -9q6 -3 9 -2t3 6zM533 1486l10 11l130 -119v-4l-7 -7h-11l-122 101v7v11z" />
    <glyph glyph-name="Eacute" unicode="&#xc9;" horiz-adv-x="834" 
d="M681 1199v0q-6 38 -24 70q-18 33 -53 48q-41 15 -86 1q-61 -19 -114 -69t-75 -104q-14 -35 -7 -64q16 -53 103 -48q-132 -60 -241.5 -180t-145.5 -264.5t53 -276.5q41 -54 105 -70t130 -7q147 23 282 116.5t228 205.5q1 2 0 3.5t-3 -0.5q-90 -108 -227.5 -204.5
t-280.5 -116.5q-54 -7 -114.5 8t-101.5 67q-72 105 -56.5 216t89 213t176.5 179t205 115q3 1 2.5 5.5t-5.5 10.5t-10 8.5t-9 1.5q-33 -12 -66 -26q-58 -5 -81 13q-31 27 0 79.5t87 100.5t98 62q41 12 74 0q8 -4 18.5 -11.5t15.5 -14.5q7 -14 6 -30q-1 -10 1 -22q1 -5 5 -10
t10 -9q6 -3 9 -2t3 6zM630 1491v-11v-7l-117 -101h-10l-7 7v4l124 119z" />
    <glyph glyph-name="Ecircumflex" unicode="&#xca;" horiz-adv-x="834" 
d="M681 1199v0q-6 38 -24 70q-18 33 -53 48q-41 15 -86 1q-61 -19 -114 -69t-75 -104q-14 -35 -7 -64q16 -53 103 -48q-132 -60 -241.5 -180t-145.5 -264.5t53 -276.5q41 -54 105 -70t130 -7q147 23 282 116.5t228 205.5q1 2 0 3.5t-3 -0.5q-90 -108 -227.5 -204.5
t-280.5 -116.5q-54 -7 -114.5 8t-101.5 67q-72 105 -56.5 216t89 213t176.5 179t205 115q3 1 2.5 5.5t-5.5 10.5t-10 8.5t-9 1.5q-33 -12 -66 -26q-58 -5 -81 13q-31 27 0 79.5t87 100.5t98 62q41 12 74 0q8 -4 18.5 -11.5t15.5 -14.5q7 -14 6 -30q-1 -10 1 -22q1 -5 5 -10
t10 -9q6 -3 9 -2t3 6zM491 1366v-1q1 0 1.5 0.5l0.5 0.5q10 25 28.5 56.5t32.5 51.5q2 4 5 4.5t11 -3.5q30 -19 56 -51t42.5 -59t17.5 -30v0q1 -2 4.5 -1.5t6.5 2.5q4 2 5.5 4.5t1.5 4.5q-1 1 -12 19.5t-30 45t-43 50t-49 35.5q-8 3 -20 -14t-25 -41.5t-22.5 -46
t-11.5 -27.5v0z" />
    <glyph glyph-name="Edieresis" unicode="&#xcb;" horiz-adv-x="834" 
d="M681 1199v0q-6 38 -24 70q-18 33 -53 48q-41 15 -86 1q-61 -19 -114 -69t-75 -104q-14 -35 -7 -64q16 -53 103 -48q-132 -60 -241.5 -180t-145.5 -264.5t53 -276.5q41 -54 105 -70t130 -7q147 23 282 116.5t228 205.5q1 2 0 3.5t-3 -0.5q-90 -108 -227.5 -204.5
t-280.5 -116.5q-54 -7 -114.5 8t-101.5 67q-72 105 -56.5 216t89 213t176.5 179t205 115q3 1 2.5 5.5t-5.5 10.5t-10 8.5t-9 1.5q-33 -12 -66 -26q-58 -5 -81 13q-31 27 0 79.5t87 100.5t98 62q41 12 74 0q8 -4 18.5 -11.5t15.5 -14.5q7 -14 6 -30q-1 -10 1 -22q1 -5 5 -10
t10 -9q6 -3 9 -2t3 6zM551 1377v0l2 2q3 3 5 6q3 4 5.5 11t1.5 13q0 1 -1 3.5t-3.5 6t-7 5l-7.5 2.5v0q-6 1 -9 0t-6 -7q-4 -7 -6 -16t1 -16q9 -14 25 -10zM626 1370v0l2 2q3 3 5 6q3 4 5.5 11t1.5 13q0 1 -1 3.5t-3.5 6t-7 5l-7.5 2.5v0q-6 1 -9 0t-6 -7q-4 -7 -6 -16
t1 -16q9 -14 25 -10z" />
    <glyph glyph-name="Igrave" unicode="&#xcc;" horiz-adv-x="507" 
d="M199 344v0q5 26 11 54q49 235 139 597q40 177 1 259q-41 82 -137 79.5t-170 -96.5q-34 -54 -37 -118q-4 -64 21 -123q29 -69 92 -111h0.5h0.5v3.5t-1 3.5q-1 0 -1.5 0.5t-1.5 0.5h-1.5t-0.5 1q-1 0 -1 1l-1.5 1.5t-1.5 0.5h-2h-4q-49 40 -74 98q-24 58 -21 122
q3 63 37 118q33 49 89 75.5t110 17.5t81 -66q35 -74 -4 -246q-89 -360 -139 -598q-50 -237 -52 -373q0 -5 4 -10t10 -9q5 -4 9 -3.5t4 4.5q-2 123 24 239.5t117 203.5q82 81 209 86q2 1 1 3q-1 1 -2 1q-128 -6 -211 -87q-63 -60 -97 -129zM151 1486l10 11l130 -119v-4l-7 -7
h-11l-122 101v7v11z" />
    <glyph glyph-name="Iacute" unicode="&#xcd;" horiz-adv-x="507" 
d="M199 344v0q5 26 11 54q49 235 139 597q40 177 1 259q-41 82 -137 79.5t-170 -96.5q-34 -54 -37 -118q-4 -64 21 -123q29 -69 92 -111h0.5h0.5v3.5t-1 3.5q-1 0 -1.5 0.5t-1.5 0.5h-1.5t-0.5 1q-1 0 -1 1l-1.5 1.5t-1.5 0.5h-2h-4q-49 40 -74 98q-24 58 -21 122
q3 63 37 118q33 49 89 75.5t110 17.5t81 -66q35 -74 -4 -246q-89 -360 -139 -598q-50 -237 -52 -373q0 -5 4 -10t10 -9q5 -4 9 -3.5t4 4.5q-2 123 24 239.5t117 203.5q82 81 209 86q2 1 1 3q-1 1 -2 1q-128 -6 -211 -87q-63 -60 -97 -129zM261 1491v-11v-7l-117 -101h-10
l-7 7v4l124 119z" />
    <glyph glyph-name="Icircumflex" unicode="&#xce;" horiz-adv-x="507" 
d="M199 344v0q5 26 11 54q49 235 139 597q40 177 1 259q-41 82 -137 79.5t-170 -96.5q-34 -54 -37 -118q-4 -64 21 -123q29 -69 92 -111h0.5h0.5v3.5t-1 3.5q-1 0 -1.5 0.5t-1.5 0.5h-1.5t-0.5 1q-1 0 -1 1l-1.5 1.5t-1.5 0.5h-2h-4q-49 40 -74 98q-24 58 -21 122
q3 63 37 118q33 49 89 75.5t110 17.5t81 -66q35 -74 -4 -246q-89 -360 -139 -598q-50 -237 -52 -373q0 -5 4 -10t10 -9q5 -4 9 -3.5t4 4.5q-2 123 24 239.5t117 203.5q82 81 209 86q2 1 1 3q-1 1 -2 1q-128 -6 -211 -87q-63 -60 -97 -129zM115 1382v-1q1 0 1.5 0.5l0.5 0.5
q10 25 28.5 56.5t32.5 51.5q2 4 5 4.5t11 -3.5q30 -19 56 -51t42.5 -59t17.5 -30v0q1 -2 4.5 -1.5t6.5 2.5q4 2 5.5 4.5t1.5 4.5q-1 1 -12 19.5t-30 45t-43 50t-49 35.5q-8 3 -20 -14t-25 -41.5t-22.5 -46t-11.5 -27.5v0z" />
    <glyph glyph-name="Idieresis" unicode="&#xcf;" horiz-adv-x="507" 
d="M199 344v0q5 26 11 54q49 235 139 597q40 177 1 259q-41 82 -137 79.5t-170 -96.5q-34 -54 -37 -118q-4 -64 21 -123q29 -69 92 -111h0.5h0.5v3.5t-1 3.5q-1 0 -1.5 0.5t-1.5 0.5h-1.5t-0.5 1q-1 0 -1 1l-1.5 1.5t-1.5 0.5h-2h-4q-49 40 -74 98q-24 58 -21 122
q3 63 37 118q33 49 89 75.5t110 17.5t81 -66q35 -74 -4 -246q-89 -360 -139 -598q-50 -237 -52 -373q0 -5 4 -10t10 -9q5 -4 9 -3.5t4 4.5q-2 123 24 239.5t117 203.5q82 81 209 86q2 1 1 3q-1 1 -2 1q-128 -6 -211 -87q-63 -60 -97 -129zM182 1399v0l2 2q3 3 5 6
q3 4 5.5 11t1.5 13q0 1 -1 3.5t-3.5 6t-7 5l-7.5 2.5v0q-6 1 -9 0t-6 -7q-4 -7 -6 -16t1 -16q9 -14 25 -10zM257 1392v0l2 2q3 3 5 6q3 4 5.5 11t1.5 13q0 1 -1 3.5t-3.5 6t-7 5l-7.5 2.5v0q-6 1 -9 0t-6 -7q-4 -7 -6 -16t1 -16q9 -14 25 -10z" />
    <glyph glyph-name="Eth" unicode="&#xd0;" horiz-adv-x="1518" 
 />
    <glyph glyph-name="Ntilde" unicode="&#xd1;" horiz-adv-x="1554" 
d="M949 1536l7 -14l-2 -15q-34 -7 -57 32t-63 62.5t-89 -13t-101 -42.5t-76 13l-5 12v14l7 10l48 -22q39 -31 109 10q80 63 124.5 47t97.5 -94zM1021 1420v0q108 59 113 -69q3 -71 -23 -193v0q-48 -208 -95 -438t-75 -419q-25 -174 -14 -269q8 -55 35.5 -65t75.5 10
q76 34 164.5 125t169 195.5t131.5 181l53 79.5q1 2 0 3t-2 0q-2 -4 -53.5 -80t-131 -180.5t-168 -195.5t-164.5 -125q-93 -39 -93 57q0 78 24 244q28 189 75 419t95 437v0v0q26 124 23 196q-8 107 -62.5 110t-120.5 -43.5t-110 -87.5q-115 -106 -277.5 -311t-310 -408
t-217.5 -304l340 1145q2 8 -1.5 14t-10.5 8t-13 -1.5t-9 -10.5q-10 -35 -21 -55.5t-29 -45.5q-6 -8 -13 -18q-19 -30 -39 -60l-60 -88v-1t1 -1q0 -1 1 -0.5l1 0.5l142 211q-61 -205 -121 -409l-218 -734q-2 -7 1.5 -13t10.5 -9q7 -2 13 1.5t9 10.5v3q6 19 9.5 29.5t9.5 20.5
t18 27q79 114 223.5 311.5t299 391t263.5 293.5q91 80 151 111z" />
    <glyph glyph-name="Ograve" unicode="&#xd2;" horiz-adv-x="1370" 
d="M1370 557q-224 -278 -413 -310q-109 -196 -249 -317q-181 -155 -355 -150q-51 3 -97 23q-138 63 -195.5 168.5t-55 238.5t45.5 278q38 132 97 256q-5 29 -6 57q-9 147 37 287q46 139 144 245q95 99 221 141.5t249.5 12.5t211.5 -150q99 -142 116 -373q4 -70 0 -146
q-18 -255 -113 -467q-23 -54 -49 -100q182 31 411 310q2 1 2 -1t-2 -3zM702 -64v0q139 119 246 310q-186 -26 -349.5 9.5t-280.5 142t-163 293.5q-48 -108 -81 -221q-34 -120 -38 -251.5t44.5 -241.5t171.5 -168q46 -20 96 -22q173 -6 354 149zM950 250v0q28 51 52 106
q95 212 113 467q4 76 0 146q-17 230 -115 371q-87 118 -205 141q-119 23 -239 -25v0q-120 -48 -212 -145q-96 -104 -142 -242q-45 -136 -37 -279q96 189 199 311q11 12 21 24q3 3 8 1t10 -7q4 -4 6 -8q4 -5 7 -15.5t-0.5 -24t-19.5 -27.5q-19 -17 -28 -23q-6 -4 -10.5 -8
t-8.5 -11q-5 -7 -9 -14q-5 -9 -10 -16t-10 -9q-7 -2 -15 -8.5t-14 -12.5q-2 -2 -3 -4l-2 -4t-1 -1q-60 -94 -113 -205q33 -201 144 -315.5t275.5 -152.5t358.5 -10zM650 1660l10 11l130 -119v-4l-7 -7h-11l-122 101v7v11z" />
    <glyph glyph-name="Oacute" unicode="&#xd3;" horiz-adv-x="1370" 
d="M1370 557q-224 -278 -413 -310q-109 -196 -249 -317q-181 -155 -355 -150q-51 3 -97 23q-138 63 -195.5 168.5t-55 238.5t45.5 278q38 132 97 256q-5 29 -6 57q-9 147 37 287q46 139 144 245q95 99 221 141.5t249.5 12.5t211.5 -150q99 -142 116 -373q4 -70 0 -146
q-18 -255 -113 -467q-23 -54 -49 -100q182 31 411 310q2 1 2 -1t-2 -3zM702 -64v0q139 119 246 310q-186 -26 -349.5 9.5t-280.5 142t-163 293.5q-48 -108 -81 -221q-34 -120 -38 -251.5t44.5 -241.5t171.5 -168q46 -20 96 -22q173 -6 354 149zM950 250v0q28 51 52 106
q95 212 113 467q4 76 0 146q-17 230 -115 371q-87 118 -205 141q-119 23 -239 -25v0q-120 -48 -212 -145q-96 -104 -142 -242q-45 -136 -37 -279q96 189 199 311q11 12 21 24q3 3 8 1t10 -7q4 -4 6 -8q4 -5 7 -15.5t-0.5 -24t-19.5 -27.5q-19 -17 -28 -23q-6 -4 -10.5 -8
t-8.5 -11q-5 -7 -9 -14q-5 -9 -10 -16t-10 -9q-7 -2 -15 -8.5t-14 -12.5q-2 -2 -3 -4l-2 -4t-1 -1q-60 -94 -113 -205q33 -201 144 -315.5t275.5 -152.5t358.5 -10zM751 1654v-11v-7l-117 -101h-10l-7 7v4l124 119z" />
    <glyph glyph-name="Ocircumflex" unicode="&#xd4;" horiz-adv-x="1370" 
d="M1370 557q-224 -278 -413 -310q-109 -196 -249 -317q-181 -155 -355 -150q-51 3 -97 23q-138 63 -195.5 168.5t-55 238.5t45.5 278q38 132 97 256q-5 29 -6 57q-9 147 37 287q46 139 144 245q95 99 221 141.5t249.5 12.5t211.5 -150q99 -142 116 -373q4 -70 0 -146
q-18 -255 -113 -467q-23 -54 -49 -100q182 31 411 310q2 1 2 -1t-2 -3zM702 -64v0q139 119 246 310q-186 -26 -349.5 9.5t-280.5 142t-163 293.5q-48 -108 -81 -221q-34 -120 -38 -251.5t44.5 -241.5t171.5 -168q46 -20 96 -22q173 -6 354 149zM950 250v0q28 51 52 106
q95 212 113 467q4 76 0 146q-17 230 -115 371q-87 118 -205 141q-119 23 -239 -25v0q-120 -48 -212 -145q-96 -104 -142 -242q-45 -136 -37 -279q96 189 199 311q11 12 21 24q3 3 8 1t10 -7q4 -4 6 -8q4 -5 7 -15.5t-0.5 -24t-19.5 -27.5q-19 -17 -28 -23q-6 -4 -10.5 -8
t-8.5 -11q-5 -7 -9 -14q-5 -9 -10 -16t-10 -9q-7 -2 -15 -8.5t-14 -12.5q-2 -2 -3 -4l-2 -4t-1 -1q-60 -94 -113 -205q33 -201 144 -315.5t275.5 -152.5t358.5 -10zM585 1561v-1q1 0 1.5 0.5l0.5 0.5q10 25 28.5 56.5t32.5 51.5q2 4 5 4.5t11 -3.5q30 -19 56 -51t42.5 -59
t17.5 -30v0q1 -2 4.5 -1.5t6.5 2.5q4 2 5.5 4.5t1.5 4.5q-1 1 -12 19.5t-30 45t-43 50t-49 35.5q-8 3 -20 -14t-25 -41.5t-22.5 -46t-11.5 -27.5v0z" />
    <glyph glyph-name="Otilde" unicode="&#xd5;" horiz-adv-x="1370" 
d="M1370 557q-224 -278 -413 -310q-109 -196 -249 -317q-181 -155 -355 -150q-51 3 -97 23q-138 63 -195.5 168.5t-55 238.5t45.5 278q38 132 97 256q-5 29 -6 57q-9 147 37 287q46 139 144 245q95 99 221 141.5t249.5 12.5t211.5 -150q99 -142 116 -373q4 -70 0 -146
q-18 -255 -113 -467q-23 -54 -49 -100q182 31 411 310q2 1 2 -1t-2 -3zM702 -64v0q139 119 246 310q-186 -26 -349.5 9.5t-280.5 142t-163 293.5q-48 -108 -81 -221q-34 -120 -38 -251.5t44.5 -241.5t171.5 -168q46 -20 96 -22q173 -6 354 149zM950 250v0q28 51 52 106
q95 212 113 467q4 76 0 146q-17 230 -115 371q-87 118 -205 141q-119 23 -239 -25v0q-120 -48 -212 -145q-96 -104 -142 -242q-45 -136 -37 -279q96 189 199 311q11 12 21 24q3 3 8 1t10 -7q4 -4 6 -8q4 -5 7 -15.5t-0.5 -24t-19.5 -27.5q-19 -17 -28 -23q-6 -4 -10.5 -8
t-8.5 -11q-5 -7 -9 -14q-5 -9 -10 -16t-10 -9q-7 -2 -15 -8.5t-14 -12.5q-2 -2 -3 -4l-2 -4t-1 -1q-60 -94 -113 -205q33 -201 144 -315.5t275.5 -152.5t358.5 -10zM902 1561l7 -14l-2 -15q-34 -7 -57 32t-63 62.5t-89 -13t-101 -42.5t-76 13l-5 12v14l7 10l48 -22
q39 -31 109 10q80 63 124.5 47t97.5 -94z" />
    <glyph glyph-name="Odieresis" unicode="&#xd6;" horiz-adv-x="1370" 
d="M1370 557q-224 -278 -413 -310q-109 -196 -249 -317q-181 -155 -355 -150q-51 3 -97 23q-138 63 -195.5 168.5t-55 238.5t45.5 278q38 132 97 256q-5 29 -6 57q-9 147 37 287q46 139 144 245q95 99 221 141.5t249.5 12.5t211.5 -150q99 -142 116 -373q4 -70 0 -146
q-18 -255 -113 -467q-23 -54 -49 -100q182 31 411 310q2 1 2 -1t-2 -3zM702 -64v0q139 119 246 310q-186 -26 -349.5 9.5t-280.5 142t-163 293.5q-48 -108 -81 -221q-34 -120 -38 -251.5t44.5 -241.5t171.5 -168q46 -20 96 -22q173 -6 354 149zM950 250v0q28 51 52 106
q95 212 113 467q4 76 0 146q-17 230 -115 371q-87 118 -205 141q-119 23 -239 -25v0q-120 -48 -212 -145q-96 -104 -142 -242q-45 -136 -37 -279q96 189 199 311q11 12 21 24q3 3 8 1t10 -7q4 -4 6 -8q4 -5 7 -15.5t-0.5 -24t-19.5 -27.5q-19 -17 -28 -23q-6 -4 -10.5 -8
t-8.5 -11q-5 -7 -9 -14q-5 -9 -10 -16t-10 -9q-7 -2 -15 -8.5t-14 -12.5q-2 -2 -3 -4l-2 -4t-1 -1q-60 -94 -113 -205q33 -201 144 -315.5t275.5 -152.5t358.5 -10zM663 1592v0l2 2q3 3 5 6q3 4 5.5 11t1.5 13q0 1 -1 3.5t-3.5 6t-7 5l-7.5 2.5v0q-6 1 -9 0t-6 -7
q-4 -7 -6 -16t1 -16q9 -14 25 -10zM803 1585v0l2 2q3 3 5 6q3 4 5.5 11t1.5 13q0 1 -1 3.5t-3.5 6t-7 5l-7.5 2.5v0q-6 1 -9 0t-6 -7q-4 -7 -6 -16t1 -16q9 -14 25 -10z" />
    <glyph glyph-name="multiply" unicode="&#xd7;" horiz-adv-x="1115" 
d="M558 615l-272 -272l-109 109l272 272l-272 273l109 107l272 -271l272 271l108 -108l-271 -272l271 -272l-109 -109z" />
    <glyph glyph-name="Oslash" unicode="&#xd8;" horiz-adv-x="1370" 
d="M444 1073v0v0l-9 -9q-5 -7 -12 -14q-97 -115 -188 -294q-8 136 34 265q45 130 137 229q87 91 201 137t226.5 24t194.5 -134q96 -135 109 -353q7 -67 0 -137q-15 -242 -107 -443q-23 -54 -49 -101q-184 -28 -341 8.5t-262.5 145.5t-135.5 300q49 104 107 193v0.5v1v1.5
q2 1 2 3q1 1 2 3q7 6 14 12.5t14 8.5t13 11.5t12 22.5l2 4q5 6 9 9.5t11 8.5q8 5 27 20q15 14 18.5 27t0.5 22.5t-7 13.5q-3 5 -6 8q-5 5 -10 7t-7 -1zM225 661v0v0q43 -178 154.5 -279t267 -135t332.5 -9q-102 -182 -234 -294q-173 -146 -337 -141q-48 3 -90 21
q-118 54 -164 158.5t-42 229.5t37 239q30 108 76 210zM122 472v0v0q-40 -138 -42.5 -264.5t52 -226.5t186.5 -159q43 -20 92 -23q164 -6 337 143q133 113 237 297q178 28 389 319v1.5v0.5v0l-1.5 1.5l-0.5 0.5v0v0q-211 -289 -384 -318q24 46 47 97q90 200 108 444
q3 70 0 137q-17 220 -112 355q-83 114 -200.5 143t-237.5 -11.5t-211 -135.5q-92 -100 -137 -231q-42 -134 -34 -274q0 -25 4 -52q-54 -121 -92 -244zM929 1526v0v0l0.5 2t1.5 5t2.5 6t3.5 4.5t4 0.5q5 -2 8.5 -18t3 -37.5t-9.5 -40.5q-8 -22 -85.5 -236t-183.5 -507.5
t-200 -555.5q-67 -186 -109.5 -304t-44.5 -124q-3 -5 -5 -4t-1.5 10t6.5 28q9 28 100 293t209 607t209 606.5z" />
    <glyph glyph-name="Ugrave" unicode="&#xd9;" horiz-adv-x="891" 
d="M263 1191v0q-21 -44 -39.5 -74.5t-48.5 -70.5l-107 -145v-0.5t1 -1.5q0 -1 1 -1h1l147 199q-142 -302 -186 -473q-18 -65 -24.5 -140t22 -126t114.5 -42q53 5 150 78.5t223 240.5q125 165 264 445q-5 -15 -38.5 -116.5t-73.5 -241.5t-66 -271t-18.5 -205t70.5 -44
q24 13 56 48q81 91 131.5 199t50.5 110.5t-2 2.5t-3 -2q-99 -216 -180 -307q-31 -35 -56 -48q-58 -27 -53 68.5t48 257.5t99.5 334t101.5 297t53 148l2 5q2 3 -1 8.5t-9 10.5q-5 5 -10 5.5t-6 -2.5l-2 -5q-29 -73 -81 -217q-148 -303 -280 -477q-126 -167 -223 -240.5
t-149 -78.5q-78 -8 -98.5 42.5t-10 120.5t25.5 121q49 194 230 565q2 3 -1 8.5t-8 10.5q-6 5 -10.5 6t-6.5 -2zM493 1468l10 11l130 -119v-4l-7 -7h-11l-122 101v7v11z" />
    <glyph glyph-name="Uacute" unicode="&#xda;" horiz-adv-x="891" 
d="M263 1191v0q-21 -44 -39.5 -74.5t-48.5 -70.5l-107 -145v-0.5t1 -1.5q0 -1 1 -1h1l147 199q-142 -302 -186 -473q-18 -65 -24.5 -140t22 -126t114.5 -42q53 5 150 78.5t223 240.5q125 165 264 445q-5 -15 -38.5 -116.5t-73.5 -241.5t-66 -271t-18.5 -205t70.5 -44
q24 13 56 48q81 91 131.5 199t50.5 110.5t-2 2.5t-3 -2q-99 -216 -180 -307q-31 -35 -56 -48q-58 -27 -53 68.5t48 257.5t99.5 334t101.5 297t53 148l2 5q2 3 -1 8.5t-9 10.5q-5 5 -10 5.5t-6 -2.5l-2 -5q-29 -73 -81 -217q-148 -303 -280 -477q-126 -167 -223 -240.5
t-149 -78.5q-78 -8 -98.5 42.5t-10 120.5t25.5 121q49 194 230 565q2 3 -1 8.5t-8 10.5q-6 5 -10.5 6t-6.5 -2zM617 1455v-11v-7l-117 -101h-10l-7 7v4l124 119z" />
    <glyph glyph-name="Ucircumflex" unicode="&#xdb;" horiz-adv-x="891" 
d="M263 1191v0q-21 -44 -39.5 -74.5t-48.5 -70.5l-107 -145v-0.5t1 -1.5q0 -1 1 -1h1l147 199q-142 -302 -186 -473q-18 -65 -24.5 -140t22 -126t114.5 -42q53 5 150 78.5t223 240.5q125 165 264 445q-5 -15 -38.5 -116.5t-73.5 -241.5t-66 -271t-18.5 -205t70.5 -44
q24 13 56 48q81 91 131.5 199t50.5 110.5t-2 2.5t-3 -2q-99 -216 -180 -307q-31 -35 -56 -48q-58 -27 -53 68.5t48 257.5t99.5 334t101.5 297t53 148l2 5q2 3 -1 8.5t-9 10.5q-5 5 -10 5.5t-6 -2.5l-2 -5q-29 -73 -81 -217q-148 -303 -280 -477q-126 -167 -223 -240.5
t-149 -78.5q-78 -8 -98.5 42.5t-10 120.5t25.5 121q49 194 230 565q2 3 -1 8.5t-8 10.5q-6 5 -10.5 6t-6.5 -2zM478 1335v-1q1 0 1.5 0.5l0.5 0.5q10 25 28.5 56.5t32.5 51.5q2 4 5 4.5t11 -3.5q30 -19 56 -51t42.5 -59t17.5 -30v0q1 -2 4.5 -1.5t6.5 2.5q4 2 5.5 4.5
t1.5 4.5q-1 1 -12 19.5t-30 45t-43 50t-49 35.5q-8 3 -20 -14t-25 -41.5t-22.5 -46t-11.5 -27.5v0z" />
    <glyph glyph-name="Udieresis" unicode="&#xdc;" horiz-adv-x="891" 
d="M263 1191v0q-21 -44 -39.5 -74.5t-48.5 -70.5l-107 -145v-0.5t1 -1.5q0 -1 1 -1h1l147 199q-142 -302 -186 -473q-18 -65 -24.5 -140t22 -126t114.5 -42q53 5 150 78.5t223 240.5q125 165 264 445q-5 -15 -38.5 -116.5t-73.5 -241.5t-66 -271t-18.5 -205t70.5 -44
q24 13 56 48q81 91 131.5 199t50.5 110.5t-2 2.5t-3 -2q-99 -216 -180 -307q-31 -35 -56 -48q-58 -27 -53 68.5t48 257.5t99.5 334t101.5 297t53 148l2 5q2 3 -1 8.5t-9 10.5q-5 5 -10 5.5t-6 -2.5l-2 -5q-29 -73 -81 -217q-148 -303 -280 -477q-126 -167 -223 -240.5
t-149 -78.5q-78 -8 -98.5 42.5t-10 120.5t25.5 121q49 194 230 565q2 3 -1 8.5t-8 10.5q-6 5 -10.5 6t-6.5 -2zM757 1400l7 -14l-2 -15q-34 -7 -57 32t-63 62.5t-89 -13t-101 -42.5t-76 13l-5 12v14l7 10l48 -22q39 -31 109 10q80 63 124.5 47t97.5 -94z" />
    <glyph glyph-name="Yacute" unicode="&#xdd;" horiz-adv-x="878" 
d="M263 1189v0v0q-22 -44 -40.5 -74.5t-47.5 -69.5l-108 -145q0 -1 0.5 -1.5t0.5 -1.5q1 0 1.5 -0.5t0.5 0.5l147 199q-141 -303 -186 -473q-18 -65 -24.5 -140.5t22.5 -126.5t115 -42q52 5 149 79t224 241q124 165 264 444q-74 -213 -129 -426q-30 -111 -63 -223
q-107 -76 -209 -223q-60 -92 -88 -179.5t-30 -157.5q-1 -50 7 -85q4 -22 16 -45.5t34 -28.5q8 -1 15 1q31 11 72 97.5t88 217.5q71 206 135 426q106 66 177.5 86.5t73 20t1.5 1.5q0 1 -1 1h-1q-4 1 -74 -18q-70 -20 -175 -85q16 52 31 104q103 374 240 746l2 5q1 4 -2 9.5
t-8 9.5q-6 5 -10.5 6t-6.5 -2l-2 -6q-28 -73 -81 -216q-147 -303 -279 -477q-127 -167 -223.5 -240.5t-149.5 -78.5q-77 -8 -97.5 42.5t-10.5 120.5t25 121q50 193 231 565q1 3 -1.5 8t-8.5 10q-5 5 -10 6t-6 -2zM313 -262v0q-20 -4 -29 12.5t-12 33.5q-8 34 -7 82
q3 70 30.5 158t87.5 179q100 144 204 219q-57 -194 -120 -374q-46 -130 -86 -215t-68 -95zM618 1455v-11v-7l-117 -101h-10l-7 7v4l124 119z" />
    <glyph glyph-name="Thorn" unicode="&#xde;" horiz-adv-x="1120" 
 />
    <glyph glyph-name="germandbls" unicode="&#xdf;" horiz-adv-x="1251" 
 />
    <glyph glyph-name="agrave" unicode="&#xe0;" horiz-adv-x="351" 
d="M148 620v0q-36 26 -69 18q-23 -5 -44 -21q-20 -17 -37 -39q-24 -33 -36.5 -66.5t-8.5 -52.5q2 -10 10 -15t18 -5q18 0 46 25q35 32 78 94q12 -28 38 -42q46 -23 101 -7t96 41q7 3 8 3q12 4 11 7t-3 3q-1 0 -3 -1t-24 -13.5t-61.5 -28t-66 -15.5t-41.5 9q-13 8 -25 24.5
t-16 25.5q-3 5 -6.5 5t-6.5 -2q-1 -2 -2 -2.5t-1 -2.5q-1 0 -2 -2q-42 -61 -77 -93q-19 -17 -33 -23q-5 -2 -8 -2t-4 6q-2 17 10.5 46.5t34.5 59.5q16 22 35 37q20 16 41 21q12 2 25 0q2 -1 5.5 -2t5.5 -3l2 -2v0q1 -1 1 -2v-2t1 -2q1 -2 3 -3.5t3 -1.5q5 -3 8 -1.5t5 5.5
q2 7 -2 12.5t-9 9.5zM52 790l10 11l130 -119v-4l-7 -7h-11l-122 101v7v11z" />
    <glyph glyph-name="aacute" unicode="&#xe1;" horiz-adv-x="351" 
d="M148 620v0q-36 26 -69 18q-23 -5 -44 -21q-20 -17 -37 -39q-24 -33 -36.5 -66.5t-8.5 -52.5q2 -10 10 -15t18 -5q18 0 46 25q35 32 78 94q12 -28 38 -42q46 -23 101 -7t96 41q7 3 8 3q12 4 11 7t-3 3q-1 0 -3 -1t-24 -13.5t-61.5 -28t-66 -15.5t-41.5 9q-13 8 -25 24.5
t-16 25.5q-3 5 -6.5 5t-6.5 -2q-1 -2 -2 -2.5t-1 -2.5q-1 0 -2 -2q-42 -61 -77 -93q-19 -17 -33 -23q-5 -2 -8 -2t-4 6q-2 17 10.5 46.5t34.5 59.5q16 22 35 37q20 16 41 21q12 2 25 0q2 -1 5.5 -2t5.5 -3l2 -2v0q1 -1 1 -2v-2t1 -2q1 -2 3 -3.5t3 -1.5q5 -3 8 -1.5t5 5.5
q2 7 -2 12.5t-9 9.5zM141 797v-11v-7l-117 -101h-10l-7 7v4l124 119z" />
    <glyph glyph-name="acircumflex" unicode="&#xe2;" horiz-adv-x="351" 
d="M148 620v0q-36 26 -69 18q-23 -5 -44 -21q-20 -17 -37 -39q-24 -33 -36.5 -66.5t-8.5 -52.5q2 -10 10 -15t18 -5q18 0 46 25q35 32 78 94q12 -28 38 -42q46 -23 101 -7t96 41q7 3 8 3q12 4 11 7t-3 3q-1 0 -3 -1t-24 -13.5t-61.5 -28t-66 -15.5t-41.5 9q-13 8 -25 24.5
t-16 25.5q-3 5 -6.5 5t-6.5 -2q-1 -2 -2 -2.5t-1 -2.5q-1 0 -2 -2q-42 -61 -77 -93q-19 -17 -33 -23q-5 -2 -8 -2t-4 6q-2 17 10.5 46.5t34.5 59.5q16 22 35 37q20 16 41 21q12 2 25 0q2 -1 5.5 -2t5.5 -3l2 -2v0q1 -1 1 -2v-2t1 -2q1 -2 3 -3.5t3 -1.5q5 -3 8 -1.5t5 5.5
q2 7 -2 12.5t-9 9.5zM-10 711v-1q1 0 1.5 0.5l0.5 0.5q10 25 28.5 56.5t32.5 51.5q2 4 5 4.5t11 -3.5q30 -19 56 -51t42.5 -59t17.5 -30v0q1 -2 4.5 -1.5t6.5 2.5q4 2 5.5 4.5t1.5 4.5q-1 1 -12 19.5t-30 45t-43 50t-49 35.5q-8 3 -20 -14t-25 -41.5t-22.5 -46t-11.5 -27.5
v0z" />
    <glyph glyph-name="atilde" unicode="&#xe3;" horiz-adv-x="351" 
d="M148 620v0q-36 26 -69 18q-23 -5 -44 -21q-20 -17 -37 -39q-24 -33 -36.5 -66.5t-8.5 -52.5q2 -10 10 -15t18 -5q18 0 46 25q35 32 78 94q12 -28 38 -42q46 -23 101 -7t96 41q7 3 8 3q12 4 11 7t-3 3q-1 0 -3 -1t-24 -13.5t-61.5 -28t-66 -15.5t-41.5 9q-13 8 -25 24.5
t-16 25.5q-3 5 -6.5 5t-6.5 -2q-1 -2 -2 -2.5t-1 -2.5q-1 0 -2 -2q-42 -61 -77 -93q-19 -17 -33 -23q-5 -2 -8 -2t-4 6q-2 17 10.5 46.5t34.5 59.5q16 22 35 37q20 16 41 21q12 2 25 0q2 -1 5.5 -2t5.5 -3l2 -2v0q1 -1 1 -2v-2t1 -2q1 -2 3 -3.5t3 -1.5q5 -3 8 -1.5t5 5.5
q2 7 -2 12.5t-9 9.5zM208 695l4 -9l-1 -8q-20 -4 -33.5 18.5t-36.5 36t-52 -7.5t-59 -24.5t-44 7.5l-3 7v8l4 6l28 -13q23 -18 64 6q46 36 72 27t57 -54z" />
    <glyph glyph-name="adieresis" unicode="&#xe4;" horiz-adv-x="351" 
d="M148 620v0q-36 26 -69 18q-23 -5 -44 -21q-20 -17 -37 -39q-24 -33 -36.5 -66.5t-8.5 -52.5q2 -10 10 -15t18 -5q18 0 46 25q35 32 78 94q12 -28 38 -42q46 -23 101 -7t96 41q7 3 8 3q12 4 11 7t-3 3q-1 0 -3 -1t-24 -13.5t-61.5 -28t-66 -15.5t-41.5 9q-13 8 -25 24.5
t-16 25.5q-3 5 -6.5 5t-6.5 -2q-1 -2 -2 -2.5t-1 -2.5q-1 0 -2 -2q-42 -61 -77 -93q-19 -17 -33 -23q-5 -2 -8 -2t-4 6q-2 17 10.5 46.5t34.5 59.5q16 22 35 37q20 16 41 21q12 2 25 0q2 -1 5.5 -2t5.5 -3l2 -2v0q1 -1 1 -2v-2t1 -2q1 -2 3 -3.5t3 -1.5q5 -3 8 -1.5t5 5.5
q2 7 -2 12.5t-9 9.5zM81 695v0l2 2q3 3 5 6q3 4 5.5 11t1.5 13q0 1 -1 3.5t-3.5 6t-7 5l-7.5 2.5v0q-6 1 -9 0t-6 -7q-4 -7 -6 -16t1 -16q9 -14 25 -10zM156 688v0l2 2q3 3 5 6q3 4 5.5 11t1.5 13q0 1 -1 3.5t-3.5 6t-7 5l-7.5 2.5v0q-6 1 -9 0t-6 -7q-4 -7 -6 -16t1 -16
q9 -14 25 -10z" />
    <glyph glyph-name="aring" unicode="&#xe5;" horiz-adv-x="351" 
d="M148 620v0q-36 26 -69 18q-23 -5 -44 -21q-20 -17 -37 -39q-24 -33 -36.5 -66.5t-8.5 -52.5q2 -10 10 -15t18 -5q18 0 46 25q35 32 78 94q12 -28 38 -42q46 -23 101 -7t96 41q7 3 8 3q12 4 11 7t-3 3q-1 0 -3 -1t-24 -13.5t-61.5 -28t-66 -15.5t-41.5 9q-13 8 -25 24.5
t-16 25.5q-3 5 -6.5 5t-6.5 -2q-1 -2 -2 -2.5t-1 -2.5q-1 0 -2 -2q-42 -61 -77 -93q-19 -17 -33 -23q-5 -2 -8 -2t-4 6q-2 17 10.5 46.5t34.5 59.5q16 22 35 37q20 16 41 21q12 2 25 0q2 -1 5.5 -2t5.5 -3l2 -2v0q1 -1 1 -2v-2t1 -2q1 -2 3 -3.5t3 -1.5q5 -3 8 -1.5t5 5.5
q2 7 -2 12.5t-9 9.5zM93 785v0v0q10 0 15.5 -5.5t7.5 -9.5q6 -13 2 -31q-5 -21 -20 -35l-1 -1v0q-11 -12 -27 -15.5t-26 10.5q-7 11 -6 28l2 8q5 22 20 36q16 15 33 15zM128 731v0q5 22 -3.5 39t-32.5 17q-18 0 -34 -15q-15 -14 -20 -36q-1 -5 -2 -9q-1 -17 7 -29
q5 -9 14 -13l3.5 -1t9 -2t11.5 -1t12 3q7 4 14 10q15 15 21 37z" />
    <glyph glyph-name="ae" unicode="&#xe6;" horiz-adv-x="463" 
d="M118 616v0v0q7 0 10 4t3 8.5t-4 6.5v0q-25 11 -44 6q-22 -5 -41 -20q-20 -16 -36 -36q-22 -30 -34 -61.5t-9 -49.5q3 -10 10 -14.5t17 -4.5q9 -1 20 5.5t23 17.5q33 29 73 87q6 -12 15 -24q1 0 1 -1q2 0 3.5 -1t2.5 -3h1v-1.5v-1v-1.5q-3 -30 4 -54q6 -19 19 -34t33 -20
q28 -7 55 1t50 22q65 34 119 71q19 13 39 26q3 2 5 2h4q1 0 3 0.5t5 1.5q4 2 6 5.5t2 7.5t-2 4q-2 1 -7 -2t-10 -7q-4 -3 -6 -4q-3 -2 -7 -5q-22 -17 -57 -41.5t-74.5 -46.5t-75 -31.5t-58.5 4.5q-16 14 -20 37t-2 44q0 6 2 16t4 17q1 1 4 3q10 6 30.5 20t37 31.5t15.5 34.5
q0 19 -21 29q-9 4 -21 -2q-24 -14 -45 -46.5t-29 -63.5q-4 7 -7 12q-2 4 -4 7q-6 9 -12 2l-1.5 -1.5l-1 -1l-1.5 -1.5q-41 -59 -73 -89q-19 -15 -31 -21q-2 0 -3 -1q-4 -1 -6 -0.5t-3 5.5q-2 17 10.5 44t32.5 56q14 19 33 35q17 12 38 18h8h8zM228 639v0v0q2 2 6 2h7
q2 -18 -11 -34.5t-31 -29.5t-32 -21q-3 -2 -5 -4q8 22 26.5 48.5t39.5 38.5z" />
    <glyph glyph-name="ccedilla" unicode="&#xe7;" horiz-adv-x="290" 
d="M92 485v0v0v-3q-1 -4 -2 -9q-1 -3 -2 -7q-33 -6 -55 -3q-17 4 -22 19.5t-1 36.5q5 29 21 57q15 29 33 43q1 1 2 1q4 2 8.5 4.5t8.5 2.5q3 -1 4 -2.5t1 -4.5q0 -2 1 -4t4 -3q5 -2 10 1q1 8 -4 15q-8 14 -20 20.5t-28 2.5q-11 -4 -22 -15t-21 -27q-14 -24 -22 -57t1 -60.5
t45 -35.5q24 -3 54 2q-2 -7 -3 -11.5l-1 -4.5q-1 -1 0.5 -3.5t4.5 -4.5q2 -2 3.5 -2.5t2.5 0.5q8 5 23.5 6.5t23.5 0.5q11 -1 18.5 -5t9.5 -15q1 -18 -16 -32t-42.5 -24.5t-50.5 -19.5v0q-6 -2 -13 -5q-2 0 -1 -2t3 -5q2 -2 4 -3.5t4 -0.5t5 2l8 2q3 2 7 3q17 5 38.5 14
t40 21.5t24.5 29.5q4 15 -3.5 25t-20.5 15q-15 4 -32 3.5t-28 -2.5q1 4 3 9q1 6 3 13q36 10 72.5 28.5t88.5 51.5q14 9 25 11.5t12 6.5q0 1 -0.5 3t-1.5 4t-17 -8q-7 -4 -14 -9q-55 -39 -117 -65q-25 -10 -46 -16q1 6 3 11v2h1v3v3t-1.5 3.5t-3.5 4.5q-3 2 -4.5 2t-1.5 -1
t-1 -4t-2 -7v-2h-1v0z" />
    <glyph glyph-name="egrave" unicode="&#xe8;" horiz-adv-x="338" 
d="M110 654v0v0q-4 21 -22 30q-11 6 -23 0q-31 -19 -55.5 -62.5t-27.5 -79.5q-2 -30 6 -55q13 -45 55 -60q25 -7 56.5 -1t57.5 20q63 33 120 72q23 16 48 32q3 2 12.5 5t11.5 6.5t2.5 7.5t-2.5 5q-2 0 -5.5 -2t-13.5 -9.5t-17 -12.5q-33 -25 -93 -64t-92 -49t-54.5 -9.5
t-38.5 9.5q-18 14 -23 39t-3 47q1 8 3 18t5 19l1 1q7 3 29.5 18t42.5 34t20 41zM88 658v0q4 2 8.5 2.5t5.5 -3.5q2 -26 -24 -48.5t-41 -31.5t-18 -11q9 23 28.5 51t40.5 41zM21 831l10 11l130 -119v-4l-7 -7h-11l-122 101v7v11z" />
    <glyph glyph-name="eacute" unicode="&#xe9;" horiz-adv-x="338" 
d="M110 654v0v0q-4 21 -22 30q-11 6 -23 0q-31 -19 -55.5 -62.5t-27.5 -79.5q-2 -30 6 -55q13 -45 55 -60q25 -7 56.5 -1t57.5 20q63 33 120 72q23 16 48 32q3 2 12.5 5t11.5 6.5t2.5 7.5t-2.5 5q-2 0 -5.5 -2t-13.5 -9.5t-17 -12.5q-33 -25 -93 -64t-92 -49t-54.5 -9.5
t-38.5 9.5q-18 14 -23 39t-3 47q1 8 3 18t5 19l1 1q7 3 29.5 18t42.5 34t20 41zM88 658v0q4 2 8.5 2.5t5.5 -3.5q2 -26 -24 -48.5t-41 -31.5t-18 -11q9 23 28.5 51t40.5 41zM141 828v-11v-7l-117 -101h-10l-7 7v4l124 119z" />
    <glyph glyph-name="ecircumflex" unicode="&#xea;" horiz-adv-x="338" 
d="M110 654v0v0q-4 21 -22 30q-11 6 -23 0q-31 -19 -55.5 -62.5t-27.5 -79.5q-2 -30 6 -55q13 -45 55 -60q25 -7 56.5 -1t57.5 20q63 33 120 72q23 16 48 32q3 2 12.5 5t11.5 6.5t2.5 7.5t-2.5 5q-2 0 -5.5 -2t-13.5 -9.5t-17 -12.5q-33 -25 -93 -64t-92 -49t-54.5 -9.5
t-38.5 9.5q-18 14 -23 39t-3 47q1 8 3 18t5 19l1 1q7 3 29.5 18t42.5 34t20 41zM88 658v0q4 2 8.5 2.5t5.5 -3.5q2 -26 -24 -48.5t-41 -31.5t-18 -11q9 23 28.5 51t40.5 41zM-10 711v-1q1 0 1.5 0.5l0.5 0.5q10 25 28.5 56.5t32.5 51.5q2 4 5 4.5t11 -3.5q30 -19 56 -51
t42.5 -59t17.5 -30v0q1 -2 4.5 -1.5t6.5 2.5q4 2 5.5 4.5t1.5 4.5q-1 1 -12 19.5t-30 45t-43 50t-49 35.5q-8 3 -20 -14t-25 -41.5t-22.5 -46t-11.5 -27.5v0z" />
    <glyph glyph-name="edieresis" unicode="&#xeb;" horiz-adv-x="338" 
d="M110 654v0v0q-4 21 -22 30q-11 6 -23 0q-31 -19 -55.5 -62.5t-27.5 -79.5q-2 -30 6 -55q13 -45 55 -60q25 -7 56.5 -1t57.5 20q63 33 120 72q23 16 48 32q3 2 12.5 5t11.5 6.5t2.5 7.5t-2.5 5q-2 0 -5.5 -2t-13.5 -9.5t-17 -12.5q-33 -25 -93 -64t-92 -49t-54.5 -9.5
t-38.5 9.5q-18 14 -23 39t-3 47q1 8 3 18t5 19l1 1q7 3 29.5 18t42.5 34t20 41zM88 658v0q4 2 8.5 2.5t5.5 -3.5q2 -26 -24 -48.5t-41 -31.5t-18 -11q9 23 28.5 51t40.5 41zM43 733v0l2 2q3 3 5 6q3 4 5.5 11t1.5 13q0 1 -1 3.5t-3.5 6t-7 5l-7.5 2.5v0q-6 1 -9 0t-6 -7
q-4 -7 -6 -16t1 -16q9 -14 25 -10zM118 726v0l2 2q3 3 5 6q3 4 5.5 11t1.5 13q0 1 -1 3.5t-3.5 6t-7 5l-7.5 2.5v0q-6 1 -9 0t-6 -7q-4 -7 -6 -16t1 -16q9 -14 25 -10z" />
    <glyph glyph-name="igrave" unicode="&#xec;" horiz-adv-x="238" 
d="M39 621v0q3 8 -2 18q-6 5 -18 5t-15 -8q-14 -53 -20 -107q-5 -42 6.5 -81.5t60.5 -45.5q51 1 96.5 42.5t85.5 102.5q9 8 9 12t-2 3q-3 -3 -9 -14q-33 -52 -80 -97t-101 -45q-23 1 -31 24.5t-7 56.5q1 27 5 54q2 11 4.5 23t17.5 57zM58 671v0l2 2q3 3 5 6q3 4 5.5 11
t1.5 13q0 1 -1 3.5t-3.5 6t-7 5l-7.5 2.5v0q-6 1 -9 0t-6 -7q-4 -7 -6 -16t1 -16q9 -14 25 -10zM21 831l10 11l130 -119v-4l-7 -7h-11l-122 101v7v11z" />
    <glyph glyph-name="iacute" unicode="&#xed;" horiz-adv-x="238" 
d="M39 621v0q3 8 -2 18q-6 5 -18 5t-15 -8q-14 -53 -20 -107q-5 -42 6.5 -81.5t60.5 -45.5q51 1 96.5 42.5t85.5 102.5q9 8 9 12t-2 3q-3 -3 -9 -14q-33 -52 -80 -97t-101 -45q-23 1 -31 24.5t-7 56.5q1 27 5 54q2 11 4.5 23t17.5 57zM58 671v0l2 2q3 3 5 6q3 4 5.5 11
t1.5 13q0 1 -1 3.5t-3.5 6t-7 5l-7.5 2.5v0q-6 1 -9 0t-6 -7q-4 -7 -6 -16t1 -16q9 -14 25 -10zM125 862v-11v-7l-117 -101h-10l-7 7v4l124 119z" />
    <glyph glyph-name="icircumflex" unicode="&#xee;" horiz-adv-x="238" 
d="M39 621v0q3 8 -2 18q-6 5 -18 5t-15 -8q-14 -53 -20 -107q-5 -42 6.5 -81.5t60.5 -45.5q51 1 96.5 42.5t85.5 102.5q9 8 9 12t-2 3q-3 -3 -9 -14q-33 -52 -80 -97t-101 -45q-23 1 -31 24.5t-7 56.5q1 27 5 54q2 11 4.5 23t17.5 57zM58 671v0l2 2q3 3 5 6q3 4 5.5 11
t1.5 13q0 1 -1 3.5t-3.5 6t-7 5l-7.5 2.5v0q-6 1 -9 0t-6 -7q-4 -7 -6 -16t1 -16q9 -14 25 -10zM-23 720v-1q1 0 1.5 0.5l0.5 0.5q10 25 28.5 56.5t32.5 51.5q2 4 5 4.5t11 -3.5q30 -19 56 -51t42.5 -59t17.5 -30v0q1 -2 4.5 -1.5t6.5 2.5q4 2 5.5 4.5t1.5 4.5
q-1 1 -12 19.5t-30 45t-43 50t-49 35.5q-8 3 -20 -14t-25 -41.5t-22.5 -46t-11.5 -27.5v0z" />
    <glyph glyph-name="idieresis" unicode="&#xef;" horiz-adv-x="238" 
d="M39 621v0q3 8 -2 18q-6 5 -18 5t-15 -8q-14 -53 -20 -107q-5 -42 6.5 -81.5t60.5 -45.5q51 1 96.5 42.5t85.5 102.5q9 8 9 12t-2 3q-3 -3 -9 -14q-33 -52 -80 -97t-101 -45q-23 1 -31 24.5t-7 56.5q1 27 5 54q2 11 4.5 23t17.5 57zM58 671v0l2 2q3 3 5 6q3 4 5.5 11
t1.5 13q0 1 -1 3.5t-3.5 6t-7 5l-7.5 2.5v0q-6 1 -9 0t-6 -7q-4 -7 -6 -16t1 -16q9 -14 25 -10zM34 793v0l2 2q3 3 5 6q3 4 5.5 11t1.5 13q0 1 -1 3.5t-3.5 6t-7 5l-7.5 2.5v0q-6 1 -9 0t-6 -7q-4 -7 -6 -16t1 -16q9 -14 25 -10zM109 786v0l2 2q3 3 5 6q3 4 5.5 11t1.5 13
q0 1 -1 3.5t-3.5 6t-7 5l-7.5 2.5v0q-6 1 -9 0t-6 -7q-4 -7 -6 -16t1 -16q9 -14 25 -10z" />
    <glyph glyph-name="eth" unicode="&#xf0;" horiz-adv-x="1139" 
 />
    <glyph glyph-name="ntilde" unicode="&#xf1;" horiz-adv-x="404" 
d="M-13 437v0q2 -1 5 -1.5t4 2.5q7 10 26.5 38t43.5 55.5t42 34.5q3 0 5.5 -11.5t4.5 -27t3 -28.5q1 -6 1 -10l2 -10q2 -41 14.5 -91t46.5 -67q4 -2 10.5 -2.5t11.5 0.5q33 6 74 45.5t74.5 87.5t43.5 78q16 30 11 37q-1 1 -1.5 2t-1.5 1t-1 -2q-4 -16 -6 -23
q-10 -32 -43.5 -82t-75 -91.5t-75.5 -49.5q-5 -1 -11 0t-9 4q-12 10 -19.5 36t-11 54.5t-5.5 46.5q-1 5 -1 9v6q-1 13 -4 35.5t-11 40t-25 16.5q-16 -4 -38.5 -28t-43 -52t-30.5 -43q5 43 15 84.5t18 69.5t10 32v1q1 3 -2 8.5t-9 9.5q-5 5 -9.5 6t-5.5 -2
q-8 -23 -17.5 -71.5t-14 -93t4.5 -54.5zM206 711l4 -9l-1 -8q-20 -4 -33.5 18.5t-36.5 36t-52 -7.5t-59 -24.5t-44 7.5l-3 7v8l4 6l28 -13q23 -18 64 6q46 36 72 27t57 -54z" />
    <glyph glyph-name="ograve" unicode="&#xf2;" horiz-adv-x="315" 
d="M51 658v0q-3 -2 -7.5 -5.5t-7.5 -6.5q-25 -25 -39 -61.5t-22 -70.5q-8 -30 -6 -61t35 -44q13 -4 27 4q17 9 32 33q18 28 29.5 71.5t-3.5 72.5l10 -6q15 -9 35 -17q39 -14 84.5 -19t79.5 4q25 4 25 9q-2 3 -18 -3q-42 -13 -96 -6.5t-92 24.5q-17 9 -32 19q-1 1 -2 1v-1.5
t1 -0.5q7 -9 9 -20t1 -22q-1 -25 -11 -53.5t-23 -49.5q-15 -24 -32 -33q-11 -7 -22 -4q-11 4 -13 20t0.5 33.5t4.5 25.5q12 58 43 108q1 2 6 6q34 24 30 31q-3 8 -7 12q-5 6 -10 8.5t-9 1.5zM-1 827l10 11l130 -119v-4l-7 -7h-11l-122 101v7v11z" />
    <glyph glyph-name="oacute" unicode="&#xf3;" horiz-adv-x="315" 
d="M51 658v0q-3 -2 -7.5 -5.5t-7.5 -6.5q-25 -25 -39 -61.5t-22 -70.5q-8 -30 -6 -61t35 -44q13 -4 27 4q17 9 32 33q18 28 29.5 71.5t-3.5 72.5l10 -6q15 -9 35 -17q39 -14 84.5 -19t79.5 4q25 4 25 9q-2 3 -18 -3q-42 -13 -96 -6.5t-92 24.5q-17 9 -32 19q-1 1 -2 1v-1.5
t1 -0.5q7 -9 9 -20t1 -22q-1 -25 -11 -53.5t-23 -49.5q-15 -24 -32 -33q-11 -7 -22 -4q-11 4 -13 20t0.5 33.5t4.5 25.5q12 58 43 108q1 2 6 6q34 24 30 31q-3 8 -7 12q-5 6 -10 8.5t-9 1.5zM121 813v-11v-7l-117 -101h-10l-7 7v4l124 119z" />
    <glyph glyph-name="ocircumflex" unicode="&#xf4;" horiz-adv-x="315" 
d="M51 658v0q-3 -2 -7.5 -5.5t-7.5 -6.5q-25 -25 -39 -61.5t-22 -70.5q-8 -30 -6 -61t35 -44q13 -4 27 4q17 9 32 33q18 28 29.5 71.5t-3.5 72.5l10 -6q15 -9 35 -17q39 -14 84.5 -19t79.5 4q25 4 25 9q-2 3 -18 -3q-42 -13 -96 -6.5t-92 24.5q-17 9 -32 19q-1 1 -2 1v-1.5
t1 -0.5q7 -9 9 -20t1 -22q-1 -25 -11 -53.5t-23 -49.5q-15 -24 -32 -33q-11 -7 -22 -4q-11 4 -13 20t0.5 33.5t4.5 25.5q12 58 43 108q1 2 6 6q34 24 30 31q-3 8 -7 12q-5 6 -10 8.5t-9 1.5zM-23 720v-1q1 0 1.5 0.5l0.5 0.5q10 25 28.5 56.5t32.5 51.5q2 4 5 4.5t11 -3.5
q30 -19 56 -51t42.5 -59t17.5 -30v0q1 -2 4.5 -1.5t6.5 2.5q4 2 5.5 4.5t1.5 4.5q-1 1 -12 19.5t-30 45t-43 50t-49 35.5q-8 3 -20 -14t-25 -41.5t-22.5 -46t-11.5 -27.5v0z" />
    <glyph glyph-name="otilde" unicode="&#xf5;" horiz-adv-x="315" 
d="M51 658v0q-3 -2 -7.5 -5.5t-7.5 -6.5q-25 -25 -39 -61.5t-22 -70.5q-8 -30 -6 -61t35 -44q13 -4 27 4q17 9 32 33q18 28 29.5 71.5t-3.5 72.5l10 -6q15 -9 35 -17q39 -14 84.5 -19t79.5 4q25 4 25 9q-2 3 -18 -3q-42 -13 -96 -6.5t-92 24.5q-17 9 -32 19q-1 1 -2 1v-1.5
t1 -0.5q7 -9 9 -20t1 -22q-1 -25 -11 -53.5t-23 -49.5q-15 -24 -32 -33q-11 -7 -22 -4q-11 4 -13 20t0.5 33.5t4.5 25.5q12 58 43 108q1 2 6 6q34 24 30 31q-3 8 -7 12q-5 6 -10 8.5t-9 1.5zM186 711l4 -9l-1 -8q-20 -4 -33.5 18.5t-36.5 36t-52 -7.5t-59 -24.5t-44 7.5
l-3 7v8l4 6l28 -13q23 -18 64 6q46 36 72 27t57 -54z" />
    <glyph glyph-name="odieresis" unicode="&#xf6;" horiz-adv-x="315" 
d="M51 658v0q-3 -2 -7.5 -5.5t-7.5 -6.5q-25 -25 -39 -61.5t-22 -70.5q-8 -30 -6 -61t35 -44q13 -4 27 4q17 9 32 33q18 28 29.5 71.5t-3.5 72.5l10 -6q15 -9 35 -17q39 -14 84.5 -19t79.5 4q25 4 25 9q-2 3 -18 -3q-42 -13 -96 -6.5t-92 24.5q-17 9 -32 19q-1 1 -2 1v-1.5
t1 -0.5q7 -9 9 -20t1 -22q-1 -25 -11 -53.5t-23 -49.5q-15 -24 -32 -33q-11 -7 -22 -4q-11 4 -13 20t0.5 33.5t4.5 25.5q12 58 43 108q1 2 6 6q34 24 30 31q-3 8 -7 12q-5 6 -10 8.5t-9 1.5zM36 726v0l2 2q3 3 5 6q3 4 5.5 11t1.5 13q0 1 -1 3.5t-3.5 6t-7 5l-7.5 2.5v0
q-6 1 -9 0t-6 -7q-4 -7 -6 -16t1 -16q9 -14 25 -10zM111 719v0l2 2q3 3 5 6q3 4 5.5 11t1.5 13q0 1 -1 3.5t-3.5 6t-7 5l-7.5 2.5v0q-6 1 -9 0t-6 -7q-4 -7 -6 -16t1 -16q9 -14 25 -10z" />
    <glyph glyph-name="divide" unicode="&#xf7;" horiz-adv-x="383" 
d="M158 461v0v0q-2 -5 -3.5 -8t-2.5 -6t-3 -6q-1 -2 -2 -5q-1 -4 2 -10t10 -12t12.5 -7t7.5 3q1 4 2 6l2 4q0 1 1 1q1 3 2 5.5l3 7.5t-1.5 11t-10.5 12q-7 5 -12.5 6t-6.5 -2zM170 707v0q-2 -4 -3 -7t-3 -6q-2 -5 -4 -11q-2 -4 1.5 -10t9.5 -12q7 -6 12.5 -7t7.5 2q2 5 3 8
q1 1 2 3q1 3 2.5 6t3.5 8q1 4 -2.5 10.5t-10.5 12.5q-6 5 -11.5 6t-7.5 -3zM45 544l-6 3q0 6 3 13q164 9 192 12q88 10 91 8q17 -16 -2 -25q-62 -5 -84 -5z" />
    <glyph glyph-name="oslash" unicode="&#xf8;" horiz-adv-x="339" 
d="M40 652q-27 -26 -42 -65.5t-24 -76.5q-5 -19 -7 -41.5t6 -41.5t32 -27h2h2h1l-5 -29q-1 -2 -1 -3t1 -1h2l3 4l5 26q10 0 18 5q22 12 36 38q12 18 23 46.5t13.5 57.5t-8.5 49q2 -2 5 -4q22 -14 42 -22q42 -14 90 -19.5t71 0.5t24 6h2t9 1q2 0 3.5 1.5t1.5 3.5q0 3 -1.5 3
t-5 -1t-6.5 -2q-2 -1 -6 -2q-45 -14 -102 -7t-98 26q-8 5 -17 10t-17 11q-2 0 -2 -3q9 -9 10.5 -20.5t1.5 -23.5q-2 -26 -12.5 -56.5t-23.5 -52.5q-17 -25 -35 -35q-7 -5 -14 -5l52 222q2 0 3.5 0.5t1.5 3.5q1 2 2.5 3t2.5 1h2t2 1q1 6 -0.5 10t-4.5 8q-1 2 -2 3l14 54
l-0.5 1l-1 2t-1.5 1.5t-2 0.5t-2 -0.5t-2.5 -3t-2.5 -8.5q0 -1 -3 -13q-2 -10 -6 -27q-4 2 -7 3t-11.5 -4t-10.5 -8zM59 616v0v0q-12 -61 -28 -127q-12 -53 -19 -87h-1.5h-1h-2.5q-10 4 -12.5 18.5t-1 32t3.5 28.5q1 4 1 6q7 29 18.5 58.5t28.5 56.5v0q2 2 4 5q1 3 5 5.5
t5 3.5v0z" />
    <glyph glyph-name="ugrave" unicode="&#xf9;" horiz-adv-x="412" 
d="M60 632v0q1 4 1 8q-1 6 -4.5 9.5t-9.5 6.5q-1 1 -4.5 2t-6.5 2t-5 0t-7.5 -10.5t-10.5 -19.5t-7 -13q-17 -35 -24 -71q-7 -48 35 -67q33 -9 61 9t48 43q-6 -43 5.5 -86t61.5 -49q45 2 87.5 30t92.5 80q32 37 38.5 41.5t9.5 11.5q0 4 -4.5 4.5t-6.5 -3.5q-38 -55 -98 -106
t-120 -55q-28 4 -35 32t-6 52q1 21 4 42v1q2 11 4.5 22.5t6.5 21.5t5.5 16.5t0.5 12.5q-1 5 -5.5 10.5t-10.5 8.5t-10 0q-5 -3 -8.5 -16.5t-6 -29t-3.5 -23.5v-2q-17 -22 -46 -45.5t-58 -15.5q-12 4 -14 18t3 33l6 20q5 15 11.5 30.5t16.5 27.5q4 5 7 8.5t6 8.5zM46 811
l10 11l130 -119v-4l-7 -7h-11l-122 101v7v11z" />
    <glyph glyph-name="uacute" unicode="&#xfa;" horiz-adv-x="412" 
d="M60 632v0q1 4 1 8q-1 6 -4.5 9.5t-9.5 6.5q-1 1 -4.5 2t-6.5 2t-5 0t-7.5 -10.5t-10.5 -19.5t-7 -13q-17 -35 -24 -71q-7 -48 35 -67q33 -9 61 9t48 43q-6 -43 5.5 -86t61.5 -49q45 2 87.5 30t92.5 80q32 37 38.5 41.5t9.5 11.5q0 4 -4.5 4.5t-6.5 -3.5q-38 -55 -98 -106
t-120 -55q-28 4 -35 32t-6 52q1 21 4 42v1q2 11 4.5 22.5t6.5 21.5t5.5 16.5t0.5 12.5q-1 5 -5.5 10.5t-10.5 8.5t-10 0q-5 -3 -8.5 -16.5t-6 -29t-3.5 -23.5v-2q-17 -22 -46 -45.5t-58 -15.5q-12 4 -14 18t3 33l6 20q5 15 11.5 30.5t16.5 27.5q4 5 7 8.5t6 8.5zM159 829
v-11v-7l-117 -101h-10l-7 7v4l124 119z" />
    <glyph glyph-name="ucircumflex" unicode="&#xfb;" horiz-adv-x="412" 
d="M60 632v0q1 4 1 8q-1 6 -4.5 9.5t-9.5 6.5q-1 1 -4.5 2t-6.5 2t-5 0t-7.5 -10.5t-10.5 -19.5t-7 -13q-17 -35 -24 -71q-7 -48 35 -67q33 -9 61 9t48 43q-6 -43 5.5 -86t61.5 -49q45 2 87.5 30t92.5 80q32 37 38.5 41.5t9.5 11.5q0 4 -4.5 4.5t-6.5 -3.5q-38 -55 -98 -106
t-120 -55q-28 4 -35 32t-6 52q1 21 4 42v1q2 11 4.5 22.5t6.5 21.5t5.5 16.5t0.5 12.5q-1 5 -5.5 10.5t-10.5 8.5t-10 0q-5 -3 -8.5 -16.5t-6 -29t-3.5 -23.5v-2q-17 -22 -46 -45.5t-58 -15.5q-12 4 -14 18t3 33l6 20q5 15 11.5 30.5t16.5 27.5q4 5 7 8.5t6 8.5zM6 718v-1
q1 0 1.5 0.5l0.5 0.5q10 25 28.5 56.5t32.5 51.5q2 4 5 4.5t11 -3.5q30 -19 56 -51t42.5 -59t17.5 -30v0q1 -2 4.5 -1.5t6.5 2.5q4 2 5.5 4.5t1.5 4.5q-1 1 -12 19.5t-30 45t-43 50t-49 35.5q-8 3 -20 -14t-25 -41.5t-22.5 -46t-11.5 -27.5v0z" />
    <glyph glyph-name="udieresis" unicode="&#xfc;" horiz-adv-x="412" 
d="M60 632v0q1 4 1 8q-1 6 -4.5 9.5t-9.5 6.5q-1 1 -4.5 2t-6.5 2t-5 0t-7.5 -10.5t-10.5 -19.5t-7 -13q-17 -35 -24 -71q-7 -48 35 -67q33 -9 61 9t48 43q-6 -43 5.5 -86t61.5 -49q45 2 87.5 30t92.5 80q32 37 38.5 41.5t9.5 11.5q0 4 -4.5 4.5t-6.5 -3.5q-38 -55 -98 -106
t-120 -55q-28 4 -35 32t-6 52q1 21 4 42v1q2 11 4.5 22.5t6.5 21.5t5.5 16.5t0.5 12.5q-1 5 -5.5 10.5t-10.5 8.5t-10 0q-5 -3 -8.5 -16.5t-6 -29t-3.5 -23.5v-2q-17 -22 -46 -45.5t-58 -15.5q-12 4 -14 18t3 33l6 20q5 15 11.5 30.5t16.5 27.5q4 5 7 8.5t6 8.5zM76 713v0
l2 2q3 3 5 6q3 4 5.5 11t1.5 13q0 1 -1 3.5t-3.5 6t-7 5l-7.5 2.5v0q-6 1 -9 0t-6 -7q-4 -7 -6 -16t1 -16q9 -14 25 -10zM151 706v0l2 2q3 3 5 6q3 4 5.5 11t1.5 13q0 1 -1 3.5t-3.5 6t-7 5l-7.5 2.5v0q-6 1 -9 0t-6 -7q-4 -7 -6 -16t1 -16q9 -14 25 -10z" />
    <glyph glyph-name="yacute" unicode="&#xfd;" horiz-adv-x="390" 
d="M159 641v0v0q-6 0 -7.5 -1t-2.5 -7v-6q-1 -4 -1 -8l-2 -12q-24 -35 -54.5 -63t-57.5 -31q-11 0 -14.5 4.5t-4.5 16.5q0 10 3 24v3q6 23 16 45q5 8 13 17q11 12 17.5 25t-3.5 27q-7 9 -13.5 10.5t-13.5 -8.5q-11 -17 -24 -48t-16.5 -62t13.5 -48q33 -23 72 9t67 71
q-2 -14 -4 -27q-19 -124 -41 -248q-106 -118 -158.5 -226.5t-63.5 -191.5q-9 -68 1 -109q7 -30 22 -42q48 -34 87.5 33.5t70 181.5t50 220.5t25.5 151.5q1 10 2 14l11 11q108 100 174 144.5t68 44.5q11 3 9 7q-2 2 -3 2t-2 -1l-6 -4q-7 -4 -14 -9q-2 -1 -5 -3
q-124 -82 -231 -185l16 96l4 30q1 10 15 72q1 5 4.5 29.5t1.5 33.5q-1 10 -7.5 13.5t-12.5 3.5zM100 316v0q-2 -15 -22 -115t-51 -218.5t-65 -188.5q-15 -27 -31.5 -37t-29.5 1q-11 11 -18 36q-10 41 -1 109q11 82 62.5 189t155.5 224zM181 842v-11v-7l-117 -101h-10l-7 7v4
l124 119z" />
    <glyph glyph-name="thorn" unicode="&#xfe;" horiz-adv-x="1010" 
 />
    <glyph glyph-name="ydieresis" unicode="&#xff;" horiz-adv-x="390" 
d="M159 641v0v0q-6 0 -7.5 -1t-2.5 -7v-6q-1 -4 -1 -8l-2 -12q-24 -35 -54.5 -63t-57.5 -31q-11 0 -14.5 4.5t-4.5 16.5q0 10 3 24v3q6 23 16 45q5 8 13 17q11 12 17.5 25t-3.5 27q-7 9 -13.5 10.5t-13.5 -8.5q-11 -17 -24 -48t-16.5 -62t13.5 -48q33 -23 72 9t67 71
q-2 -14 -4 -27q-19 -124 -41 -248q-106 -118 -158.5 -226.5t-63.5 -191.5q-9 -68 1 -109q7 -30 22 -42q48 -34 87.5 33.5t70 181.5t50 220.5t25.5 151.5q1 10 2 14l11 11q108 100 174 144.5t68 44.5q11 3 9 7q-2 2 -3 2t-2 -1l-6 -4q-7 -4 -14 -9q-2 -1 -5 -3
q-124 -82 -231 -185l16 96l4 30q1 10 15 72q1 5 4.5 29.5t1.5 33.5q-1 10 -7.5 13.5t-12.5 3.5zM100 316v0q-2 -15 -22 -115t-51 -218.5t-65 -188.5q-15 -27 -31.5 -37t-29.5 1q-11 11 -18 36q-10 41 -1 109q11 82 62.5 189t155.5 224zM94 735v0l2 2q3 3 5 6q3 4 5.5 11
t1.5 13q0 1 -1 3.5t-3.5 6t-7 5l-7.5 2.5v0q-6 1 -9 0t-6 -7q-4 -7 -6 -16t1 -16q9 -14 25 -10zM169 728v0l2 2q3 3 5 6q3 4 5.5 11t1.5 13q0 1 -1 3.5t-3.5 6t-7 5l-7.5 2.5v0q-6 1 -9 0t-6 -7q-4 -7 -6 -16t1 -16q9 -14 25 -10z" />
    <glyph glyph-name="dotlessi" unicode="&#x131;" horiz-adv-x="565" 
d="M361 180q0 -190 110 -190h50v-55h-486v55h51q110 0 110 190v476q0 84 -122 84h-53v49q244 76 287 200h53v-809z" />
    <glyph glyph-name="circumflex" unicode="&#x2c6;" horiz-adv-x="428" 
d="M385 771v0q-2 13 -11.5 54t-23.5 89t-29.5 82t-28.5 32q-46 -13 -92 -48t-85.5 -76t-63.5 -71t-25 -31q-1 -3 1 -8t7 -10q6 -5 11 -7t7 1v0q3 6 38 48.5t87.5 91.5t108.5 74q13 5 18.5 3t7.5 -10q18 -40 38.5 -102t31.5 -110q0 -1 0.5 -1.5t0.5 -1.5q2 0 2 1z" />
    <glyph glyph-name="caron" unicode="&#x2c7;" horiz-adv-x="428" 
d="M26 1027v0q2 -13 11.5 -54t23.5 -89t29 -82t29 -32q45 13 91.5 48t85.5 76t63 71t25 31q2 3 -0.5 8t-7.5 10q-5 6 -10 7.5t-7 -1.5h-1q-3 -6 -38 -48.5t-87 -91.5t-108 -74q-14 -5 -19 -3t-8 10q-17 40 -38 102t-31 110q0 1 -0.5 1.5l-1.5 1.5q-1 0 -1 -1z" />
    <glyph glyph-name="uni02C9" unicode="&#x2c9;" horiz-adv-x="1126" 
d="M279 1250v137h568v-137h-568z" />
    <glyph glyph-name="breve" unicode="&#x2d8;" horiz-adv-x="1126" 
d="M241 1419h56q19 -80 82.5 -117.5t183.5 -37.5t183 37t81 118h56q-22 -146 -103 -221.5t-217 -75.5q-134 0 -216.5 76t-105.5 221z" />
    <glyph glyph-name="dotaccent" unicode="&#x2d9;" horiz-adv-x="1127" 
d="M465 1353l76 79q6 7 14 10t15 3t14 -3t14 -10l78 -83q5 -5 7.5 -11.5t2.5 -15.5q-1 -10 -3.5 -16.5t-8.5 -12.5l-78 -84q-14 -12 -18 -15t-8 -3q-11 0 -18 3t-11 9l-83 96q-4 5 -6.5 11t-2.5 14q0 7 3.5 14t12.5 15z" />
    <glyph glyph-name="ring" unicode="&#x2da;" horiz-adv-x="351" 
d="M206 1088v0v0q23 -2 36 -14.5t17 -22.5q14 -28 6 -71q-13 -50 -47 -83l-2 -2v0q-26 -27 -63.5 -35t-60.5 23q-17 26 -14 66q1 9 3 19q13 51 48 85q36 35 77 35zM287 961v0q12 52 -7.5 91.5t-76.5 39.5q-41 0 -78 -35q-36 -34 -48 -85q-2 -10 -3 -20q-3 -41 15 -69
q13 -20 34 -29l7.5 -3t20 -5t26.5 -2t28 6q18 9 33 24q36 35 49 87z" />
    <glyph glyph-name="ogonek" unicode="&#x2db;" horiz-adv-x="1127" 
d="M704 -65q-78 -68 -121.5 -131.5t-43.5 -123.5q0 -52 30 -82.5t80 -30.5q44 0 76.5 17t54.5 53l31 -18q-40 -69 -100 -106.5t-131 -37.5q-77 0 -125.5 39t-48.5 100q0 84 66.5 172.5t177.5 148.5h54z" />
    <glyph glyph-name="tilde" unicode="&#x2dc;" horiz-adv-x="891" 
d="M638 1400l7 -14l-2 -15q-34 -7 -57 32t-63 62.5t-89 -13t-101 -42.5t-76 13l-5 12v14l7 10l48 -22q39 -31 109 10q80 63 124.5 47t97.5 -94z" />
    <glyph glyph-name="hungarumlaut" unicode="&#x2dd;" horiz-adv-x="1127" 
d="M239 1122l158 300q27 49 50.5 70t51.5 21q30 0 52 -22t22 -52q0 -18 -11.5 -39t-33.5 -45l-225 -233h-64zM552 1122l159 300q26 49 50 70t51 21q31 0 53 -22t22 -52q0 -18 -11.5 -39t-33.5 -45l-226 -233h-64z" />
    <glyph glyph-name="endash" unicode="&#x2013;" horiz-adv-x="1220" 
d="M62 396v132h1096v-132h-1096z" />
    <glyph glyph-name="emdash" unicode="&#x2014;" horiz-adv-x="2253" 
d="M0 396v132h2253v-132h-2253z" />
    <glyph glyph-name="quoteleft" unicode="&#x2018;" horiz-adv-x="211" 
d="M89 1124v0q5 -5 7 -10t0 -8v0q-2 -2 -12.5 -16t-21 -33.5t-13.5 -38.5q0 -4 -4.5 -4t-9.5 4q-6 4 -9.5 9.5t-3.5 9.5q6 34 30 69v0l0.5 0.5l1 1t0.5 1.5q9 12 17 21q2 3 7 1t11 -7z" />
    <glyph glyph-name="quoteright" unicode="&#x2019;" horiz-adv-x="211" 
d="M158 1124v0q5 -5 7 -10t0 -8v0q-3 -2 -13 -16t-21 -33.5t-13 -38.5q0 -4 -4.5 -4t-9.5 4q-6 4 -9.5 9.5t-3.5 9.5q5 34 30 69v0l0.5 0.5l1 1t0.5 1.5q9 12 17 21q2 3 7 1t11 -7z" />
    <glyph glyph-name="quotesinglbase" unicode="&#x201a;" horiz-adv-x="281" 
d="M110 421v0v0q3 -32 -5 -55q-8 -24 -25 -38q-4 -2 -1.5 -8.5t8.5 -13.5q7 -6 13 -9t10 0q20 15 28 42q9 26 6 62q0 5 -5.5 12t-12.5 11q-7 5 -11.5 4t-4.5 -7z" />
    <glyph glyph-name="quotedblleft" unicode="&#x201c;" horiz-adv-x="211" 
d="M89 1124v0q5 -5 7 -10t0 -8v0q-2 -2 -12.5 -16t-21 -33.5t-13.5 -38.5q0 -4 -4.5 -4t-9.5 4q-6 4 -9.5 9.5t-3.5 9.5q6 34 30 69v0l0.5 0.5l1 1t0.5 1.5q9 12 17 21q2 3 7 1t11 -7zM158 1124v0q5 -5 7 -10t0 -8v0q-3 -2 -13 -16t-21 -33.5t-13 -38.5q0 -4 -4.5 -4t-9.5 4
q-6 4 -9.5 9.5t-3.5 9.5q5 34 30 69v0l0.5 0.5l1 1t0.5 1.5q9 12 17 21q2 3 7 1t11 -7z" />
    <glyph glyph-name="quotedblright" unicode="&#x201d;" horiz-adv-x="211" 
d="M89 1124v0q5 -5 7 -10t0 -8v0q-2 -2 -12.5 -16t-21 -33.5t-13.5 -38.5q0 -4 -4.5 -4t-9.5 4q-6 4 -9.5 9.5t-3.5 9.5q6 34 30 69v0l0.5 0.5l1 1t0.5 1.5q9 12 17 21q2 3 7 1t11 -7zM158 1124v0q5 -5 7 -10t0 -8v0q-3 -2 -13 -16t-21 -33.5t-13 -38.5q0 -4 -4.5 -4t-9.5 4
q-6 4 -9.5 9.5t-3.5 9.5q5 34 30 69v0l0.5 0.5l1 1t0.5 1.5q9 12 17 21q2 3 7 1t11 -7z" />
    <glyph glyph-name="quotedblbase" unicode="&#x201e;" horiz-adv-x="281" 
d="M92 421v0v0q3 -32 -5 -55q-8 -24 -25 -38q-4 -2 -1.5 -8.5t8.5 -13.5q7 -6 13 -9t10 0q20 15 28 42q9 26 6 62q0 5 -5.5 12t-12.5 11q-7 5 -11.5 4t-4.5 -7zM199 408v0v0q3 -32 -5 -55q-8 -24 -25 -38q-4 -2 -1.5 -8.5t8.5 -13.5q7 -6 13 -9t10 0q20 15 28 42q9 26 6 62
q0 5 -5.5 12t-12.5 11q-7 5 -11.5 4t-4.5 -7z" />
    <glyph glyph-name="dagger" unicode="&#x2020;" horiz-adv-x="1115" 
d="M535 1059q-9 107 -60 196q-63 111 -63 142q0 54 40 86.5t106 32.5q62 0 103.5 -30.5t41.5 -78.5q0 -35 -61 -151q-50 -93 -60 -197q105 9 195 60q111 62 141 62q54 0 87 -39.5t33 -105.5q0 -62 -30 -103.5t-80 -41.5q-35 0 -149 61q-94 50 -197 62q9 -193 121 -304
q-117 -506 -123 -1072h-42q-7 566 -126 1072q113 111 123 304q-106 -11 -196 -60q-111 -63 -142 -63q-54 0 -86.5 39.5t-32.5 105.5q0 63 30.5 104t78.5 41q35 0 151 -61q93 -51 197 -61z" />
    <glyph glyph-name="daggerdbl" unicode="&#x2021;" horiz-adv-x="1115" 
d="M581 140q103 12 197 62q114 61 149 61q50 0 80 -41.5t30 -103.5q0 -66 -33 -105.5t-87 -39.5q-30 0 -142 62q-89 51 -194 60q10 -104 60 -197q61 -116 61 -151q0 -48 -41.5 -78.5t-103.5 -30.5q-66 0 -106 32.5t-40 86.5q0 31 63 142q51 89 59 196q-103 -10 -196 -61
q-116 -61 -151 -61q-49 0 -79 41t-30 104q0 66 32.5 105.5t86.5 39.5q31 0 142 -63q90 -49 195 -60q-9 248 -122 438q113 188 122 436q-105 -11 -195 -60q-111 -63 -142 -63q-54 0 -86.5 39.5t-32.5 105.5q0 63 30 104t79 41q35 0 151 -61q93 -51 196 -61q-8 107 -59 196
q-63 111 -63 142q0 54 40 86.5t106 32.5q62 0 103.5 -30.5t41.5 -78.5q0 -35 -61 -151q-50 -93 -60 -197q105 9 194 60q112 62 142 62q54 0 87 -39.5t33 -105.5q0 -62 -30 -103.5t-80 -41.5q-35 0 -149 61q-94 50 -197 62q9 -248 121 -436q-112 -190 -121 -438z" />
    <glyph glyph-name="bullet" unicode="&#x2022;" horiz-adv-x="1127" 
d="M238 725q0 135 95.5 229.5t231.5 94.5q134 0 229 -95t95 -229t-96 -230.5t-230 -96.5q-136 0 -230.5 96t-94.5 231z" />
    <glyph glyph-name="ellipsis" unicode="&#x2026;" horiz-adv-x="2253" 
d="M160 119l90 92q17 16 32 16q14 0 34 -18l88 -95q13 -17 13 -31q0 -17 -15 -35l-88 -96q-22 -22 -32 -22q-18 0 -32 15l-97 111q-11 14 -11 29q0 16 18 34zM911 119l90 92q17 16 32 16t34 -18l88 -95q14 -17 14 -31q0 -17 -16 -35l-88 -96q-22 -22 -32 -22q-17 0 -32 15
l-96 111q-11 14 -11 29q0 16 17 34zM1663 119l90 92q16 16 32 16q14 0 34 -18l88 -95q13 -17 13 -31q0 -17 -15 -35l-88 -96q-22 -22 -32 -22q-18 0 -32 15l-97 111q-11 14 -11 29q0 16 18 34z" />
    <glyph glyph-name="guilsinglleft" unicode="&#x2039;" horiz-adv-x="693" 
d="M191 462l376 333h15v-40l-225 -293l225 -293v-40h-15z" />
    <glyph glyph-name="guilsinglright" unicode="&#x203a;" horiz-adv-x="694" 
d="M127 129h-16v40l226 293l-226 293v40h16l376 -333z" />
    <glyph glyph-name="fraction" unicode="&#x2044;" horiz-adv-x="376" 
d="M-376 -97l1034 1607h92l-1031 -1607h-95z" />
    <glyph glyph-name="fraction" unicode="&#x2215;" horiz-adv-x="376" 
d="M-376 -97l1034 1607h92l-1031 -1607h-95z" />
    <glyph glyph-name="franc" unicode="&#x20a3;" 
d="M272 328h-213v66h213v805q0 259 -113 259h-106v55h1007l113 -255h-54q-65 201 -209 201l-348 -1q-112 0 -112 -259v-387h397q110 0 110 69v64h55v-376h-55v66q0 68 -110 68h-397v-309h214v-66h-214v-79q0 -259 112 -259h107v-55h-616v55h106q113 0 113 259v79z" />
    <glyph glyph-name="lira" unicode="&#x20a4;" horiz-adv-x="1115" 
d="M8728 214v0q42 45 70.5 107.5t47.5 134.5q19 4 38 6q60 7 111 7q4 1 4.5 4.5t-3.5 9.5t-9.5 9.5t-9.5 3.5q-52 0 -112 -7q-5 0 -10 -1q6 23 11 46q1 0 2 1q6 1 13 1q59 7 110 7q5 1 5 4.5t-4 9.5t-9 9.5t-10 4.5q-46 -1 -100 -6q4 14 7 27q1 7 3 14q21 99 45 173
q40 100 90.5 105t63.5 -80q-17 -26 -22 -56q0 -4 3.5 -9.5t9.5 -9.5t10 -4t4 4q2 15 9 30.5t16 28.5t15.5 21l6.5 8q2 3 0 8t-7 10t-10 7t-8 0q0 -1 -7 -9t-16 -22q-8 58 -40.5 84.5t-73 7t-71.5 -102.5q-24 -73 -44 -170q-1 -2 -1 -3l-4 -16q-5 -25 -11 -51l-24 -4
q-36 -7 -67 -20q-4 -2 -3 -6.5t6 -10.5q5 -5 10 -8t9 -1q17 7 35 12l4 1l10 2.5t12 2.5l-12 -46q-37 -7 -68 -20q-3 -2 -2 -6.5t6 -10.5q4 -5 9.5 -8t8.5 -2q17 7 36 13q-24 -82 -61.5 -147.5t-94.5 -100.5q-3 -2 -2 -6.5t6 -10.5q5 -5 10.5 -7.5t8.5 -1.5q15 9 30 19
q27 18 56.5 32t66.5 16q31 1 61 -20q21 -14 47.5 -25.5t61.5 -10.5q-3 -3 -5 -7q-1 -3 1.5 -8.5t7.5 -10.5q6 -5 10.5 -6t6.5 2q8 12 20.5 21.5t23.5 15t12 6.5v0q4 1 2.5 6t-5.5 10q-5 6 -10.5 8.5t-8.5 1.5q-1 0 -9 -4t-19 -11.5t-21 -17.5q-38 -3 -65.5 7.5t-49.5 25.5
q-32 24 -66 26q-51 -6 -98 -36z" />
    <glyph glyph-name="peseta" unicode="&#x20a7;" horiz-adv-x="2231" 
d="M450 1458v-729q4 -10 8 -18q45 -113 119 -169q63 -48 128 -48q11 0 20 1q75 9 140 82.5t96 194.5q24 96 24 197q0 27 -1 52q-8 127 -54.5 240t-119.5 159q-61 39 -123 39q-11 0 -23 -1h-214zM1646 934h-197v-754q0 -89 38 -130q30 -35 89 -41l-78 211l54 1
q60 -143 125 -191q63 -49 140 -49h7q102 0 166 58q65 58 65 149q0 112 -285 249q-111 57 -158 123t-47 159q0 134 80 214zM1143 936q-7 -111 -52 -213q-55 -126 -155.5 -195.5t-208.5 -69.5q-110 0 -211 70q-36 24 -66 56v-335q0 -259 113 -259h106v-55h-616v55h106
q113 0 113 259v950q0 259 -113 259h-106v55h680q101 -3 199 -69q100 -68 158 -194q55 -125 56 -261h11q237 0 237 390h55v-390h285q46 21 121 22h2q60 0 147.5 -15t87.5 -37v-175h-47q-4 73 -71.5 119t-146.5 46q-71 0 -113.5 -40t-42.5 -106q0 -119 259 -242
q134 -60 184 -129t50 -169q0 -154 -91 -254q-112 -93 -251 -95q-64 0 -115 12q-31 7 -62 7q-20 0 -40 -3q-30 -6 -64 -6q-137 0 -191.5 63t-63.5 193h-1v756h-142z" />
    <glyph glyph-name="Euro" unicode="&#x20ac;" horiz-adv-x="1115" 
d="M1296 427v0l1 1q7 2 34 8q-3 -91 10 -151q11 -55 48.5 -100t100.5 -29q42 15 77 62v1.5t-1 0.5q-1 1 -1.5 1h-0.5q-35 -47 -77 -62q-55 -15 -82.5 24t-36.5 88q-14 59 -10 152q0 9 1 17v2q56 13 117 19q4 0 4 4t-4 10t-9.5 9.5t-9.5 3.5q-48 -4 -96 -14q2 20 5 38
q0 3 1 6q0 3 1 6q68 16 143 23q4 0 4 4t-4 10t-9.5 9.5t-9.5 3.5q-60 -5 -118 -17q32 137 89 201q67 73 116 69h5q27 -5 43 -26t22 -47q-24 -35 -29 -69q-1 -4 2.5 -9.5t9.5 -9.5t10 -4t5 4q2 19 12.5 38.5t21 33.5t12.5 16v0q2 3 0 8t-7 10t-10 7t-8 -1q-8 -9 -16 -21
q-9 33 -29 61.5t-54 34.5q-3 1 -7 1q-54 4 -124 -72q-65 -71 -96 -232q-32 -7 -51.5 -12t-20.5 -6q-4 -1 -3 -5.5t5 -9.5q5 -6 10 -9t9 -2v0q5 1 46 11q-3 -23 -5 -49q-25 -6 -41 -10t-17 -4q-3 -1 -2.5 -5.5t5.5 -10.5q4 -5 9.5 -8.5t9.5 -2.5z" />
    <glyph glyph-name="uni2116" unicode="&#x2116;" horiz-adv-x="2271" 
 />
    <glyph glyph-name="trademark" unicode="&#x2122;" horiz-adv-x="1497" 
 />
    <glyph glyph-name="partialdiff" unicode="&#x2202;" 
d="M256 526q0 -45 5 -87q15 -134 67.5 -253t130.5 -182q70 -58 141 -58q6 0 14 1q77 6 140.5 78t88.5 197q18 81 18 164q0 46 -6 94q-15 134 -68.5 254.5t-131.5 181.5q-72 55 -141 55h-12q-75 -5 -138.5 -76t-90.5 -196q-17 -93 -17 -173zM1031 460q0 -145 -62 -276
t-175 -203.5t-236 -72.5t-236 72.5t-175 203.5t-62 276q0 144 64 276t177 203.5t232 71.5q120 0 233 -72q32 -19 60 -45q-93 259 -257.5 415t-358.5 171v60q336 0 566 -313.5t230 -766.5z" />
    <glyph glyph-name="Delta" unicode="&#x2206;" horiz-adv-x="1190" 
d="M566 1250l-447 -1180h881zM602 1513l579 -1578h-1174z" />
    <glyph glyph-name="product" unicode="&#x220f;" horiz-adv-x="1667" 
d="M562 1458q-112 0 -112 -259v-1409q0 -259 112 -259h107v-56h-616v56h106q113 0 113 259v1409q0 259 -113 259h-106v55h1561v-55h-107q-112 0 -112 -259v-1409q0 -259 112 -259h107v-55h-616v55h106q113 0 113 259v1409q0 259 -113 259h-542z" />
    <glyph glyph-name="summation" unicode="&#x2211;" horiz-adv-x="1326" 
d="M1165 538l-867 -1005h699q143 0 207 200h54l-113 -255h-1013v55q68 0 117 58l729 859l-729 945q-49 63 -117 63v55h1013l113 -256h-54q-64 201 -207 201h-534z" />
    <glyph glyph-name="minus" unicode="&#x2212;" 
d="M96 647v154h923l1 -1v-153h-924z" />
    <glyph glyph-name="radical" unicode="&#x221a;" 
d="M199 -65l-180 395l81 39l94 -204l801 1617h165v-66h-80z" />
    <glyph glyph-name="infinity" unicode="&#x221e;" 
d="M483 766q-16 113 -81 146q-51 24 -92 24q-14 0 -26 -2q-54 -11 -101.5 -49t-71.5 -93q-22 -51 -22 -99v-9q2 -53 30 -98t78 -63q32 -13 68 -13q17 0 36 4q52 11 99.5 47.5t82.5 204.5zM513 691q13 -106 104 -168q75 -53 135 -53q12 0 23 2q68 13 129 57t93 111
q29 60 29 119v12q-2 66 -39 119.5t-101 75.5q-41 14 -84 14q-24 0 -48 -4q-74 -10 -140 -68.5t-101 -216.5zM496 845q9 38 23 76q37 97 104 150.5t141 53.5t141 -52.5t104.5 -148.5t37.5 -200q0 -105 -37.5 -200.5t-104.5 -148.5t-141 -53t-141 54t-104 150q-14 38 -23 77
q-6 -23 -14 -45q-29 -81 -81 -125t-109 -44t-110 45.5t-81 125t-28 164.5q0 83 28 163.5t81 125.5t110 45t109 -44t81 -123q8 -23 14 -46z" />
    <glyph glyph-name="integral" unicode="&#x222b;" horiz-adv-x="732" 
d="M-13 -374q-66 0 -66 32v175h40q1 -47 38 -71t70 -24h1q90 0 126 178q36 179 44 348l77 807l9 69q30 261 149 472t257 211q66 0 66 -32v-175h-39q-2 47 -39 71t-69 24q-78 0 -127.5 -171.5t-54.5 -399.5l-80 -844q-22 -254 -143.5 -462t-258.5 -208z" />
    <glyph glyph-name="approxequal" unicode="&#x2248;" horiz-adv-x="1115" 
d="M1015 1093v-171q-69 -79 -134 -107t-128 -28q-66 0 -195 53t-194 53q-56 0 -118.5 -30.5t-142.5 -123.5v172q71 80 135.5 108.5t125.5 28.5q70 0 199.5 -54.5t189.5 -54.5q57 0 119.5 31t142.5 123zM1015 711v-172q-69 -79 -134 -107t-128 -28q-66 0 -195 53t-194 53
q-56 0 -118.5 -30.5t-142.5 -123.5v172q71 80 135.5 109t125.5 29q70 0 199.5 -54.5t189.5 -54.5q57 0 119.5 30.5t142.5 123.5z" />
    <glyph glyph-name="lessequal" unicode="&#x2264;" 
d="M1020 1117l-687 -395l687 -391v-184l-924 530v91l924 532v-183zM96 -64v154h923l1 -1v-153h-924z" />
    <glyph glyph-name="greaterequal" unicode="&#x2265;" 
d="M96 1300l924 -532v-91l-924 -530v184l688 391l-688 395v183zM96 -63v154h923l1 -1v-153h-924z" />
    <glyph glyph-name="uniF001" unicode="&#xf001;" horiz-adv-x="1073" 
 />
    <glyph glyph-name="uniF001" unicode="&#xfb01;" horiz-adv-x="1073" 
 />
    <glyph glyph-name="uniF002" unicode="&#xf002;" horiz-adv-x="1081" 
 />
    <glyph glyph-name="uniF002" unicode="&#xfb02;" horiz-adv-x="1081" 
 />
  </font>
</defs>
</svg>
